<svg width="20" height="20" viewBox="0 0 20 20" fill="none" xmlns="http://www.w3.org/2000/svg">
<g clip-path="url(#clip0)">
<path d="M7.91667 6.66667H1.25C0.560833 6.66667 0 6.10583 0 5.41667V1.25C0 0.560833 0.560833 0 1.25 0H7.91667C8.60583 0 9.16667 0.560833 9.16667 1.25V5.41667C9.16667 6.10583 8.60583 6.66667 7.91667 6.66667ZM1.25 0.833333C1.02083 0.833333 0.833333 1.02 0.833333 1.25V5.41667C0.833333 5.64667 1.02083 5.83333 1.25 5.83333H7.91667C8.14583 5.83333 8.33333 5.64667 8.33333 5.41667V1.25C8.33333 1.02 8.14583 0.833333 7.91667 0.833333H1.25Z" fill="#909090"/>
<path d="M7.91667 20.0007H1.25C0.560833 20.0007 0 19.4398 0 18.7507V9.58398C0 8.89482 0.560833 8.33398 1.25 8.33398H7.91667C8.60583 8.33398 9.16667 8.89482 9.16667 9.58398V18.7507C9.16667 19.4398 8.60583 20.0007 7.91667 20.0007ZM1.25 9.16732C1.02083 9.16732 0.833333 9.35398 0.833333 9.58398V18.7507C0.833333 18.9807 1.02083 19.1673 1.25 19.1673H7.91667C8.14583 19.1673 8.33333 18.9807 8.33333 18.7507V9.58398C8.33333 9.35398 8.14583 9.16732 7.91667 9.16732H1.25Z" fill="#909090"/>
<path d="M18.7499 20.0006H12.0832C11.3941 20.0006 10.8333 19.4398 10.8333 18.7506V14.584C10.8333 13.8948 11.3941 13.334 12.0832 13.334H18.7499C19.4391 13.334 19.9999 13.8948 19.9999 14.584V18.7506C19.9999 19.4398 19.4391 20.0006 18.7499 20.0006ZM12.0832 14.1673C11.8541 14.1673 11.6666 14.354 11.6666 14.584V18.7506C11.6666 18.9806 11.8541 19.1673 12.0832 19.1673H18.7499C18.9791 19.1673 19.1666 18.9806 19.1666 18.7506V14.584C19.1666 14.354 18.9791 14.1673 18.7499 14.1673H12.0832Z" fill="#909090"/>
<path d="M18.7499 11.6667H12.0832C11.3941 11.6667 10.8333 11.1058 10.8333 10.4167V1.25C10.8333 0.560833 11.3941 0 12.0832 0H18.7499C19.4391 0 19.9999 0.560833 19.9999 1.25V10.4167C19.9999 11.1058 19.4391 11.6667 18.7499 11.6667ZM12.0832 0.833333C11.8541 0.833333 11.6666 1.02 11.6666 1.25V10.4167C11.6666 10.6467 11.8541 10.8333 12.0832 10.8333H18.7499C18.9791 10.8333 19.1666 10.6467 19.1666 10.4167V1.25C19.1666 1.02 18.9791 0.833333 18.7499 0.833333H12.0832Z" fill="#909090"/>
</g>
<defs>
<clipPath id="clip0">
<rect width="20" height="20" fill="white"/>
</clipPath>
</defs>
</svg>
