<svg width="38" height="38" viewBox="0 0 38 38" fill="none" xmlns="http://www.w3.org/2000/svg">
<g clip-path="url(#clip0)">
<path d="M-8.30516e-07 19C-1.28844e-06 29.4761 8.52317 38 19 38C24.0793 38 28.8514 36.0247 32.4378 32.4378C36.0247 28.8506 38 24.0793 38 19C38 8.52317 29.4768 -3.7256e-07 19 -8.30516e-07C13.9207 -1.05254e-06 9.14862 1.9753 5.56215 5.56215C1.9753 9.14862 -6.08491e-07 13.9207 -8.30516e-07 19ZM3.16666 19C3.16666 15.2999 4.42452 11.7958 6.7369 8.97583L29.0242 31.2631C26.2042 33.5755 22.7001 34.8333 19 34.8333C10.2696 34.8333 3.16666 27.7304 3.16666 19ZM34.8333 19C34.8333 22.6993 33.5755 26.2042 31.2631 29.0234L8.97583 6.7369C11.7958 4.42452 15.2999 3.16667 19 3.16667C27.7304 3.16667 34.8333 10.2696 34.8333 19Z" fill="#77C360"/>
<path d="M18.3365 24.0379C18.4235 24.125 18.5269 24.194 18.6406 24.2411C18.7544 24.2882 18.8763 24.3125 18.9994 24.3125C19.1225 24.3125 19.2444 24.2882 19.3582 24.2411C19.4719 24.194 19.5753 24.125 19.6623 24.0379L23.1978 20.5024C23.3736 20.3266 23.4724 20.0881 23.4724 19.8395C23.4724 19.5908 23.3736 19.3524 23.1978 19.1766C23.022 19.0007 22.7836 18.902 22.5349 18.902C22.2863 18.902 22.0478 19.0007 21.872 19.1766L19.9369 21.1117V10.875C19.9369 10.6264 19.8381 10.3879 19.6623 10.2121C19.4865 10.0363 19.248 9.9375 18.9994 9.9375C18.7507 9.9375 18.5123 10.0363 18.3365 10.2121C18.1607 10.3879 18.0619 10.6264 18.0619 10.875V21.1117L16.1268 19.1766C15.951 19.0007 15.7125 18.902 15.4639 18.902C15.2152 18.902 14.9768 19.0007 14.801 19.1766C14.6251 19.3524 14.5264 19.5908 14.5264 19.8395C14.5264 20.0881 14.6251 20.3266 14.801 20.5024L18.3365 24.0379Z" fill="#77C360"/>
<path d="M27.125 18.0625C26.8764 18.0625 26.6379 18.1613 26.4621 18.3371C26.2863 18.5129 26.1875 18.7514 26.1875 19V26.1875H11.8125V19C11.8125 18.7514 11.7137 18.5129 11.5379 18.3371C11.3621 18.1613 11.1236 18.0625 10.875 18.0625C10.6264 18.0625 10.3879 18.1613 10.2121 18.3371C10.0363 18.5129 9.9375 18.7514 9.9375 19V26.5C9.9375 26.9144 10.1021 27.3118 10.3951 27.6049C10.6882 27.8979 11.0856 28.0625 11.5 28.0625H26.5C26.9144 28.0625 27.3118 27.8979 27.6049 27.6049C27.8979 27.3118 28.0625 26.9144 28.0625 26.5V19C28.0625 18.7514 27.9637 18.5129 27.7879 18.3371C27.6121 18.1613 27.3736 18.0625 27.125 18.0625Z" fill="#77C360"/>
</g>
<defs>
<clipPath id="clip0">
<rect width="38" height="38" fill="white" transform="translate(38) rotate(90)"/>
</clipPath>
</defs>
</svg>
