<svg width="38" height="38" viewBox="0 0 38 38" fill="none" xmlns="http://www.w3.org/2000/svg">
<path d="M25.6766 9H11.4707V28.1471H12.706V10.2353H25.6766V9Z" fill="#77C360"/>
<path d="M13.9414 11.4707V30.0001H22.5885V25.0589H27.5296V11.4707H13.9414ZM20.7355 25.0589H16.412V23.8236H20.7355V25.0589ZM25.0591 22.5884H16.412V21.3531H25.0591V22.5884ZM25.0591 20.1178H16.412V18.8825H25.0591V20.1178ZM25.0591 17.6472H16.412V16.4119H25.0591V17.6472ZM25.0591 15.1766H16.412V13.9413H25.0591V15.1766Z" fill="#77C360"/>
<path d="M23.8232 29.638L27.1673 26.2939H23.8232V29.638Z" fill="#77C360"/>
<g clip-path="url(#clip0)">
<path d="M-8.30516e-07 19C-1.28844e-06 29.4761 8.52317 38 19 38C24.0793 38 28.8514 36.0247 32.4378 32.4378C36.0247 28.8506 38 24.0793 38 19C38 8.52317 29.4768 -3.7256e-07 19 -8.30516e-07C13.9207 -1.05254e-06 9.14862 1.9753 5.56215 5.56215C1.9753 9.14862 -6.08491e-07 13.9207 -8.30516e-07 19ZM3.16666 19C3.16666 15.2999 4.42452 11.7958 6.7369 8.97583L29.0242 31.2631C26.2042 33.5755 22.7001 34.8333 19 34.8333C10.2696 34.8333 3.16666 27.7304 3.16666 19ZM34.8333 19C34.8333 22.6993 33.5755 26.2042 31.2631 29.0234L8.97583 6.7369C11.7958 4.42452 15.2999 3.16667 19 3.16667C27.7304 3.16667 34.8333 10.2696 34.8333 19Z" fill="#77C360"/>
</g>
<defs>
<clipPath id="clip0">
<rect width="38" height="38" fill="white" transform="translate(38) rotate(90)"/>
</clipPath>
</defs>
</svg>
