<svg width="38" height="38" viewBox="0 0 38 38" fill="none" xmlns="http://www.w3.org/2000/svg">
<g clip-path="url(#clip0)">
<path d="M-8.30516e-07 19C-1.28844e-06 29.4761 8.52317 38 19 38C24.0793 38 28.8514 36.0247 32.4378 32.4378C36.0247 28.8506 38 24.0793 38 19C38 8.52317 29.4768 -3.7256e-07 19 -8.30516e-07C13.9207 -1.05254e-06 9.14862 1.9753 5.56215 5.56215C1.9753 9.14862 -6.08491e-07 13.9207 -8.30516e-07 19ZM3.16666 19C3.16666 15.2999 4.42452 11.7958 6.7369 8.97583L29.0242 31.2631C26.2042 33.5755 22.7001 34.8333 19 34.8333C10.2696 34.8333 3.16666 27.7304 3.16666 19ZM34.8333 19C34.8333 22.6993 33.5755 26.2042 31.2631 29.0234L8.97583 6.7369C11.7958 4.42452 15.2999 3.16667 19 3.16667C27.7304 3.16667 34.8333 10.2696 34.8333 19Z" fill="#77C360"/>
</g>
<g clip-path="url(#clip1)">
<path d="M26.911 14.2252C27.238 14.5519 27.238 15.081 26.911 15.4077L14.5307 26.7509L12.7954 28.3409L10.3565 25.9018L11.9465 24.1664L22.0033 13.19L21.6281 12.8144L16.8811 17.5617C16.718 17.7249 16.453 17.7249 16.2899 17.5617L16.225 17.4968C16.0618 17.3337 16.0618 17.0687 16.225 16.9056L22.7748 10.3565C22.9382 10.1933 23.2028 10.1933 23.3663 10.3565L23.4312 10.421C23.5944 10.5842 23.5944 10.8491 23.4312 11.0123L22.5154 11.9281L22.8516 12.2647L23.29 11.7866C23.6163 11.4599 24.1455 11.4599 24.4725 11.7866L26.911 14.2252ZM8.76904 29.5181L9.18044 29.9302L12.5091 28.5048L10.1938 26.1895L8.76904 29.5181ZM26.5074 9.54639L27.8824 10.9214L26.9046 9.94364L25.0653 11.7827L27.0298 13.7472L28.8692 11.9079L29.2451 12.2838C29.2451 12.2841 29.3706 9.81811 26.5074 9.54639Z" fill="#77C360"/>
</g>
<defs>
<clipPath id="clip0">
<rect width="38" height="38" fill="white" transform="translate(38) rotate(90)"/>
</clipPath>
<clipPath id="clip1">
<rect width="20.4769" height="20.4769" fill="white" transform="translate(8.76904 9.5)"/>
</clipPath>
</defs>
</svg>
  