<svg width="38" height="38" viewBox="0 0 38 38" fill="none" xmlns="http://www.w3.org/2000/svg">
<path d="M26.1543 12.2539V11.2227C26.1543 9.44568 24.7086 8 22.9316 8H15.0254C13.2484 8 11.8027 9.44568 11.8027 11.2227V12.2539H26.1543Z" fill="#77C360"/>
<path d="M13.0918 21.707V26.9492V28.0664V28.7109C13.0918 29.4228 13.6689 30 14.3809 30H23.5762C24.2881 30 24.8652 29.4228 24.8652 28.7109V28.0664V26.9492V21.707H13.0918ZM20.6973 27.207H17.2598C16.9038 27.207 16.6152 26.9185 16.6152 26.5625C16.6152 26.2065 16.9038 25.918 17.2598 25.918H20.6973C21.0532 25.918 21.3418 26.2065 21.3418 26.5625C21.3418 26.9185 21.0532 27.207 20.6973 27.207ZM20.6973 24.457H17.2598C16.9038 24.457 16.6152 24.1685 16.6152 23.8125C16.6152 23.4565 16.9038 23.168 17.2598 23.168H20.6973C21.0532 23.168 21.3418 23.4565 21.3418 23.8125C21.3418 24.1685 21.0532 24.457 20.6973 24.457Z" fill="#77C360"/>
<path d="M26.7559 13.543H11.2441C9.46717 13.543 8.02148 14.9887 8.02148 16.7656V21.9219C8.02148 23.6988 9.46717 25.1445 11.2441 25.1445H11.8027V21.707H11.416C11.0601 21.707 10.7715 21.4185 10.7715 21.0625C10.7715 20.7065 11.0601 20.418 11.416 20.418H12.4473H25.5098H26.541C26.897 20.418 27.1855 20.7065 27.1855 21.0625C27.1855 21.4185 26.897 21.707 26.541 21.707H26.1543V25.1445H26.7559C28.5328 25.1445 29.9785 23.6988 29.9785 21.9219V16.7656C29.9785 14.9887 28.5328 13.543 26.7559 13.543ZM13.4785 17.582H11.416C11.0601 17.582 10.7715 17.2935 10.7715 16.9375C10.7715 16.5815 11.0601 16.293 11.416 16.293H13.4785C13.8345 16.293 14.123 16.5815 14.123 16.9375C14.123 17.2935 13.8345 17.582 13.4785 17.582Z" fill="#77C360"/>
<path d="M-8.30516e-07 19C-1.28844e-06 29.4761 8.52317 38 19 38C24.0793 38 28.8514 36.0247 32.4378 32.4378C36.0247 28.8506 38 24.0793 38 19C38 8.52317 29.4768 -3.7256e-07 19 -8.30516e-07C13.9207 -1.05254e-06 9.14862 1.9753 5.56215 5.56215C1.9753 9.14862 -6.08491e-07 13.9207 -8.30516e-07 19ZM3.16666 19C3.16666 15.2999 4.42452 11.7958 6.7369 8.97583L29.0242 31.2631C26.2042 33.5755 22.7001 34.8333 19 34.8333C10.2696 34.8333 3.16666 27.7304 3.16666 19ZM34.8333 19C34.8333 22.6993 33.5755 26.2042 31.2631 29.0234L8.97583 6.7369C11.7958 4.42452 15.2999 3.16667 19 3.16667C27.7304 3.16667 34.8333 10.2696 34.8333 19Z" fill="#77C360"/>
</svg>
