<svg width="38" height="38" viewBox="0 0 38 38" fill="none" xmlns="http://www.w3.org/2000/svg">
<path d="M28.2373 16.3947L13.8349 9.07617L13.251 10.2254L27.6533 17.5439C28.3057 17.8754 28.7109 18.536 28.7109 19.2677V20.4789H8V23.7015C8 25.4785 9.44568 26.9242 11.2227 26.9242H30V19.2677C30 18.0481 29.3246 16.9472 28.2373 16.3947ZM11.8672 24.5609C11.3926 24.5609 11.0078 24.1762 11.0078 23.7015C11.0078 23.2269 11.3926 22.8422 11.8672 22.8422C12.3418 22.8422 12.7266 23.2269 12.7266 23.7015C12.7266 24.1762 12.3418 24.5609 11.8672 24.5609Z" fill="#77C360"/>
<path d="M25.7031 18.3306H11.2227V19.6196H25.7031V18.3306Z" fill="#77C360"/>
<path d="M-8.30516e-07 19C-1.28844e-06 29.4761 8.52317 38 19 38C24.0793 38 28.8514 36.0247 32.4378 32.4378C36.0247 28.8506 38 24.0793 38 19C38 8.52317 29.4768 -3.7256e-07 19 -8.30516e-07C13.9207 -1.05254e-06 9.14862 1.9753 5.56215 5.56215C1.9753 9.14862 -6.08491e-07 13.9207 -8.30516e-07 19ZM3.16666 19C3.16666 15.2999 4.42452 11.7958 6.7369 8.97583L29.0242 31.2631C26.2042 33.5755 22.7001 34.8333 19 34.8333C10.2696 34.8333 3.16666 27.7304 3.16666 19ZM34.8333 19C34.8333 22.6993 33.5755 26.2042 31.2631 29.0234L8.97583 6.7369C11.7958 4.42452 15.2999 3.16667 19 3.16667C27.7304 3.16667 34.8333 10.2696 34.8333 19Z" fill="#77C360"/>
</svg>
