<svg width="38" height="38" viewBox="0 0 38 38" fill="none" xmlns="http://www.w3.org/2000/svg">
<path d="M23.8451 14.2137L19.4701 9.21375C19.3513 9.07875 19.1801 9 19.0001 9C18.8201 9 18.6488 9.07875 18.5301 9.21375L14.1551 14.2137C13.9938 14.3987 13.9538 14.66 14.0563 14.8837C14.1576 15.1062 14.3801 15.25 14.6251 15.25H17.1251V23.375C17.1251 23.72 17.4051 24 17.7501 24H20.2501C20.5951 24 20.8751 23.72 20.8751 23.375V15.25H23.3751C23.6201 15.25 23.8426 15.1075 23.9438 14.8837C24.0451 14.66 24.0076 14.3975 23.8451 14.2137Z" fill="#77C360"/>
<path d="M25.875 22.75V26.5H12.125V22.75H9.625V27.75C9.625 28.4412 10.185 29 10.875 29H27.125C27.8162 29 28.375 28.4412 28.375 27.75V22.75H25.875Z" fill="#77C360"/>
<path d="M-8.30516e-07 19C-1.28844e-06 29.4761 8.52317 38 19 38C24.0793 38 28.8514 36.0247 32.4378 32.4378C36.0247 28.8506 38 24.0793 38 19C38 8.52317 29.4768 -3.7256e-07 19 -8.30516e-07C13.9207 -1.05254e-06 9.14862 1.9753 5.56215 5.56215C1.9753 9.14862 -6.08491e-07 13.9207 -8.30516e-07 19ZM3.16666 19C3.16666 15.2999 4.42452 11.7958 6.7369 8.97583L29.0242 31.2631C26.2042 33.5755 22.7001 34.8333 19 34.8333C10.2696 34.8333 3.16666 27.7304 3.16666 19ZM34.8333 19C34.8333 22.6993 33.5755 26.2042 31.2631 29.0234L8.97583 6.7369C11.7958 4.42452 15.2999 3.16667 19 3.16667C27.7304 3.16667 34.8333 10.2696 34.8333 19Z" fill="#77C360"/>
</svg>
