<svg width="133" height="133" viewBox="0 0 133 133" fill="none" xmlns="http://www.w3.org/2000/svg">
<g filter="url(#filter0_d)">
<path d="M66.5 16C40.8589 16 20 36.8589 20 62.5C20 88.1411 40.8589 109 66.5 109C92.1411 109 113 88.1411 113 62.5C113 36.8589 92.1411 16 66.5 16Z" fill="#77C360"/>
<g clip-path="url(#clip0)">
<path d="M81.224 52.1247C80.7214 49.1383 79.2427 46.4129 76.9812 44.3446C74.4684 42.0444 71.2017 40.7783 67.7997 40.7783C65.1709 40.7783 62.6097 41.5322 60.4158 42.9529C58.5892 44.132 57.0718 45.7267 55.9991 47.6016C55.5352 47.5146 55.0519 47.4663 54.5687 47.4663C50.4612 47.4663 47.1172 50.8103 47.1172 54.9178C47.1172 55.4494 47.1752 55.9616 47.2718 56.4642C44.614 58.3971 43 61.5092 43 64.8242C43 67.5013 43.9955 70.1011 45.8124 72.1597C47.6777 74.2666 50.1422 75.5134 52.771 75.6583C52.8 75.6583 52.8194 75.6583 52.8484 75.6583H61.16C61.8849 75.6583 62.4648 75.0784 62.4648 74.3536C62.4648 73.6287 61.8849 73.0488 61.16 73.0488H52.887C48.9341 72.8072 45.6095 69.0476 45.6095 64.8145C45.6095 62.0794 47.0785 59.5279 49.4464 58.1458C49.9973 57.8269 50.2292 57.16 50.0166 56.5608C49.8233 56.0389 49.7267 55.488 49.7267 54.8985C49.7267 52.231 51.9012 50.0565 54.5687 50.0565C55.1389 50.0565 55.6995 50.1531 56.2213 50.3464C56.8592 50.5784 57.5647 50.2884 57.8547 49.6795C59.662 45.8426 63.5665 43.3685 67.8094 43.3685C73.5115 43.3685 78.2183 47.6403 78.7595 53.3038C78.8175 53.8934 79.2621 54.3669 79.8419 54.4636C84.1427 55.1981 87.3901 59.1703 87.3901 63.7031C87.3901 68.5064 83.6112 72.6816 78.9528 73.0392H71.8299C71.105 73.0392 70.5251 73.6191 70.5251 74.3439C70.5251 75.0688 71.105 75.6487 71.8299 75.6487H79.0011C79.0301 75.6487 79.0591 75.6487 79.0978 75.6487C82.0455 75.436 84.7999 74.083 86.8489 71.8214C88.8881 69.5792 89.9996 66.6991 89.9996 63.7031C89.9899 58.2811 86.2883 53.4584 81.224 52.1247Z" fill="white"/>
<path d="M74.333 66.0613C74.8453 65.5491 74.8453 64.7276 74.333 64.2153L67.4227 57.305C67.1811 57.0634 66.8429 56.9185 66.5046 56.9185C66.1663 56.9185 65.8281 57.0538 65.5864 57.305L58.6762 64.2153C58.1639 64.7276 58.1639 65.5491 58.6762 66.0613C58.9274 66.3126 59.2657 66.4479 59.5943 66.4479C59.9229 66.4479 60.2612 66.3222 60.5125 66.0613L65.1999 61.3739V82.9166C65.1999 83.6414 65.7797 84.2213 66.5046 84.2213C67.2295 84.2213 67.8093 83.6414 67.8093 82.9166V61.3739L72.4967 66.0613C72.9993 66.5735 73.8208 66.5735 74.333 66.0613Z" fill="white"/>
</g>
</g>
<defs>
<filter id="filter0_d" x="0" y="0" width="133" height="133" filterUnits="userSpaceOnUse" color-interpolation-filters="sRGB">
<feFlood flood-opacity="0" result="BackgroundImageFix"/>
<feColorMatrix in="SourceAlpha" type="matrix" values="0 0 0 0 0 0 0 0 0 0 0 0 0 0 0 0 0 0 127 0"/>
<feOffset dy="4"/>
<feGaussianBlur stdDeviation="10"/>
<feColorMatrix type="matrix" values="0 0 0 0 0.466667 0 0 0 0 0.764706 0 0 0 0 0.376471 0 0 0 0.5 0"/>
<feBlend mode="normal" in2="BackgroundImageFix" result="effect1_dropShadow"/>
<feBlend mode="normal" in="SourceGraphic" in2="effect1_dropShadow" result="shape"/>
</filter>
<clipPath id="clip0">
<rect width="46.9996" height="46.9996" fill="white" transform="translate(43 39)"/>
</clipPath>
</defs>
</svg>

