<svg width="496" height="429" viewBox="0 0 496 429" fill="none" xmlns="http://www.w3.org/2000/svg">
<path d="M77.3141 161.28V141.408L122.818 76.32H150.322V139.968H162.13V161.28H150.322V180H125.698V161.28H77.3141ZM127.426 103.392L103.234 139.968H127.426V103.392ZM178.511 126C178.511 109.488 181.679 96.48 188.015 86.976C194.447 77.472 204.767 72.72 218.975 72.72C233.183 72.72 243.455 77.472 249.791 86.976C256.223 96.48 259.439 109.488 259.439 126C259.439 142.704 256.223 155.808 249.791 165.312C243.455 174.816 233.183 179.568 218.975 179.568C204.767 179.568 194.447 174.816 188.015 165.312C181.679 155.808 178.511 142.704 178.511 126ZM235.247 126C235.247 116.304 234.191 108.864 232.079 103.68C229.967 98.4 225.599 95.76 218.975 95.76C212.351 95.76 207.983 98.4 205.871 103.68C203.759 108.864 202.703 116.304 202.703 126C202.703 132.528 203.087 137.952 203.855 142.272C204.623 146.496 206.159 149.952 208.463 152.64C210.863 155.232 214.367 156.528 218.975 156.528C223.583 156.528 227.039 155.232 229.343 152.64C231.743 149.952 233.327 146.496 234.095 142.272C234.863 137.952 235.247 132.528 235.247 126ZM277.345 161.28V141.408L322.849 76.32H350.353V139.968H362.161V161.28H350.353V180H325.729V161.28H277.345ZM327.457 103.392L303.265 139.968H327.457V103.392Z" fill="#8DC73F"/>
<path d="M77.3141 161.28H75.3141V163.28H77.3141V161.28ZM77.3141 141.408L75.675 140.262L75.3141 140.778V141.408H77.3141ZM122.818 76.32V74.32H121.776L121.179 75.174L122.818 76.32ZM150.322 76.32H152.322V74.32H150.322V76.32ZM150.322 139.968H148.322V141.968H150.322V139.968ZM162.13 139.968H164.13V137.968H162.13V139.968ZM162.13 161.28V163.28H164.13V161.28H162.13ZM150.322 161.28V159.28H148.322V161.28H150.322ZM150.322 180V182H152.322V180H150.322ZM125.698 180H123.698V182H125.698V180ZM125.698 161.28H127.698V159.28H125.698V161.28ZM127.426 103.392H129.426V96.7428L125.758 102.289L127.426 103.392ZM103.234 139.968L101.566 138.865L99.5134 141.968H103.234V139.968ZM127.426 139.968V141.968H129.426V139.968H127.426ZM79.3141 161.28V141.408H75.3141V161.28H79.3141ZM78.9533 142.554L124.457 77.4659L121.179 75.174L75.675 140.262L78.9533 142.554ZM122.818 78.32H150.322V74.32H122.818V78.32ZM148.322 76.32V139.968H152.322V76.32H148.322ZM150.322 141.968H162.13V137.968H150.322V141.968ZM160.13 139.968V161.28H164.13V139.968H160.13ZM162.13 159.28H150.322V163.28H162.13V159.28ZM148.322 161.28V180H152.322V161.28H148.322ZM150.322 178H125.698V182H150.322V178ZM127.698 180V161.28H123.698V180H127.698ZM125.698 159.28H77.3141V163.28H125.698V159.28ZM125.758 102.289L101.566 138.865L104.902 141.071L129.094 104.495L125.758 102.289ZM103.234 141.968H127.426V137.968H103.234V141.968ZM129.426 139.968V103.392H125.426V139.968H129.426ZM188.015 86.976L186.359 85.855L186.351 85.8666L188.015 86.976ZM249.791 86.976L248.127 88.0854L248.135 88.097L249.791 86.976ZM249.791 165.312L248.135 164.191L248.127 164.203L249.791 165.312ZM188.015 165.312L186.351 166.421L186.359 166.433L188.015 165.312ZM232.079 103.68L230.222 104.423L230.227 104.435L232.079 103.68ZM205.871 103.68L207.723 104.435L207.728 104.423L205.871 103.68ZM203.855 142.272L201.886 142.622L201.888 142.63L203.855 142.272ZM208.463 152.64L206.945 153.942L206.97 153.971L206.996 153.999L208.463 152.64ZM229.343 152.64L227.851 151.308L227.848 151.311L229.343 152.64ZM234.095 142.272L236.063 142.63L236.064 142.622L234.095 142.272ZM180.511 126C180.511 109.715 183.64 97.1448 189.679 88.0854L186.351 85.8666C179.719 95.8152 176.511 109.261 176.511 126H180.511ZM189.672 88.097C195.641 79.2761 205.252 74.72 218.975 74.72V70.72C204.283 70.72 193.253 75.6679 186.359 85.855L189.672 88.097ZM218.975 74.72C232.7 74.72 242.254 79.276 248.127 88.0854L251.455 85.8666C244.656 75.668 233.667 70.72 218.975 70.72V74.72ZM248.135 88.097C254.265 97.1542 257.439 109.72 257.439 126H261.439C261.439 109.256 258.182 95.8058 251.448 85.855L248.135 88.097ZM257.439 126C257.439 142.477 254.262 155.137 248.135 164.191L251.448 166.433C258.184 156.479 261.439 142.931 261.439 126H257.439ZM248.127 164.203C242.254 173.012 232.7 177.568 218.975 177.568V181.568C233.667 181.568 244.656 176.62 251.455 166.421L248.127 164.203ZM218.975 177.568C205.252 177.568 195.641 173.012 189.672 164.191L186.359 166.433C193.253 176.62 204.283 181.568 218.975 181.568V177.568ZM189.679 164.203C183.642 155.146 180.511 142.482 180.511 126H176.511C176.511 142.926 179.717 156.47 186.351 166.421L189.679 164.203ZM237.247 126C237.247 116.207 236.188 108.463 233.931 102.925L230.227 104.435C232.195 109.265 233.247 116.401 233.247 126H237.247ZM233.936 102.937C232.738 99.942 230.852 97.5989 228.254 96.0283C225.678 94.4714 222.546 93.76 218.975 93.76V97.76C222.029 97.76 224.393 98.3686 226.185 99.4517C227.954 100.521 229.308 102.138 230.222 104.423L233.936 102.937ZM218.975 93.76C215.405 93.76 212.273 94.4714 209.697 96.0283C207.098 97.5989 205.212 99.942 204.014 102.937L207.728 104.423C208.642 102.138 209.996 100.521 211.766 99.4517C213.558 98.3686 215.921 97.76 218.975 97.76V93.76ZM204.019 102.925C201.763 108.463 200.703 116.207 200.703 126H204.703C204.703 116.401 205.756 109.265 207.723 104.435L204.019 102.925ZM200.703 126C200.703 132.595 201.09 138.145 201.886 142.622L205.824 141.922C205.084 137.759 204.703 132.461 204.703 126H200.703ZM201.888 142.63C202.705 147.129 204.365 150.932 206.945 153.942L209.982 151.338C207.953 148.972 206.541 145.863 205.823 141.914L201.888 142.63ZM206.996 153.999C209.881 157.115 213.989 158.528 218.975 158.528V154.528C214.746 154.528 211.846 153.349 209.931 151.281L206.996 153.999ZM218.975 158.528C223.957 158.528 228.04 157.116 230.838 153.969L227.848 151.311C226.038 153.348 223.21 154.528 218.975 154.528V158.528ZM230.835 153.972C233.524 150.961 235.242 147.146 236.063 142.63L232.128 141.914C231.413 145.846 229.963 148.943 227.851 151.308L230.835 153.972ZM236.064 142.622C236.86 138.145 237.247 132.595 237.247 126H233.247C233.247 132.461 232.866 137.759 232.126 141.922L236.064 142.622ZM277.345 161.28H275.345V163.28H277.345V161.28ZM277.345 141.408L275.706 140.262L275.345 140.778V141.408H277.345ZM322.849 76.32V74.32H321.807L321.21 75.174L322.849 76.32ZM350.353 76.32H352.353V74.32H350.353V76.32ZM350.353 139.968H348.353V141.968H350.353V139.968ZM362.161 139.968H364.161V137.968H362.161V139.968ZM362.161 161.28V163.28H364.161V161.28H362.161ZM350.353 161.28V159.28H348.353V161.28H350.353ZM350.353 180V182H352.353V180H350.353ZM325.729 180H323.729V182H325.729V180ZM325.729 161.28H327.729V159.28H325.729V161.28ZM327.457 103.392H329.457V96.7428L325.789 102.289L327.457 103.392ZM303.265 139.968L301.597 138.865L299.544 141.968H303.265V139.968ZM327.457 139.968V141.968H329.457V139.968H327.457ZM279.345 161.28V141.408H275.345V161.28H279.345ZM278.984 142.554L324.488 77.4659L321.21 75.174L275.706 140.262L278.984 142.554ZM322.849 78.32H350.353V74.32H322.849V78.32ZM348.353 76.32V139.968H352.353V76.32H348.353ZM350.353 141.968H362.161V137.968H350.353V141.968ZM360.161 139.968V161.28H364.161V139.968H360.161ZM362.161 159.28H350.353V163.28H362.161V159.28ZM348.353 161.28V180H352.353V161.28H348.353ZM350.353 178H325.729V182H350.353V178ZM327.729 180V161.28H323.729V180H327.729ZM325.729 159.28H277.345V163.28H325.729V159.28ZM325.789 102.289L301.597 138.865L304.933 141.071L329.125 104.495L325.789 102.289ZM303.265 141.968H327.457V137.968H303.265V141.968ZM329.457 139.968V103.392H325.457V139.968H329.457Z" fill="black"/>
<path d="M414.663 87.2466C410.529 82.9748 404.879 81.7346 396.06 90.1404C387.241 98.5462 382.693 117.7 382.693 117.7C382.693 117.7 401.985 114.118 410.804 105.712C419.624 97.4438 418.659 91.6562 414.663 87.2466Z" fill="#8DC73F"/>
<path d="M494.449 84.3529C492.658 78.7031 488.11 74.9825 476.535 78.5653C464.822 82.1481 452.282 97.1683 452.282 97.1683C452.282 97.1683 471.161 102.68 482.874 99.0975C494.587 95.5147 496.24 90.0026 494.449 84.3529Z" fill="#8DC73F"/>
<path d="M235.799 5.25549C230.563 2.49949 224.775 3.32629 219.125 14.2125C213.613 25.0987 215.68 44.6663 215.68 44.6663C215.68 44.6663 232.768 34.8825 238.28 23.9963C243.929 13.1101 241.173 7.87369 235.799 5.25549Z" fill="#8DC73F"/>
<path d="M473.227 128.311C473.089 123.212 470.058 119.216 459.585 119.492C449.112 119.767 435.332 129.413 435.332 129.413C435.332 129.413 449.801 138.233 460.136 137.957C470.471 137.681 473.365 133.41 473.227 128.311Z" fill="#007D6E"/>
<path d="M438.088 163.45C437.951 158.351 434.919 154.355 424.446 154.631C413.973 154.906 400.193 164.552 400.193 164.552C400.193 164.552 414.662 173.371 424.997 173.096C435.47 172.82 438.226 168.548 438.088 163.45Z" fill="#8DC73F"/>
<path d="M386.138 152.426C386 148.843 383.933 145.949 376.492 146.087C369.051 146.363 359.129 153.253 359.129 153.253C359.129 153.253 369.464 159.592 376.905 159.316C384.346 159.04 386.276 156.009 386.138 152.426Z" fill="#8DC73F"/>
<path d="M362.023 94.4123C357.062 93.1721 352.377 95.1013 350.035 105.161C347.692 115.22 353.342 131.205 353.342 131.205C353.342 131.205 365.606 119.63 367.949 109.432C370.291 99.2353 366.984 95.5147 362.023 94.4123Z" fill="#007D6E"/>
<path d="M359.819 56.1038C355.96 52.7966 351 52.1076 344.11 59.9622C337.22 67.8168 334.877 84.4906 334.877 84.4906C334.877 84.4906 351.137 79.9432 358.027 72.0886C364.917 64.234 363.677 59.411 359.819 56.1038Z" fill="#8DC73F"/>
<path d="M291.607 126.106C288.025 124.177 284.166 124.453 280.17 131.756C276.174 139.059 277.138 152.288 277.138 152.288C277.138 152.288 288.989 146.087 292.985 138.784C296.982 131.48 295.19 128.035 291.607 126.106Z" fill="#007D6E"/>
<path d="M237.59 128.311C235.11 131.48 234.697 135.339 241.173 140.575C247.65 145.812 260.878 147.052 260.878 147.052C260.878 147.052 256.744 134.374 250.268 129.138C243.929 124.039 240.071 125.142 237.59 128.311Z" fill="#007D6E"/>
<path d="M164.28 128.311C161.799 131.48 161.386 135.339 167.863 140.575C174.339 145.812 187.568 147.052 187.568 147.052C187.568 147.052 183.434 134.374 176.957 129.138C170.618 124.039 166.76 125.142 164.28 128.311Z" fill="#007D6E"/>
<path d="M1.67623 106.263C-0.804171 109.432 -1.2176 113.291 5.25899 118.527C11.7356 123.763 24.9644 125.004 24.9644 125.004C24.9644 125.004 20.8304 112.326 14.3538 107.09C7.87716 101.853 4.15663 103.093 1.67623 106.263Z" fill="#007D6E"/>
<path d="M252.058 83.2504C247.235 84.904 244.342 88.7624 247.511 98.5462C250.818 108.33 263.909 118.665 263.909 118.665C263.909 118.665 268.181 102.542 264.874 92.7586C261.567 83.1126 256.881 81.7346 252.058 83.2504Z" fill="#8DC73F"/>
<path d="M169.93 30.3353C167.449 34.7449 167.863 39.7057 176.82 44.8043C185.777 49.9029 202.45 48.9383 202.45 48.9383C202.45 48.9383 194.871 34.0559 185.777 28.9573C176.682 23.8587 172.41 25.9257 169.93 30.3353Z" fill="#007D6E"/>
<path d="M145.126 39.5678C141.268 38.052 137.272 38.8789 134.24 46.7334C131.071 54.588 133.827 67.9546 133.827 67.9546C133.827 67.9546 144.989 60.1 148.158 52.2454C151.327 44.3908 148.985 41.0836 145.126 39.5678Z" fill="#007D6E"/>
<path d="M153.945 89.3135C150.086 87.7977 146.09 88.6244 143.059 96.479C139.889 104.334 142.645 117.7 142.645 117.7C142.645 117.7 153.807 109.846 156.976 101.991C160.008 94.2742 157.803 90.8293 153.945 89.3135Z" fill="#8DC73F"/>
<path d="M92.6236 90.2783C91.3834 94.2745 92.6236 98.1329 100.616 100.613C108.608 103.094 121.837 99.3731 121.837 99.3731C121.837 99.3731 113.156 88.7625 105.026 86.2821C96.8954 83.8017 93.8638 86.2821 92.6236 90.2783Z" fill="#007D6E"/>
<path d="M171.583 73.0533C168 76.6361 167.036 81.4591 174.339 88.7625C181.642 96.0659 197.903 99.6487 197.903 99.6487C197.903 99.6487 194.595 83.2505 187.292 75.9471C180.126 68.6437 175.166 69.6083 171.583 73.0533Z" fill="#8DC73F"/>
<path d="M56.6586 130.791C57.6232 134.512 60.3792 136.992 67.9582 135.201C75.675 133.41 84.3564 124.039 84.3564 124.039C84.3564 124.039 72.3678 119.767 64.7888 121.697C57.072 123.488 55.694 127.071 56.6586 130.791Z" fill="#007D6E"/>
<path d="M50.0449 78.9785C46.4621 82.5613 45.4975 87.3843 52.8009 94.6877C60.1043 101.991 76.3646 105.574 76.3646 105.574C76.3646 105.574 73.0575 89.1757 65.7541 81.8723C58.4507 74.5689 53.6277 75.3957 50.0449 78.9785Z" fill="#8DC73F"/>
<path d="M5.67305 163.588C7.18885 168.411 11.0473 171.442 20.9689 168.548C30.8905 165.517 41.501 152.701 41.501 152.701C41.501 152.701 25.5163 148.016 15.5947 151.048C5.67307 154.079 4.15725 158.765 5.67305 163.588Z" fill="#007D6E"/>
<path d="M48.941 188.392C50.1812 192.388 53.4884 195.006 61.7564 192.526C70.1622 190.045 79.1192 179.159 79.1192 179.159C79.1192 179.159 65.6148 175.301 57.3468 177.781C48.941 180.399 47.7008 184.395 48.941 188.392Z" fill="#8DC73F"/>
<path d="M87.8017 139.473C84.3567 139.886 81.7385 142.229 82.7031 149.394C83.6677 156.422 91.2467 165.241 91.2467 165.241C91.2467 165.241 96.2074 154.768 95.2428 147.741C94.2782 140.575 91.2467 139.059 87.8017 139.473Z" fill="#8DC73F"/>
<path d="M42.4648 108.743C39.0198 109.157 36.4015 111.499 37.3661 118.665C38.3307 125.693 45.9098 134.512 45.9098 134.512C45.9098 134.512 50.8706 124.039 49.906 117.011C48.9414 109.846 45.9098 108.33 42.4648 108.743Z" fill="#8DC73F"/>
<path d="M90.9697 40.8079C87.3869 44.3907 86.4223 49.2137 93.7257 56.5171C101.029 63.8205 117.289 67.4033 117.289 67.4033C117.289 67.4033 113.982 51.0051 106.679 43.7017C99.5132 36.3983 94.5525 37.3629 90.9697 40.8079Z" fill="#8DC73F"/>
<path d="M225.188 168.686C223.672 173.509 225.188 178.332 235.109 181.502C245.169 184.671 261.429 179.986 261.429 179.986C261.429 179.986 250.681 166.895 240.621 163.726C230.7 160.694 226.703 163.726 225.188 168.686Z" fill="#8DC73F"/>
<path d="M122.665 0.0191804C117.566 -0.25642 113.295 2.36178 112.743 12.8346C112.192 23.3074 120.736 37.9142 120.736 37.9142C120.736 37.9142 130.657 24.272 131.209 13.7992C131.76 3.32638 127.764 0.29478 122.665 0.0191804Z" fill="#8DC73F"/>
<path d="M289.403 82.4235C285.958 86.1441 285.269 91.1049 292.986 98.2705C300.702 105.298 317.376 108.054 317.376 108.054C317.376 108.054 313.242 91.6561 305.525 84.6283C297.809 77.6005 292.848 78.5651 289.403 82.4235Z" fill="#8DC73F"/>
<path d="M317.101 26.8903C312.14 27.9927 308.695 31.5755 310.9 41.7727C313.104 51.9699 325.093 63.9585 325.093 63.9585C325.093 63.9585 331.156 48.2493 328.951 38.0521C326.747 27.7171 322.061 25.7879 317.101 26.8903Z" fill="#007D6E"/>
<path d="M239.519 62.9938C236.763 60.5134 233.18 59.9622 227.944 65.612C222.707 71.2618 220.778 83.526 220.778 83.526C220.778 83.526 232.767 80.4944 238.003 74.8446C243.102 69.057 242.275 65.4742 239.519 62.9938Z" fill="#007D6E"/>
<path d="M447.183 98.1328C437.813 103.231 430.51 122.248 409.702 141.815C395.646 154.906 378.008 164.139 360.094 171.029C344.247 177.092 323.715 182.329 306.214 191.01C317.789 177.643 386.138 121.008 380.764 122.386C374.838 123.901 326.195 157.525 318.892 163.037C313.931 148.292 323.577 133.547 327.022 119.354C335.428 84.215 326.608 65.1986 326.471 72.0886C326.195 81.7346 325.782 91.5184 323.715 101.027C321.923 109.432 318.34 117.425 315.171 125.417C309.521 139.473 304.698 155.044 310.486 169.927C298.497 180.124 287.749 191.699 278.378 204.377C278.654 196.66 278.241 189.081 277.414 182.604C275.209 164.001 272.866 145.123 267.217 127.209C259.224 101.991 267.492 164.415 266.941 182.604C266.666 191.01 266.528 199.416 265.563 207.822C264.874 214.712 258.673 235.244 257.02 238.551C247.511 257.292 240.346 277.135 235.247 297.667C232.491 286.643 228.908 275.895 224.223 265.284C215.955 246.406 204.931 228.629 192.116 212.231C190.738 204.79 190.6 197.211 191.151 189.632C192.529 172.545 198.73 156.009 204.242 139.886C209.754 124.039 214.99 108.054 216.093 91.2428C218.022 59.411 206.309 24.272 206.86 40.9458C207.549 59.1354 207.274 78.5652 204.104 96.4792C200.797 114.669 194.045 131.894 188.257 149.394C183.159 164.552 179.025 180.124 178.749 196.246C172.135 188.943 165.245 181.915 158.079 175.163C156.701 173.372 155.185 171.718 153.945 169.927C150.776 165.241 148.02 160.281 145.815 155.044C141.405 144.847 137.822 134.236 136.582 123.35C130.106 66.7144 117.015 27.1658 119.633 45.9066C123.629 74.0178 122.389 102.68 127.488 130.654C128.866 138.508 130.933 146.225 133.689 153.666C118.117 140.851 102.132 128.311 86.2853 115.771C55.5559 91.5184 125.421 160.97 145.539 183.155C132.724 179.986 119.357 179.159 106.68 175.301C67.2689 163.312 17.3854 116.46 29.6496 132.169C46.599 153.804 67.2689 171.58 92.8997 181.502C107.369 187.014 122.665 189.219 137.547 192.939C144.988 194.868 152.291 197.211 159.044 200.932C160.284 201.621 161.524 202.447 162.764 203.55C172.41 215.676 181.367 228.354 189.084 241.72C202.175 264.32 210.857 288.572 215.404 314.341C217.746 327.57 216.782 340.936 209.341 364.362H259.087C254.677 354.165 248.614 321.369 250.681 310.482C254.952 288.572 261.291 266.938 270.524 246.681C272.177 243.236 273.831 239.929 275.485 236.484C275.76 236.208 276.036 235.795 276.311 235.382C296.017 196.384 341.353 194.731 376.079 175.99C428.994 147.19 450.077 96.4792 447.183 98.1328Z" fill="#75512C"/>
<path d="M191.289 238.964C185.777 226.287 180.127 213.747 174.753 201.069C169.655 189.081 165.934 176.954 163.178 164.277C160.698 153.253 158.217 142.091 151.465 132.72C150.914 132.031 149.812 132.583 150.225 133.409C156.288 143.744 158.769 155.044 161.249 166.619C163.592 177.505 166.761 187.703 170.895 198.038C169.379 196.522 167.863 195.144 166.348 193.766C149.398 175.714 142.095 151.323 136.858 127.484C133.827 113.566 130.106 98.9594 130.52 84.6282C130.795 76.7736 132.862 69.3324 134.516 61.6156C135.756 55.9658 137.134 49.4892 135.343 43.8394C135.067 43.0126 133.964 43.1504 133.827 43.9772C133.275 52.1074 132.449 59.6864 130.52 67.6788C128.866 74.5688 127.626 81.4588 127.764 88.4866C128.039 102.818 131.76 117.149 134.929 130.929C139.339 150.634 145.815 171.029 158.08 187.151C144.024 173.647 134.516 156.973 127.075 138.784C117.98 116.322 112.054 92.7584 100.479 71.3994C100.066 70.5726 98.6877 71.2616 99.1011 72.2262C110.538 95.5144 116.74 120.594 126.799 144.433C132.449 157.8 139.752 171.442 149.812 182.328C140.028 176.679 129.417 172.407 118.807 169.651C108.334 166.895 97.5853 165.655 86.8369 165.655C81.3249 165.655 75.6751 165.792 70.0253 165.517C63.4109 161.658 57.0721 156.973 51.5601 151.599C39.1581 139.473 32.2682 124.177 22.3466 110.259C21.7954 109.432 20.6929 110.121 21.1063 110.948C27.3073 125.279 36.5399 139.473 47.2883 150.772C52.3869 156.284 58.1745 160.969 64.5133 164.966C58.1745 164.001 52.1113 162.072 46.8749 157.8C46.3237 157.249 45.3591 158.213 46.0481 158.627C52.5247 164.139 60.5171 166.619 68.7851 167.446C73.8837 170.478 79.1201 173.096 84.4943 175.438C98.6877 181.639 114.121 187.014 129.279 190.045C143.335 192.801 163.867 191.285 173.238 204.101C178.061 215.538 183.159 226.976 188.12 238.413C191.565 246.405 194.872 254.673 198.593 262.666C193.081 254.26 186.88 246.405 179.714 239.378C179.163 238.826 178.336 239.653 178.887 240.204C195.148 260.737 208.514 283.06 215.956 308.278C223.259 332.806 224.912 358.712 221.605 384.068C221.467 384.757 222.845 385.032 222.983 384.205C229.322 348.377 223.397 308.553 206.172 275.343C202.175 262.804 196.388 250.815 191.289 238.964ZM94.8293 176.679C87.9393 174.06 81.1871 171.167 74.7105 167.722C87.2503 168.273 99.3767 167.584 111.779 170.064C130.519 173.923 146.918 182.191 161.938 193.352C156.977 191.285 151.465 190.183 145.953 189.632C128.177 187.427 111.641 183.017 94.8293 176.679Z" fill="#5E4323"/>
<path d="M226.979 309.104C221.192 278.788 212.786 248.61 213.888 217.33C213.888 216.227 212.235 216.227 212.235 217.33C211.132 233.314 212.924 249.161 215.68 264.871C207.825 251.642 198.455 239.102 193.218 224.633C187.431 208.924 187.017 191.699 189.773 175.163C192.529 159.04 198.592 143.607 205.482 129C211.821 115.909 221.329 102.68 222.707 87.7977C222.845 86.8331 221.329 86.6953 221.054 87.5221C218.849 97.3059 214.439 106.401 209.754 115.358C210.168 112.877 210.305 110.535 210.581 108.054C211.27 98.8217 210.994 89.4513 210.443 80.3565C209.203 62.0291 206.034 43.9773 200.522 26.3389C200.246 25.5121 199.006 25.7877 199.144 26.7523C203.415 43.9773 206.447 61.6157 207.687 79.3919C208.652 94.1365 209.341 109.295 205.482 123.626C203.553 127.346 201.624 131.067 199.97 134.787C193.632 148.981 188.533 164.001 186.466 179.435C184.399 195.006 185.364 211.266 191.013 226.011C196.939 241.307 206.998 255.914 216.369 269.28C218.711 281.407 221.467 293.395 223.81 305.522C226.979 321.093 229.046 336.664 230.149 352.511C231.251 368.772 231.664 385.17 233.456 401.43C233.594 402.119 234.696 402.257 234.696 401.43C234.696 385.446 233.456 369.461 232.491 353.614C231.527 338.731 229.873 323.849 226.979 309.104Z" fill="#5E4323"/>
<path d="M444.841 97.5815C436.16 120.87 419.073 140.024 398.678 154.08C377.319 168.824 353.342 177.23 328.951 185.222C317.652 188.943 306.903 193.49 297.671 201.069C295.742 202.585 293.95 204.239 292.297 205.754C305.388 187.151 319.857 169.513 338.184 155.733C349.07 147.603 361.059 141.402 371.945 133.272C381.729 125.968 391.375 117.7 398.678 107.779C399.092 107.228 398.265 106.539 397.714 107.09C387.654 116.874 378.008 126.657 366.433 134.788C355.547 142.367 343.696 148.568 333.361 156.836C327.298 161.659 321.648 166.895 316.274 172.407C317.927 165.517 317.101 158.351 316.825 151.186C316.412 139.886 319.03 129.138 322.337 118.389C327.711 101.027 337.219 79.1163 329.64 61.0645C329.227 59.9621 327.711 60.3755 327.987 61.4779C329.64 72.3641 329.778 82.1479 327.298 93.0341C325.093 102.405 323.026 111.913 319.03 120.594C311.451 137.406 319.03 169.651 300.013 189.356C294.088 195.419 287.887 201.207 282.237 207.546C278.93 211.266 275.761 214.987 272.729 218.983C277.276 207.684 280.997 196.108 284.166 184.258C287.474 171.58 291.194 158.076 291.745 144.985C291.745 144.02 290.367 143.882 290.23 144.709C286.922 157.938 285.269 171.442 281.824 184.671C279.481 193.352 276.863 202.172 274.107 210.715C275.072 200.105 273.418 188.805 273.28 178.883C273.142 169.375 274.107 160.143 276.174 150.91C278.241 141.815 281.962 132.996 283.615 123.764C283.753 123.075 282.651 122.386 282.237 123.212C278.517 130.929 276.45 140.024 274.52 148.292C272.591 156.422 271.351 164.69 271.075 173.096C270.938 181.777 271.764 190.321 272.04 198.864C272.316 207.408 271.213 215.263 269.56 223.531C269.146 224.082 268.733 224.633 268.457 225.046C250.819 250.126 237.728 281.269 236.35 312.136C234.283 322.884 233.594 333.908 233.869 344.932C234.007 356.645 234.558 369.599 238.279 380.76C238.555 381.449 239.795 381.449 239.657 380.623C238.692 368.634 236.35 357.059 236.074 344.932C235.936 338.18 236.212 331.566 236.763 324.951C237.866 336.251 241.311 347.137 248.063 356.37C249.579 365.878 251.508 375.248 253.713 384.619C254.126 386.272 256.606 385.583 256.331 383.93C254.402 375.248 252.61 366.567 251.094 357.748C251.37 357.472 251.37 356.921 251.094 356.508C250.957 356.37 250.957 356.232 250.819 356.094C247.925 338.18 246.685 319.991 248.201 301.801C250.543 274.654 260.051 250.264 276.45 228.491C283.891 218.57 292.021 208.924 301.943 201.483C312.553 193.49 324.955 189.494 337.495 185.36C360.783 177.919 383.658 168.411 403.501 153.942C422.931 139.748 438.64 120.732 446.219 97.7193C446.081 97.1681 445.117 96.8925 444.841 97.5815ZM314.62 154.769C315.034 161.659 315.585 168.548 313.518 175.301C311.864 177.092 310.211 179.021 308.557 180.813C312.553 172.682 314.069 163.726 314.62 154.769ZM273.694 227.113C258.536 247.094 249.165 269.418 245.858 294.36C243.378 312.963 244.204 331.704 246.823 350.169C232.767 324.4 239.244 292.155 249.441 265.835C255.228 250.815 263.083 236.622 272.591 223.531C277.552 216.778 283.064 210.302 288.852 204.239C290.919 202.034 293.123 199.967 295.328 197.9C292.021 202.585 288.989 207.408 286.096 212.231C281.686 216.916 277.552 222.015 273.694 227.113Z" fill="#5E4323"/>
<rect x="188" y="364" width="114" height="65" fill="white"/>
</svg>
