<svg xmlns="http://www.w3.org/2000/svg" width="235" height="408" viewBox="0 0 235 408" fill="none">
<path d="M155 184L233.5 407" stroke="#6BAE41" stroke-width="3" stroke-dasharray="8 8"/>
<rect x="1.5" y="1.5" width="187.786" height="178.375" rx="10.4776" fill="#EEEEEE" stroke="#77C360" stroke-width="3"/>
<rect x="9.41113" y="9.41016" width="171.109" height="162.553" rx="11.9776" fill="white"/>
<mask id="mask0" style="mask-type:alpha" maskUnits="userSpaceOnUse" x="10" y="9" width="172" height="164">
<rect x="10.001" y="9.87305" width="171.109" height="162.553" rx="11.9776" fill="white"/>
</mask>
<g mask="url(#mask0)">
<path d="M211.556 147.351L186.56 231.649C185.45 235.391 182.008 237.96 178.101 237.96L76.6867 238.24C71.3027 238.254 67.0137 233.746 67.2991 228.375C67.5625 223.402 71.676 219.504 76.6607 219.504H115.444L146.502 133.043H200.863C208.318 133.043 213.673 140.21 211.556 147.351Z" fill="#33535F"/>
<path d="M204.099 135.723C203.912 135.662 197.006 155.845 188.676 180.799C180.344 205.762 173.744 226.042 173.931 226.105C174.118 226.167 181.022 205.988 189.354 181.025C197.684 156.071 204.286 135.786 204.099 135.723Z" fill="#17282F"/>
<path d="M176.383 113.71L166.864 161.226L168.563 196.836L104.575 186.204L107.086 155.019L107.134 129.217L91.4437 159.597L79.2269 136.02L101.595 95.539L101.596 95.5431C105.694 91.2948 110.491 88.1514 116.231 86.0773C119.019 85.0697 121.979 84.4679 125.403 84.3212C132.786 86.601 140.169 86.6064 147.553 84.3349C148.453 84.4473 149.701 84.5652 151.273 84.7517L151.561 84.7859C165.139 86.4378 175.504 97.72 176.254 111.367L176.383 113.71Z" fill="#77C360"/>
<path d="M151.273 84.7533C151.273 84.7533 177.565 84.9521 180.821 112.696L181.264 133.039L158.621 132.844L151.273 84.7533Z" fill="#77C360"/>
<path d="M88.4624 120.451C88.4624 120.647 109.151 120.809 134.666 120.809C160.19 120.809 180.874 120.647 180.874 120.451C180.874 120.253 160.19 120.094 134.666 120.094C109.151 120.094 88.4624 120.253 88.4624 120.451Z" fill="#FAFAF9"/>
<path d="M88.4624 124.845C88.4624 125.041 109.151 125.201 134.666 125.201C160.19 125.201 180.874 125.041 180.874 124.845C180.874 124.646 160.19 124.487 134.666 124.487C109.151 124.487 88.4624 124.646 88.4624 124.845Z" fill="#FAFAF9"/>
<path d="M89.9429 116.803C89.9429 116.999 110.3 117.158 135.407 117.158C160.521 117.158 180.874 116.999 180.874 116.803C180.874 116.606 160.521 116.445 135.407 116.445C110.3 116.445 89.9429 116.606 89.9429 116.803Z" fill="#FAFAF9"/>
<path d="M107.474 159.604C107.671 159.599 107.584 148.356 107.277 134.493C106.972 120.626 106.565 109.39 106.367 109.394C106.17 109.399 106.258 120.641 106.564 134.509C106.869 148.371 107.276 159.608 107.474 159.604Z" fill="#17282F"/>
<path d="M116.462 141.37C116.462 141.37 104.026 142.258 101.786 145.543C99.547 148.827 96.1361 158.196 97.4286 158.264C98.7212 158.333 99.6612 157.558 99.6612 157.558L103.069 151.524C103.069 151.524 102.522 157.354 104.56 157.47C106.598 157.586 116.696 159.604 116.696 159.604L116.462 141.37Z" fill="#F8A58D"/>
<path d="M181.255 127.626L181.302 159.659C180.897 167.145 173.878 172.49 166.545 170.892L116.402 160.569L116.509 140.029L159.774 148.325L160.35 126.58L181.255 127.626Z" fill="#77C360"/>
<path d="M152.647 168.328C152.651 168.31 152.425 168.248 151.986 168.142C151.496 168.033 150.852 167.887 150.041 167.705C148.277 167.332 145.794 166.807 142.672 166.146C136.272 164.84 127.263 163 116.571 160.817L116.828 161.129C116.839 154.679 116.851 147.554 116.863 140.029L116.442 140.377C119.266 140.919 122.238 141.489 125.258 142.07C137.931 144.48 149.766 146.731 159.716 148.623L160.091 148.694L160.077 148.32C159.75 138.785 159.478 130.844 159.285 125.218C159.171 122.483 159.08 120.315 159.015 118.768C158.976 118.066 158.944 117.504 158.92 117.072C158.895 116.689 158.873 116.491 158.857 116.491C158.841 116.493 158.831 116.693 158.826 117.077C158.828 117.51 158.828 118.072 158.83 118.778C158.854 120.325 158.889 122.497 158.932 125.235C159.063 130.858 159.248 138.798 159.47 148.329L159.831 148.026C149.887 146.105 138.059 143.818 125.392 141.37C122.372 140.791 119.4 140.222 116.576 139.682L116.154 139.601L116.155 140.029C116.168 147.554 116.179 154.679 116.19 161.129V161.392L116.447 161.442C127.16 163.521 136.185 165.273 142.598 166.518C145.735 167.105 148.229 167.571 150.003 167.903C150.82 168.045 151.471 168.158 151.966 168.243C152.412 168.315 152.644 168.344 152.647 168.328Z" fill="#17282F"/>
<path d="M123.883 84.757C123.86 84.7488 123.789 84.9106 123.678 85.2259C123.552 85.5398 123.423 86.0168 123.289 86.6433C123.038 87.8867 122.9 89.8004 123.524 92.0335C124.126 94.2598 125.586 96.7233 127.876 98.7439C130.126 100.813 133.45 102.222 137.003 102.189C140.553 102.222 143.91 100.774 146.027 98.5273C148.17 96.2859 149.113 93.5442 149.383 91.2741C149.632 88.971 149.222 87.1012 148.752 85.914C148.513 85.3177 148.296 84.8735 148.108 84.5925C147.935 84.3033 147.834 84.1593 147.814 84.1717C147.742 84.21 148.118 84.8105 148.488 86.0045C148.868 87.1889 149.183 89.0053 148.882 91.211C148.56 93.3838 147.601 95.9816 145.553 98.0694C143.539 100.156 140.377 101.505 137.002 101.475C133.623 101.503 130.48 100.194 128.312 98.2504C126.085 96.3326 124.648 94.009 124.008 91.891C123.348 89.7689 123.402 87.9182 123.564 86.6872C123.729 85.4466 123.954 84.7776 123.883 84.757Z" fill="#17282F"/>
<path d="M121.467 162.273C121.569 162.264 121.531 161.056 121.457 159.112C121.382 157.167 121.288 154.484 121.271 151.519C121.254 148.552 121.315 145.868 121.368 143.923C121.419 141.978 121.443 140.77 121.34 140.76C121.247 140.752 121.044 141.948 120.863 143.893C120.682 145.838 120.539 148.539 120.556 151.523C120.574 154.506 120.749 157.204 120.953 159.146C121.157 161.09 121.373 162.282 121.467 162.273Z" fill="#FAFAF9"/>
<path d="M124.051 162.793C124.152 162.787 124.162 161.588 124.141 159.654C124.117 157.447 124.089 154.909 124.059 152.108C124.062 149.305 124.065 146.766 124.067 144.559C124.07 142.626 124.047 141.427 123.945 141.423C123.85 141.417 123.693 142.607 123.561 144.541C123.43 146.474 123.331 149.151 123.345 152.11C123.36 155.07 123.485 157.744 123.636 159.677C123.787 161.609 123.955 162.798 124.051 162.793Z" fill="#FAFAF9"/>
<path d="M169.151 197.619V209.889C169.151 218.24 159.631 227.097 151.272 227.097H144.808C139.714 227.097 131.735 223.392 127.622 220.389L125.152 218.585L95.4393 310.555C95.4393 310.555 61.4396 304.466 61.4396 303.395C61.4396 302.323 84.4642 228.066 95.0936 193.601C99.433 179.528 114.522 171.347 128.463 176.123C128.938 176.286 129.414 176.463 129.89 176.653C145.121 182.74 169.151 197.619 169.151 197.619Z" fill="#17282F"/>
<path d="M148.63 50.6504C149.559 48.4652 151.551 44.7817 152.032 42.4554C152.515 40.1304 152.519 37.6464 151.619 35.4489C150.718 33.2501 148.815 31.3898 146.484 30.9292C145.044 30.6454 143.506 30.8881 142.128 30.3809C140.535 29.7928 139.468 28.3314 138.228 27.1716C136.291 25.3607 133.751 24.2038 131.113 23.931C129.727 23.787 128.278 23.8926 127.034 24.5191C125.791 25.1455 124.792 26.3628 124.691 27.7501C123.066 27.2059 121.418 26.6562 119.708 26.552C117.997 26.4465 116.187 26.8358 114.905 27.9722C113.623 29.1087 113.024 31.0882 113.794 32.6167C112.394 31.8093 110.43 32.4385 109.571 33.8066C108.712 35.1748 108.906 37.0515 109.841 38.3689C110.776 39.6876 112.951 40.8611 114.553 41.0777C116.154 41.297 118.018 41.4533 119.549 40.9379" fill="#17282F"/>
<path d="M131.674 30.25C122.892 30.25 115.732 37.2757 115.563 46.0492C115.409 54.0359 115.355 62.5517 115.748 65.022C117.346 75.0745 125.057 76.3549 125.057 76.3549C125.057 76.3549 125.186 82.6513 125.204 88.631C125.223 94.3296 130.18 99.0481 136.283 99.177C142.326 99.3045 147.239 94.878 147.315 89.2382L147.787 46.5276C147.886 37.5663 140.643 30.25 131.674 30.25H131.674Z" fill="#F8A58D"/>
<path d="M117.69 50.3325C117.666 51.0138 118.222 51.5951 118.934 51.6349C119.644 51.6719 120.239 51.1523 120.264 50.4724C120.288 49.791 119.731 49.2084 119.021 49.17C118.31 49.1316 117.713 49.6526 117.69 50.3325Z" fill="#17282F"/>
<path d="M117.408 49.3909C117.569 49.5581 118.547 48.8357 119.935 48.8385C121.321 48.8234 122.341 49.5362 122.491 49.3662C122.566 49.2922 122.403 48.9879 121.959 48.6657C121.522 48.3436 120.777 48.0324 119.912 48.0352C119.047 48.0393 118.319 48.3587 117.901 48.6836C117.475 49.0098 117.33 49.3141 117.408 49.3909Z" fill="#17282F"/>
<path d="M131.586 50.5831C131.562 51.263 132.118 51.8456 132.83 51.8826C133.539 51.9224 134.135 51.4028 134.159 50.7215C134.184 50.0402 133.626 49.459 132.917 49.4192C132.205 49.3822 131.609 49.9018 131.586 50.5831Z" fill="#17282F"/>
<path d="M131.055 49.6483C131.215 49.8169 132.194 49.0945 133.581 49.0972C134.969 49.0808 135.987 49.795 136.138 49.6264C136.212 49.5496 136.051 49.2466 135.606 48.9245C135.169 48.6023 134.423 48.2898 133.559 48.2939C132.694 48.298 131.966 48.6161 131.548 48.9423C131.123 49.27 130.977 49.5743 131.055 49.6483Z" fill="#17282F"/>
<path d="M126.018 59.9374C126.025 59.8592 125.161 59.7098 123.762 59.5302C123.408 59.4946 123.072 59.4247 123.012 59.182C122.929 58.927 123.078 58.5446 123.249 58.1333C123.583 57.2752 123.932 56.3773 124.298 55.4355C125.754 51.5943 126.808 48.4372 126.653 48.3797C126.497 48.3221 125.191 51.3887 123.735 55.2299C123.384 56.1758 123.049 57.0778 122.731 57.9428C122.597 58.3458 122.366 58.8023 122.547 59.3328C122.642 59.5974 122.903 59.7907 123.129 59.851C123.357 59.9195 123.556 59.9237 123.732 59.9346C125.139 60.01 126.012 60.0169 126.018 59.9374Z" fill="#17282F"/>
<path d="M125.056 76.3574C125.056 76.3574 131.825 76.7919 138.53 72.7657C138.53 72.7657 135.262 79.6708 125.192 78.7303L125.056 76.3574Z" fill="#F68260"/>
<path d="M130.102 60.9046C129.876 60.8923 129.873 62.3975 128.583 63.4667C127.296 64.5387 125.688 64.3701 125.677 64.5799C125.656 64.6745 126.035 64.8732 126.713 64.8911C127.378 64.913 128.349 64.7005 129.139 64.0466C129.926 63.3913 130.264 62.5167 130.315 61.8985C130.373 61.2693 130.205 60.8964 130.102 60.9046Z" fill="#17282F"/>
<path d="M130.698 44.2121C130.835 44.5904 132.221 44.4108 133.85 44.6082C135.483 44.7714 136.796 45.2471 137.013 44.9085C137.109 44.7467 136.88 44.3916 136.349 44.027C135.823 43.6623 134.982 43.3155 134.005 43.2072C133.027 43.1003 132.131 43.2552 131.538 43.4965C130.94 43.7378 130.639 44.0339 130.698 44.2121Z" fill="#17282F"/>
<path d="M117.92 45.3791C118.164 45.6944 119.12 45.3668 120.27 45.3517C121.42 45.2969 122.394 45.5628 122.619 45.2338C122.717 45.0734 122.564 44.7581 122.138 44.4593C121.719 44.1618 121.018 43.9205 120.227 43.9425C119.436 43.9685 118.752 44.2536 118.352 44.5758C117.945 44.8993 117.812 45.2256 117.92 45.3791Z" fill="#17282F"/>
<path d="M146.502 50.0514C146.645 49.9829 152.317 48.0623 152.378 53.9254C152.438 59.7899 146.534 58.6411 146.522 58.4725C146.511 58.3053 146.502 50.0514 146.502 50.0514Z" fill="#F8A58D"/>
<path d="M148.296 56.238C148.321 56.2189 148.4 56.3093 148.573 56.3861C148.742 56.4615 149.033 56.5109 149.337 56.3943C149.955 56.1599 150.467 55.1715 150.484 54.1146C150.494 53.5813 150.376 53.0727 150.183 52.656C150 52.2269 149.719 51.9308 149.406 51.8787C149.094 51.8115 148.875 51.9993 148.806 52.1652C148.728 52.3297 148.767 52.4463 148.736 52.4558C148.72 52.4723 148.609 52.3599 148.653 52.1172C148.677 52.0007 148.744 51.8622 148.88 51.7485C149.02 51.6319 149.227 51.5716 149.445 51.5922C149.898 51.6196 150.309 52.0309 150.522 52.4915C150.76 52.9521 150.904 53.5224 150.893 54.1214C150.868 55.3018 150.274 56.4149 149.428 56.6685C149.017 56.7809 148.671 56.6603 148.491 56.5232C148.309 56.3806 148.276 56.249 148.296 56.238Z" fill="#F68260"/>
<path d="M145.869 58.1443L144.887 57.265C144.53 56.9452 144.508 56.4063 144.839 56.0614L148.521 52.2195C148.851 51.8742 149.408 51.8539 149.765 52.1733L150.747 53.0526C151.104 53.3724 151.125 53.9113 150.794 54.2562L147.113 58.0981C146.782 58.4434 146.225 58.4637 145.869 58.1443Z" fill="#17282F"/>
<path d="M114.69 39.1381C114.69 39.1381 120.772 41.1834 127.945 38.4664C132.651 36.6829 137.985 36.1195 139.045 37.1353C140.106 38.1525 139.883 42.7887 144.185 44.5845C144.185 44.5845 142.991 53.3539 146.535 53.3964C150.079 53.4362 149.263 39.5836 149.263 39.5836L142.078 32.5649L132.873 29.3571L123.111 30.9198L114.69 32.6046V39.1381Z" fill="#17282F"/>
<path d="M131.586 167.083L34.3265 168.018L16.1906 116.801L86.9328 117.278L103.351 163.336L131.586 163.758V167.083Z" fill="#17282F"/>
<path d="M57.8468 146.82C60.0023 146.516 61.5006 144.525 61.1973 142.373C60.8927 140.221 58.9005 138.723 56.7464 139.027C54.5909 139.33 53.0926 141.32 53.3958 143.474C53.7004 145.626 55.694 147.124 57.8468 146.82Z" fill="white"/>
<path d="M235.374 167.394V173.006H212.025V312.715H207.364V173.006H-4.17723V312.715H-8.7462V173.006H-33.999V167.394H235.374Z" fill="#17282F"/>
</g>
</svg>