<svg xmlns="http://www.w3.org/2000/svg" width="200" height="291" viewBox="0 0 200 291" fill="none">
<path d="M111 199V290.5" stroke="#6BAE41" stroke-width="3" stroke-dasharray="8 8"/>
<circle cx="99.5612" cy="99.5612" r="98.0612" fill="#EEEEEE" stroke="#77C360" stroke-width="3"/>
<circle cx="99.561" cy="100.627" r="87.8481" fill="white"/>
<path d="M129.198 36.0703H140.377V24.892H129.198V36.0703Z" fill="#F9B2C4"/>
<path d="M60.1905 92.891C60.266 92.845 60.5145 93.093 60.7465 93.4452C60.9779 93.7975 61.1074 94.1241 61.035 94.175C60.9632 94.2259 60.714 93.978 60.4795 93.6208C60.2445 93.2642 60.115 92.9371 60.1905 92.891Z" fill="#17282F"/>
<path d="M150.502 55.7598C153.085 55.0889 155.004 52.443 154.838 49.7793C154.763 48.5782 154.317 47.409 154.368 46.2066C154.447 44.3408 155.686 42.7629 156.618 41.1444C157.549 39.5259 158.175 37.3906 157.088 35.871C156.384 34.8853 155.14 34.4415 154.287 33.5811C153.451 32.7396 153.055 31.5729 152.607 30.4742C152.16 29.3756 151.58 28.2432 150.549 27.6565C149.519 27.0697 147.938 27.3299 147.521 28.4396" fill="#17282F"/>
<path d="M139.351 25.4835C141.189 24.3168 141.633 21.6095 140.637 19.6725C139.64 17.7367 137.526 16.5607 135.376 16.2133C132.264 15.7113 128.937 16.8142 126.741 19.0753C125.554 20.2967 124.593 21.8912 122.984 22.451C121.57 22.9432 120.005 22.4988 118.521 22.6909C116.529 22.9487 114.824 24.364 113.803 26.0924C112.783 27.8207 112.361 29.8363 112.126 31.8292C111.909 33.6588 111.767 35.6664 110.497 37.0019C109.26 38.3037 107.304 38.5799 105.765 39.506C102.869 41.2485 101.931 45.565 103.841 48.3527C104.451 49.2414 105.325 50.0565 105.396 51.1318C105.46 52.1138 104.826 52.9884 104.529 53.9262C103.764 56.3407 105.74 59.2094 108.269 59.3549C109.546 59.4279 110.914 58.9302 112.058 59.501C113.195 60.0681 113.618 61.4392 114.345 62.4808C115.775 64.5295 118.767 65.3022 121.011 64.2023C121.95 63.7414 122.836 62.9816 123.88 63.0516C124.921 63.1215 125.741 64.0115 126.766 64.2097C128.108 64.4687 129.382 63.4806 130.179 62.3715C130.976 61.2618 131.533 59.9552 132.553 59.0474C133.89 57.8579 135.768 57.5646 137.46 56.9815C141.194 55.6963 144.314 52.7331 145.79 49.0708C147.266 45.4085 147.074 41.1098 145.275 37.5942" fill="#17282F"/>
<path d="M143.391 27.8985C144.909 28.0624 146.048 29.3599 146.015 30.8857L144.261 70.5785C144.188 75.2658 137.335 77.9 132.316 77.7834C127.247 77.6662 127.084 75.1798 127.021 70.7197C126.914 63.2693 126.924 60.4718 126.921 60.5141C126.921 60.5141 120.519 59.4364 119.211 51.077C118.559 46.92 118.783 40.1067 119.147 34.5381C119.473 29.5262 122.808 23.3825 127.803 23.922L143.391 27.8985Z" fill="#F8A58D"/>
<path d="M120.984 39.9481C120.963 40.514 121.424 40.9983 122.015 41.0314C122.604 41.0646 123.1 40.6337 123.122 40.0678C123.143 39.5019 122.682 39.0164 122.092 38.9833C121.502 38.9508 121.005 39.3822 120.984 39.9481Z" fill="#17282F"/>
<path d="M120.618 38.0862C120.75 38.2262 121.564 37.6271 122.716 37.6327C123.868 37.6216 124.713 38.2169 124.839 38.0758C124.9 38.0138 124.765 37.7609 124.398 37.4921C124.036 37.2239 123.417 36.9624 122.699 36.9643C121.98 36.9661 121.376 37.2294 121.028 37.4995C120.672 37.7708 120.552 38.023 120.618 38.0862Z" fill="#17282F"/>
<path d="M132.481 39.9481C132.46 40.514 132.921 40.9983 133.512 41.0314C134.102 41.0646 134.597 40.6337 134.619 40.0678C134.64 39.5019 134.178 39.0164 133.589 38.9833C132.998 38.9508 132.503 39.3822 132.481 39.9481Z" fill="#17282F"/>
<path d="M131.952 38.3265C132.085 38.4664 132.899 37.8674 134.052 37.8735C135.204 37.8625 136.049 38.4572 136.174 38.3166C136.235 38.254 136.102 38.0018 135.733 37.7323C135.371 37.4641 134.753 37.2033 134.035 37.2045C133.316 37.207 132.712 37.4703 132.363 37.7397C132.009 38.0116 131.888 38.2639 131.952 38.3265Z" fill="#17282F"/>
<path d="M127.746 46.8703C127.752 46.804 127.035 46.6788 125.874 46.5278C125.579 46.4965 125.3 46.4376 125.251 46.2369C125.183 46.0233 125.307 45.7066 125.45 45.3642C125.729 44.6522 126.02 43.9059 126.326 43.1239C127.542 39.9343 128.424 37.3104 128.295 37.2632C128.166 37.2147 127.075 39.7618 125.859 42.9515C125.566 43.7383 125.286 44.4883 125.019 45.2052C124.908 45.5397 124.715 45.919 124.864 46.3609C124.943 46.5812 125.159 46.7414 125.348 46.7924C125.536 46.8507 125.702 46.8544 125.848 46.8629C127.016 46.9292 127.742 46.9354 127.746 46.8703Z" fill="#17282F"/>
<path d="M126.922 60.515C126.922 60.515 132.543 60.89 138.119 57.5543C138.119 57.5543 135.283 63.4463 126.922 62.646V60.515Z" fill="#F68260"/>
<path d="M128.232 49.6496C128.648 49.1027 129.375 48.8026 130.096 48.8824C130.596 48.937 131.102 49.1801 131.405 49.5882C131.708 49.9964 131.77 50.5745 131.493 50.963C131.181 51.4 130.531 51.4995 129.981 51.3417C129.43 51.184 128.958 50.82 128.508 50.4591C128.384 50.3585 128.257 50.2541 128.18 50.1167C128.103 49.9798 128.087 49.8006 128.182 49.6876" fill="#FF9172"/>
<path d="M131.141 47.6753C130.953 47.6642 130.948 48.9163 129.874 49.802C128.803 50.6907 127.469 50.5477 127.459 50.7226C127.441 50.8012 127.755 50.9663 128.318 50.9828C128.871 51.0031 129.677 50.8275 130.335 50.285C130.99 49.7424 131.272 49.0157 131.316 48.502C131.365 47.9791 131.226 47.6685 131.141 47.6753Z" fill="#17282F"/>
<path d="M131.438 36.3076C131.551 36.6218 132.703 36.4757 134.055 36.6415C135.412 36.7808 136.501 37.1791 136.682 36.898C136.762 36.7636 136.573 36.4684 136.132 36.1639C135.696 35.8595 134.998 35.5704 134.187 35.4778C133.375 35.3875 132.631 35.5146 132.137 35.7141C131.64 35.9129 131.389 36.159 131.438 36.3076Z" fill="#17282F"/>
<path d="M121.047 34.7488C121.25 35.0115 122.044 34.7414 122.999 34.7304C123.954 34.6862 124.763 34.9108 124.95 34.6371C125.032 34.5039 124.906 34.2412 124.553 33.9927C124.205 33.7447 123.622 33.5415 122.966 33.56C122.309 33.5796 121.741 33.8153 121.408 34.0829C121.069 34.3517 120.958 34.6211 121.047 34.7488Z" fill="#17282F"/>
<path d="M137.906 25.177C139.821 23.8887 142.3 23.2965 144.529 23.9366C146.759 24.5768 148.606 26.5856 148.682 28.8571C148.73 30.3332 148.093 31.9025 148.748 33.2332C149.371 34.5 150.908 35.0155 151.997 35.9337C153.708 37.3754 154.213 40.0133 153.152 41.9632C152.239 43.6382 150.321 44.8657 150.16 46.7567C150.008 48.5366 151.509 50.0378 151.873 51.787C152.276 53.7173 151.207 55.7132 149.676 56.9941C148.146 58.2744 146.211 58.979 144.321 59.6603C142.845 60.1906 141.266 60.7295 139.734 60.3821C137.91 59.969 136.548 58.2775 136.297 56.4632C136.047 54.649 136.794 52.7874 138.037 51.4188C139.11 50.2367 140.616 49.232 140.873 47.6718C141.275 45.2419 138.38 43.2454 138.558 40.7897C138.65 39.5236 139.543 38.4753 140.286 37.4343C141.03 36.3934 141.679 35.0836 141.222 33.8954C140.629 32.35 138.598 31.9473 137.372 30.8143C136.346 29.8667 135.933 28.3335 136.346 27.0146C136.761 25.695 137.983 24.6528 139.376 24.4319" fill="#17282F"/>
<path d="M138.803 23.2984C138.81 24.9715 138.039 26.6311 136.756 27.7046C135.474 28.7781 133.704 29.2451 132.058 28.9438C130.781 28.7105 129.383 28.0655 128.277 28.7455C127.115 29.4612 127.067 31.2128 126.037 32.1077C124.563 33.3868 122.221 32.1869 120.351 32.7411C118.906 33.1701 118.004 34.5504 117.045 35.7117C116.086 36.8729 114.648 37.977 113.204 37.548C113.296 36.2499 113.391 34.9383 113.777 33.6949C114.164 32.452 114.875 31.2662 115.965 30.5555C116.563 30.1664 117.257 29.9289 117.812 29.4808C119.011 28.5135 119.288 26.8288 120.029 25.4773C120.983 23.7361 122.827 22.5128 124.802 22.3109C126.447 22.1427 128.14 22.6362 129.742 22.2323C130.926 21.9334 131.961 21.165 133.162 20.9367C135.499 20.4924 137.671 22.1697 139.365 23.8392" fill="#17282F"/>
<path d="M154.068 43.2733C154.027 43.2604 154.316 42.9554 154.253 42.3091C154.201 41.6781 153.674 40.779 152.571 40.3868C152.037 40.1714 151.41 40.0462 150.734 39.8927C150.061 39.7313 149.31 39.5324 148.653 39.0353C147.976 38.548 147.612 37.6623 147.57 36.7994C147.516 35.9272 147.654 35.0514 147.7 34.1688C147.717 33.7275 147.706 33.2948 147.634 32.883C147.548 32.4742 147.379 32.1023 147.141 31.7856C146.639 31.1596 145.851 30.8815 145.13 30.6317C144.395 30.3955 143.676 30.1254 143.08 29.7479C142.478 29.3821 141.976 28.9519 141.57 28.5143C140.752 27.6391 140.321 26.7528 140.094 26.1335C139.981 25.8217 139.912 25.5738 139.879 25.4019C139.845 25.2319 139.832 25.1411 139.843 25.1386C139.872 25.1313 139.954 25.4879 140.21 26.0875C140.468 26.6816 140.919 27.5292 141.734 28.3584C142.536 29.2041 143.723 29.9407 145.223 30.3525C145.949 30.5986 146.799 30.8748 147.384 31.5886C147.659 31.9464 147.853 32.3717 147.946 32.821C148.027 33.2709 148.037 33.7281 148.018 34.1835C147.971 35.0907 147.835 35.9573 147.883 36.7785C147.925 37.5942 148.235 38.3571 148.834 38.8027C149.42 39.2587 150.137 39.4668 150.795 39.6349C151.462 39.7982 152.103 39.9387 152.657 40.1781C153.21 40.4095 153.676 40.7483 153.952 41.1509C154.235 41.5456 154.357 41.9598 154.377 42.2986C154.394 42.6405 154.309 42.9013 154.225 43.0566C154.144 43.2137 154.072 43.277 154.068 43.2733Z" fill="#33535F"/>
<path d="M104.849 48.4856C104.847 48.4906 104.802 48.4691 104.713 48.4212C104.625 48.3733 104.506 48.2739 104.399 48.1051C104.19 47.7626 104.178 47.0998 104.57 46.4547C104.755 46.1325 105.054 45.8078 105.464 45.5991C105.863 45.3819 106.325 45.2168 106.808 45.032C107.286 44.8442 107.803 44.6282 108.213 44.2354C108.626 43.8444 108.884 43.2767 109.016 42.65C109.157 42.0228 109.198 41.3378 109.313 40.6246C109.419 39.9158 109.645 39.1473 110.141 38.5176C111.115 37.2355 112.709 36.5542 113.899 35.3519C114.484 34.7461 114.925 33.9832 115.204 33.1381C115.495 32.296 115.655 31.3895 115.795 30.4621C116.054 28.6269 116.314 26.5696 117.551 24.8898C118.153 24.0569 119.073 23.4389 120.072 23.2609C121.069 23.0639 122.053 23.2099 122.982 23.3333C123.913 23.4628 124.828 23.6015 125.701 23.4923C126.576 23.3941 127.353 22.9706 127.922 22.3452C129.063 21.1152 129.718 19.4587 131.12 18.6111C132.476 17.7727 134.062 17.6665 135.342 18.0292C136.643 18.3926 137.6 19.277 138.121 20.1896C138.659 21.1054 138.829 22.0309 138.842 22.7662C138.858 23.5088 138.71 24.0766 138.575 24.4381C138.442 24.8026 138.329 24.9745 138.329 24.9745C138.313 24.9671 138.402 24.7836 138.514 24.4178C138.627 24.0545 138.752 23.4941 138.718 22.7699C138.687 22.0524 138.502 21.1569 137.967 20.2817C137.448 19.4077 136.527 18.581 135.281 18.2471C134.054 17.9126 132.537 18.0323 131.262 18.8351C130.628 19.2365 130.112 19.8312 129.649 20.499C129.177 21.16 128.745 21.8971 128.137 22.5477C127.832 22.8705 127.478 23.167 127.069 23.3842C126.656 23.588 126.207 23.747 125.74 23.7948C124.808 23.9139 123.868 23.7697 122.939 23.6439C122.012 23.5211 121.057 23.3873 120.134 23.5727C119.211 23.7402 118.376 24.2981 117.806 25.0819C117.226 25.8607 116.861 26.7783 116.611 27.7014C116.36 28.6276 116.251 29.5758 116.105 30.5093C115.961 31.4416 115.797 32.3653 115.493 33.2381C115.201 34.1115 114.733 34.921 114.11 35.5575C112.849 36.8065 111.271 37.473 110.352 38.6784C109.883 39.2652 109.669 39.9692 109.556 40.6646C109.438 41.3612 109.39 42.0504 109.237 42.7004C109.094 43.3479 108.808 43.9641 108.353 44.3827C107.899 44.8043 107.356 45.0167 106.871 45.199C106.38 45.3782 105.925 45.5316 105.536 45.7329C105.143 45.9244 104.865 46.2154 104.676 46.5198C104.287 47.1256 104.279 47.7473 104.456 48.0744C104.643 48.4016 104.868 48.4642 104.849 48.4856Z" fill="#33535F"/>
<path d="M84.3398 106.018L99.1633 104.66C99.1633 104.66 108.286 80.6337 119.531 74.8067L126.815 87.5311L111.222 116.828H80.7764L84.3398 106.018Z" fill="#7FC76A"/>
<path d="M104.702 116.828H86.2408C84.5738 116.365 82.8995 115.899 81.2344 115.435L84.3381 106.018L99.1616 104.66C99.1616 104.66 108.284 80.6337 119.529 74.8067L113.312 82.7112L110.077 87.3071C108.2 89.9701 106.777 92.9481 106.068 96.1286C105.284 99.6479 105.176 103.082 105.176 106.82L104.702 116.828Z" fill="#417033"/>
<path d="M90.1992 112.801C90.1237 112.755 90.6829 111.68 91.4482 110.4C92.2142 109.119 92.8967 108.118 92.9722 108.163C93.0483 108.209 92.4891 109.283 91.7226 110.564C90.9572 111.844 90.2747 112.846 90.1992 112.801Z" fill="#FAFAF9"/>
<path d="M100.698 112.513C100.629 112.569 99.8187 111.674 98.887 110.515C97.9559 109.357 97.2562 108.373 97.325 108.317C97.3943 108.262 98.2045 109.156 99.1362 110.315C100.067 111.474 100.767 112.458 100.698 112.513Z" fill="#FAFAF9"/>
<path d="M102.524 107.002C102.437 107.002 102.364 106.132 102.364 105.059C102.364 103.985 102.437 103.115 102.524 103.115C102.613 103.115 102.685 103.985 102.685 105.059C102.685 106.132 102.613 107.002 102.524 107.002Z" fill="#FAFAF9"/>
<path d="M97.3059 115.595C97.2574 115.669 96.6234 115.34 95.8887 114.86C95.1541 114.379 94.598 113.93 94.6465 113.856C94.6944 113.782 95.329 114.111 96.0637 114.592C96.7983 115.072 97.3544 115.521 97.3059 115.595Z" fill="#FAFAF9"/>
<path d="M105.817 93.5111C105.897 93.5473 105.439 94.7453 104.793 96.1871C104.147 97.63 103.558 98.7697 103.477 98.7335C103.397 98.6973 103.855 97.4993 104.501 96.0569C105.147 94.6146 105.736 93.4749 105.817 93.5111Z" fill="#FAFAF9"/>
<path d="M111.825 83.7723C111.878 83.8422 111.348 84.3338 110.642 84.8696C109.934 85.4055 109.318 85.7823 109.264 85.7123C109.212 85.6418 109.741 85.1508 110.448 84.6149C111.155 84.0791 111.772 83.7023 111.825 83.7723Z" fill="#FAFAF9"/>
<path d="M133.997 114.926L141.642 84.0494C142.973 78.6735 148.25 75.2549 153.7 76.2369C159.311 77.2483 163.09 82.5506 162.216 88.1836L157.536 118.36C156.386 124.684 151.358 129.585 145.009 130.576L138.932 131.523L133.997 114.926Z" fill="#7FC76A"/>
<path d="M158.09 74.2447C158.051 74.3184 157.234 73.3192 155.363 72.8742C154.443 72.6612 153.288 72.6072 152.072 72.8969C150.857 73.1823 149.608 73.8378 148.495 74.7621C146.255 76.6402 145.036 79.0805 144.207 80.7898C143.798 81.6589 143.486 82.3727 143.264 82.8625C143.042 83.3535 142.911 83.6217 142.891 83.6131C142.87 83.6045 142.962 83.3209 143.149 82.8152C143.336 82.3101 143.616 81.5822 144.002 80.6965C144.392 79.8139 144.888 78.7699 145.573 77.683C146.254 76.596 147.147 75.4747 148.291 74.5166C149.437 73.5647 150.734 72.8908 152.005 72.6103C153.276 72.3249 154.473 72.4059 155.417 72.6551C156.365 72.911 157.062 73.3179 157.489 73.6549C157.701 73.8267 157.858 73.9661 157.953 74.0753C158.05 74.179 158.098 74.2373 158.09 74.2447Z" fill="#17282F"/>
<path d="M114.781 81.1948C114.789 81.2022 114.715 81.301 114.567 81.4821C114.395 81.6871 114.179 81.9467 113.913 82.2646C113.348 82.9459 112.539 83.9414 111.619 85.2272C109.792 87.7829 107.489 91.6017 106.4 96.3074C105.333 101.015 105.281 105.424 105.1 108.582C105.024 110.165 104.95 111.448 104.881 112.332C104.845 112.745 104.815 113.082 104.791 113.349C104.767 113.582 104.749 113.704 104.738 113.703C104.727 113.702 104.723 113.578 104.727 113.346C104.735 113.077 104.745 112.74 104.757 112.325C104.786 111.395 104.826 110.124 104.874 108.573C104.998 105.416 105.013 100.99 106.089 96.2356C107.193 91.4673 109.553 87.6289 111.437 85.094C112.386 83.818 113.223 82.8409 113.819 82.183C114.115 81.8516 114.358 81.6073 114.519 81.4385C114.683 81.2716 114.773 81.1875 114.781 81.1948Z" fill="#17282F"/>
<path d="M163.77 81.128C162.932 75.6072 159.882 74.2821 156.724 72.5624C155.691 72.0008 150.714 70.7229 146.767 69.7612C146.39 67.3688 145.714 63.0897 145.567 62.1856C145.358 60.9163 125.462 64.0901 125.21 64.5657C125.043 64.8818 124.585 69.8397 124.295 73.1436L119.532 74.8087L113.314 82.7133L110.079 87.3091C108.203 89.9722 106.78 92.9501 106.071 96.1306C105.287 99.6499 105.179 103.084 105.179 106.822L104.218 127.091L145.846 138.863L149.069 118.33L159.809 103.711C160.726 97.7982 164.802 87.9173 163.77 81.128Z" fill="#7FC76A"/>
<path d="M128.24 73.7793C128.197 73.7836 128.094 73.2459 127.963 72.3732C127.833 71.4992 127.676 70.2895 127.52 68.9515C127.447 68.2898 127.378 67.6589 127.314 67.0635C127.261 66.4848 127.187 65.9619 127.204 65.5028C127.216 65.0474 127.343 64.6748 127.5 64.4661C127.661 64.2575 127.799 64.2004 127.807 64.2145C127.825 64.2354 127.718 64.3256 127.606 64.5318C127.496 64.7399 127.415 65.0756 127.429 65.5046C127.441 65.9306 127.536 66.4492 127.606 67.0304C127.679 67.6239 127.756 68.2542 127.838 68.9153C127.992 70.2526 128.115 71.4666 128.188 72.3468C128.261 73.2269 128.284 73.7737 128.24 73.7793Z" fill="#17282F"/>
<path d="M133.55 72.5213C133.511 72.5323 133.322 72.0469 133.107 71.2342C132.891 70.4222 132.664 69.2782 132.545 67.9991C132.428 66.7195 132.442 65.5527 132.505 64.7149C132.567 63.8765 132.664 63.3647 132.705 63.369C132.803 63.3769 132.623 65.441 132.864 67.9697C133.09 70.499 133.645 72.4955 133.55 72.5213Z" fill="#17282F"/>
<path d="M143.429 71.0878C143.324 71.0767 143.765 69.0145 143.316 66.5098C142.896 63.9995 141.786 62.2061 141.882 62.1601C141.913 62.1405 142.23 62.5584 142.612 63.3158C142.992 64.0695 143.407 65.1773 143.631 66.4552C143.85 67.733 143.832 68.9163 143.727 69.7547C143.624 70.595 143.465 71.0958 143.429 71.0878Z" fill="#17282F"/>
<path d="M115.16 89.1429C115.087 89.0963 115.776 87.9117 116.79 86.5633C117.801 85.213 118.745 84.2194 118.81 84.2758C118.879 84.3347 118.05 85.4137 117.046 86.7548C116.04 88.0946 115.235 89.1926 115.16 89.1429Z" fill="#FAFAF9"/>
<path d="M124.535 81.5152C124.466 81.5686 123.724 80.7167 122.88 79.6126C122.036 78.5084 121.409 77.5694 121.479 77.516C121.549 77.4626 122.29 78.3138 123.134 79.4186C123.978 80.5228 124.605 81.4612 124.535 81.5152Z" fill="#FAFAF9"/>
<path d="M134.338 76.7236C134.396 76.7941 133.476 77.6344 132.38 78.7048C131.282 79.7727 130.417 80.67 130.349 80.6105C130.284 80.5559 131.046 79.5554 132.157 78.4758C133.265 77.3938 134.285 76.6567 134.338 76.7236Z" fill="#FAFAF9"/>
<path d="M131.585 70.8813C131.525 70.9463 130.84 70.4228 130.054 69.7114C129.268 68.9989 128.679 68.3692 128.739 68.3041C128.798 68.2384 129.483 68.7626 130.269 69.4739C131.054 70.1859 131.643 70.8156 131.585 70.8813Z" fill="#FAFAF9"/>
<path d="M140.171 66.303C140.189 66.3895 139.264 66.6608 138.105 66.9088C136.945 67.1573 135.99 67.2881 135.972 67.2021C135.954 67.1156 136.878 66.8449 138.038 66.5964C139.197 66.3478 140.152 66.2164 140.171 66.303Z" fill="#FAFAF9"/>
<path d="M141.89 79.8965C141.801 79.9008 141.681 78.9433 141.621 77.7569C141.561 76.5705 141.585 75.6051 141.672 75.6008C141.761 75.5965 141.881 76.5546 141.941 77.741C142 78.9267 141.977 79.8922 141.89 79.8965Z" fill="#FAFAF9"/>
<path d="M138.756 86.4369C138.673 86.467 138.192 85.3555 137.681 83.9543C137.17 82.553 136.824 81.3924 136.907 81.3624C136.989 81.3317 137.471 82.4432 137.982 83.845C138.493 85.2456 138.839 86.4062 138.756 86.4369Z" fill="#FAFAF9"/>
<path d="M130.254 91.0424C130.171 91.0737 129.643 89.9106 129.073 88.4437C128.502 86.9768 128.108 85.7616 128.189 85.7297C128.272 85.6978 128.801 86.8608 129.37 88.3283C129.94 89.7946 130.336 91.0098 130.254 91.0424Z" fill="#FAFAF9"/>
<path d="M122.25 96.2654C122.163 96.2838 121.855 95.1324 121.561 93.6938C121.265 92.2557 121.097 91.0755 121.184 91.0577C121.27 91.0405 121.579 92.1919 121.874 93.6299C122.168 95.068 122.336 96.2482 122.25 96.2654Z" fill="#FAFAF9"/>
<path d="M112.737 96.4735C112.657 96.5128 112.081 95.4933 111.451 94.1989C110.82 92.9045 110.373 91.8231 110.453 91.785C110.532 91.7457 111.107 92.764 111.738 94.0596C112.369 95.354 112.816 96.4355 112.737 96.4735Z" fill="#FAFAF9"/>
<path d="M112.534 102.573C112.573 102.652 111.457 103.283 110.041 103.983C108.626 104.681 107.447 105.184 107.407 105.105C107.368 105.026 108.484 104.394 109.9 103.695C111.315 102.996 112.495 102.494 112.534 102.573Z" fill="#FAFAF9"/>
<path d="M112.651 112.222C112.571 112.253 112.125 111.271 111.785 109.988C111.441 108.706 111.339 107.632 111.424 107.619C111.514 107.604 111.754 108.641 112.094 109.906C112.43 111.171 112.736 112.191 112.651 112.222Z" fill="#FAFAF9"/>
<path d="M110.683 118.996C110.623 119.062 109.726 118.338 108.679 117.379C107.632 116.421 106.832 115.591 106.891 115.526C106.951 115.461 107.848 116.185 108.895 117.144C109.942 118.102 110.743 118.932 110.683 118.996Z" fill="#FAFAF9"/>
<path d="M123.215 114.371C123.238 114.463 121.829 114.865 120.184 115.591C118.535 116.309 117.284 117.071 117.233 116.992C117.184 116.925 118.377 116.029 120.056 115.298C121.731 114.559 123.199 114.291 123.215 114.371Z" fill="#FAFAF9"/>
<path d="M119.549 111.011C119.466 111.04 119.062 110.099 118.649 108.91C118.234 107.72 117.965 106.732 118.048 106.703C118.132 106.674 118.536 107.615 118.95 108.805C119.365 109.994 119.633 110.982 119.549 111.011Z" fill="#FAFAF9"/>
<path d="M126.984 102.712C127.059 102.759 126.306 104.087 125.303 105.678C124.3 107.269 123.428 108.52 123.353 108.473C123.278 108.426 124.03 107.099 125.033 105.508C126.036 103.917 126.909 102.665 126.984 102.712Z" fill="#FAFAF9"/>
<path d="M134.972 103.508C134.905 103.56 133.914 102.362 132.932 100.721C131.947 99.0817 131.357 97.6443 131.433 97.61C131.516 97.5701 132.23 98.9338 133.207 100.557C134.178 102.182 135.046 103.454 134.972 103.508Z" fill="#FAFAF9"/>
<path d="M139.753 95.6275C139.771 95.7109 138.732 95.9798 137.417 96.043C136.102 96.1099 135.042 95.9454 135.051 95.8613C135.058 95.7699 136.111 95.7901 137.401 95.7232C138.692 95.6618 139.737 95.5378 139.753 95.6275Z" fill="#FAFAF9"/>
<path d="M151.114 86.6462C151.152 86.7266 149.805 87.4478 148.106 88.2567C146.406 89.0669 144.998 89.6585 144.96 89.5787C144.922 89.4996 146.269 88.7784 147.968 87.9688C149.667 87.1587 151.076 86.567 151.114 86.6462Z" fill="#FAFAF9"/>
<path d="M151.871 80.9384C151.792 80.8985 152.273 79.7662 152.947 78.4085C153.62 77.0497 154.23 75.9811 154.309 76.0198C154.388 76.0585 153.907 77.1915 153.233 78.5503C152.56 79.9079 151.949 80.9771 151.871 80.9384Z" fill="#FAFAF9"/>
<path d="M159.089 85.4177C159.001 85.4386 158.642 84.1712 158.158 82.6257C157.675 81.0785 157.247 79.8338 157.332 79.7994C157.411 79.7669 157.976 80.9692 158.463 82.53C158.952 84.0895 159.173 85.3999 159.089 85.4177Z" fill="#FAFAF9"/>
<path d="M160.22 91.3563C160.25 91.4361 159.065 91.9486 157.526 92.3414C155.988 92.7373 154.704 92.8576 154.692 92.7735C154.678 92.6826 155.927 92.423 157.447 92.0314C158.968 91.6435 160.188 91.2698 160.22 91.3563Z" fill="#FAFAF9"/>
<path d="M147.851 98.617C147.758 98.5985 148.021 97.1053 148.095 95.2456C148.179 93.3859 148.044 91.8755 148.137 91.8644C148.218 91.8509 148.499 93.3675 148.415 95.2591C148.339 97.1507 147.93 98.6384 147.851 98.617Z" fill="#FAFAF9"/>
<path d="M145.385 106.081C145.329 106.143 144.25 105.227 143.14 103.886C142.026 102.548 141.324 101.318 141.396 101.273C141.474 101.223 142.286 102.36 143.385 103.681C144.481 105.006 145.449 106.014 145.385 106.081Z" fill="#FAFAF9"/>
<path d="M157.789 104.51C157.823 104.591 156.677 105.147 155.229 105.751C153.782 106.356 152.581 106.781 152.547 106.699C152.512 106.617 153.659 106.061 155.107 105.457C156.553 104.853 157.755 104.428 157.789 104.51Z" fill="#FAFAF9"/>
<path d="M153.342 118.562C153.254 118.562 153.198 117.05 153.217 115.186C153.235 113.32 153.322 111.811 153.41 111.811C153.498 111.812 153.555 113.324 153.536 115.189C153.517 117.053 153.43 118.564 153.342 118.562Z" fill="#FAFAF9"/>
<path d="M143.82 117.756C143.737 117.745 143.89 116.172 144.366 114.287C144.836 112.399 145.444 110.941 145.522 110.97C145.609 111.002 145.142 112.495 144.676 114.365C144.205 116.233 143.912 117.77 143.82 117.756Z" fill="#FAFAF9"/>
<path d="M144.261 121.443C144.267 121.536 142.736 121.682 140.872 121.993C139.005 122.298 137.509 122.652 137.484 122.562C137.46 122.482 138.932 121.986 140.819 121.678C142.704 121.364 144.258 121.36 144.261 121.443Z" fill="#FAFAF9"/>
<path d="M133.726 119.077C133.662 119.016 134.478 118.07 135.546 116.963C136.615 115.857 137.533 115.01 137.597 115.071C137.659 115.133 136.845 116.079 135.776 117.185C134.708 118.291 133.789 119.139 133.726 119.077Z" fill="#FAFAF9"/>
<path d="M126.905 125.715C126.814 125.732 126.542 124.628 126.076 123.314C125.615 121.996 125.136 120.965 125.218 120.921C125.291 120.88 125.907 121.863 126.377 123.208C126.852 124.549 126.987 125.701 126.905 125.715Z" fill="#FAFAF9"/>
<path d="M137.918 129.506C137.882 129.587 136.503 129.053 134.839 128.314C133.174 127.575 131.853 126.911 131.889 126.83C131.925 126.749 133.303 127.283 134.968 128.021C136.633 128.761 137.953 129.425 137.918 129.506Z" fill="#FAFAF9"/>
<path d="M118.722 128.392C118.638 128.364 118.896 127.358 119.299 126.147C119.701 124.934 120.096 123.974 120.18 124.002C120.263 124.03 120.005 125.035 119.602 126.247C119.199 127.459 118.805 128.42 118.722 128.392Z" fill="#FAFAF9"/>
<path d="M131.367 130.536C131.349 130.63 129.603 130.347 127.434 130.236C125.263 130.116 123.498 130.212 123.49 130.117C123.48 130.036 125.254 129.796 127.45 129.917C129.647 130.03 131.384 130.456 131.367 130.536Z" fill="#FAFAF9"/>
<path d="M133.998 112.437C133.988 112.437 133.983 112.355 133.982 112.195C133.978 112.037 133.994 111.797 134.081 111.499C134.161 111.204 134.353 110.83 134.748 110.585C135.137 110.333 135.674 110.247 136.246 110.338L136.12 110.411C136.793 108.058 137.866 104.619 138.94 100.765C139.947 97.1581 140.624 93.8346 141.101 91.4262C141.331 90.2607 141.52 89.2983 141.663 88.5722C141.798 87.8989 141.884 87.5276 141.905 87.5319C141.927 87.5356 141.883 87.913 141.785 88.5931C141.688 89.2744 141.532 90.2558 141.323 91.4673C140.903 93.888 140.258 97.2311 139.249 100.85C138.172 104.714 137.06 108.139 136.325 110.473L136.297 110.565L136.2 110.547C135.692 110.453 135.183 110.516 134.836 110.729C134.476 110.933 134.283 111.261 134.191 111.536C134.004 112.096 134.039 112.442 133.998 112.437Z" fill="#17282F"/>
<path d="M147.758 120.972C147.706 120.997 147.329 120.166 146.548 118.926C145.772 117.688 144.539 116.068 142.891 114.564C141.235 113.065 139.506 111.993 138.198 111.338C136.891 110.679 136.028 110.383 136.047 110.328C136.054 110.307 136.274 110.366 136.669 110.491C137.064 110.61 137.624 110.828 138.297 111.135C139.644 111.744 141.424 112.805 143.105 114.328C144.782 115.856 146.006 117.526 146.741 118.809C147.111 119.45 147.381 119.986 147.537 120.369C147.699 120.749 147.779 120.964 147.758 120.972Z" fill="#17282F"/>
<path d="M147.093 117.523C146.939 117.523 146.783 117.496 146.64 117.445C146.249 117.307 145.928 117.027 145.624 116.746C145.265 116.414 144.903 116.093 144.539 115.778C144.486 115.718 144.432 115.659 144.378 115.599C144.468 115.215 144.568 114.798 144.678 114.363C144.873 113.58 145.069 112.862 145.224 112.291C146.427 113.15 147.412 114.284 147.917 115.664C148.111 116.193 148.204 116.861 147.803 117.258C147.617 117.442 147.357 117.523 147.093 117.523ZM144.129 115.33C143.81 114.993 143.47 114.657 143.108 114.328C141.798 113.141 140.428 112.235 139.249 111.604C138.593 111.224 137.903 110.899 137.22 110.68C137.013 110.602 136.829 110.539 136.672 110.491C136.546 110.452 136.439 110.418 136.351 110.393C136.402 110.228 136.456 110.06 136.511 109.885C138.805 110.051 140.701 110.236 142.868 111.048C143.614 111.328 144.342 111.694 145.008 112.142C144.806 112.715 144.574 113.459 144.368 114.285C144.277 114.648 144.197 115 144.129 115.33Z" fill="#417033"/>
<path d="M144.378 115.6C144.296 115.51 144.214 115.421 144.129 115.331C144.197 115 144.277 114.648 144.368 114.286C144.574 113.46 144.806 112.716 145.008 112.142C145.081 112.192 145.153 112.241 145.224 112.292C145.069 112.863 144.873 113.58 144.678 114.364C144.568 114.799 144.468 115.216 144.378 115.6Z" fill="#BFC0BE"/>
<path d="M136.258 110.445C136.246 110.443 136.234 110.442 136.222 110.44L136.225 110.43C136.236 110.435 136.247 110.44 136.258 110.445ZM136.349 110.392C136.311 110.381 136.276 110.371 136.246 110.362L136.394 109.876C136.433 109.879 136.471 109.881 136.51 109.884C136.454 110.059 136.401 110.227 136.349 110.392Z" fill="#111D23"/>
<path d="M144.536 115.775C143.526 114.9 142.496 114.068 141.469 113.184C140.833 112.637 140.066 112.076 139.247 111.602C140.425 112.232 141.795 113.138 143.106 114.325C143.467 114.655 143.807 114.99 144.126 115.328C144.211 115.418 144.294 115.507 144.376 115.597C144.43 115.657 144.484 115.716 144.536 115.775ZM137.218 110.678C136.894 110.575 136.573 110.495 136.257 110.444C136.246 110.439 136.235 110.434 136.224 110.429L136.245 110.361C136.275 110.37 136.31 110.379 136.348 110.39C136.437 110.416 136.544 110.449 136.669 110.488C136.827 110.536 137.011 110.6 137.218 110.678Z" fill="#111D23"/>
<path d="M131.969 105.962C131.977 105.979 131.755 106.121 131.329 106.333C130.902 106.545 130.261 106.81 129.441 107.045C127.81 107.52 125.374 107.781 122.825 107.12C120.276 106.457 118.273 105.044 117.082 103.835C116.478 103.23 116.047 102.687 115.779 102.294C115.509 101.901 115.383 101.669 115.4 101.659C115.451 101.621 116.01 102.522 117.239 103.672C118.45 104.819 120.423 106.165 122.906 106.81C125.388 107.454 127.765 107.238 129.382 106.826C131.016 106.419 131.942 105.904 131.969 105.962Z" fill="#17282F"/>
<path d="M123.889 109.775C123.866 109.775 123.842 109.775 123.817 109.775C122.391 109.751 121.071 109.02 119.941 108.15C118.064 106.704 116.87 104.568 115.865 102.415C116.137 102.795 116.54 103.29 117.083 103.834C118.275 105.043 120.278 106.456 122.826 107.119C123.193 107.214 123.557 107.29 123.917 107.349C123.534 108.011 123.311 108.447 123.354 108.474C123.355 108.475 123.356 108.476 123.359 108.476C123.418 108.476 123.737 108.053 124.188 107.39C124.808 107.478 125.413 107.517 125.992 107.517C127.18 107.517 128.261 107.355 129.143 107.126C127.609 108.423 125.887 109.775 123.889 109.775Z" fill="#417033"/>
<path d="M123.358 108.475C123.355 108.475 123.354 108.474 123.353 108.473C123.31 108.446 123.533 108.01 123.916 107.348C124.006 107.362 124.097 107.377 124.187 107.389C123.736 108.052 123.417 108.475 123.358 108.475Z" fill="#BFC0BE"/>
<path d="M126.161 107.217C125.592 107.217 124.996 107.181 124.385 107.098C124.406 107.066 124.428 107.033 124.451 107C125.045 107.106 125.644 107.18 126.245 107.216C126.218 107.217 126.189 107.217 126.161 107.217ZM124.088 107.055C123.699 106.993 123.304 106.912 122.907 106.809C120.582 106.205 118.704 104.986 117.479 103.891C119.28 105.349 121.65 106.443 124.155 106.943C124.132 106.981 124.11 107.018 124.088 107.055Z" fill="#DA314B"/>
<path d="M124.382 107.102C124.285 107.089 124.185 107.074 124.087 107.058C124.108 107.021 124.13 106.985 124.153 106.947C124.251 106.966 124.349 106.985 124.449 107.003C124.426 107.036 124.404 107.069 124.382 107.102Z" fill="#BFC0BE"/>
<path d="M125.991 107.518C125.412 107.518 124.807 107.479 124.187 107.391C124.096 107.378 124.006 107.364 123.915 107.349C123.556 107.29 123.192 107.214 122.825 107.119C120.276 106.457 118.274 105.044 117.082 103.834C116.539 103.291 116.135 102.796 115.864 102.416C115.82 102.322 115.776 102.228 115.733 102.133C116.222 102.762 116.811 103.352 117.478 103.892C118.703 104.987 120.581 106.206 122.906 106.81C123.303 106.913 123.697 106.994 124.087 107.055C124.186 107.071 124.285 107.086 124.384 107.099C124.994 107.181 125.59 107.218 126.16 107.218C126.188 107.218 126.216 107.218 126.244 107.217C126.539 107.235 126.834 107.245 127.128 107.245C127.821 107.245 128.51 107.194 129.188 107.087C129.172 107.101 129.157 107.114 129.142 107.127C128.26 107.355 127.179 107.518 125.991 107.518Z" fill="#111D23"/>
<path d="M138.425 72.0547C138.328 72.0485 138.445 69.9464 138.193 67.3754C137.953 64.8019 137.438 62.7599 137.533 62.736C137.573 62.7256 137.753 63.2233 137.958 64.0531C138.165 64.8811 138.386 66.0448 138.511 67.3447C138.635 68.644 138.639 69.828 138.594 70.6811C138.548 71.5342 138.466 72.0571 138.425 72.0547Z" fill="#17282F"/>
<path d="M65.6222 154.192C65.6222 154.192 58.9513 155.634 52.996 154.74C47.4127 153.904 34.9111 154.77 34.916 162.128C34.9209 170.336 51.5912 168.308 58.0957 167.007C64.5997 165.706 71.0767 164.527 71.0767 164.527L65.6222 154.192Z" fill="#7FC76A"/>
<path d="M50.652 164.707C50.5661 164.726 50.2052 163.447 49.8462 161.851C49.4877 160.253 49.2662 158.943 49.3527 158.924C49.4386 158.905 49.7995 160.183 50.158 161.781C50.517 163.377 50.738 164.688 50.652 164.707Z" fill="#17282F"/>
<path d="M52.9254 164.814C52.8376 164.826 52.586 163.515 52.3625 161.886C52.1385 160.256 52.0287 158.925 52.1158 158.914C52.2036 158.901 52.4552 160.212 52.6792 161.842C52.9026 163.472 53.0131 164.802 52.9254 164.814Z" fill="#17282F"/>
<path d="M55.1234 163.953C55.0357 163.964 54.8252 162.818 54.6533 161.394C54.4821 159.971 54.4133 158.808 54.5011 158.798C54.5889 158.786 54.7994 159.932 54.9712 161.356C55.1425 162.78 55.2112 163.943 55.1234 163.953Z" fill="#17282F"/>
<path d="M58.5749 163.095C58.4976 163.129 58.0238 162.171 57.7169 160.898C57.4051 159.625 57.3879 158.557 57.472 158.551C57.5634 158.543 57.7224 159.576 58.0274 160.822C58.3276 162.069 58.6602 163.061 58.5749 163.095Z" fill="#17282F"/>
<path d="M59.3133 160.096C59.3115 160.078 59.6208 160.026 60.1848 160.038C60.7464 160.054 61.5719 160.145 62.5269 160.496C62.7675 160.587 63.0173 160.702 63.2481 160.885C63.4758 161.061 63.6906 161.347 63.6998 161.698C63.7072 162.424 62.9099 162.948 62.1894 162.796C61.4608 162.657 60.9066 162.123 60.4481 161.556C59.9841 160.976 59.649 160.267 59.4631 159.504C59.0973 157.973 59.3692 156.39 60.1971 155.254C60.3174 155.118 60.4837 154.987 60.6924 154.956C60.8943 154.922 61.1128 155.001 61.2473 155.13C61.5204 155.389 61.6161 155.717 61.6652 156.025C61.7426 156.627 61.6996 157.197 61.5768 157.694C61.3369 158.696 60.8367 159.39 60.4512 159.799C60.2548 160.003 60.0854 160.144 59.9645 160.231C59.8424 160.316 59.7761 160.356 59.7693 160.348C59.7509 160.324 60.0019 160.138 60.3579 159.716C60.7047 159.295 61.1558 158.606 61.3559 157.644C61.4602 157.168 61.4866 156.627 61.4031 156.064C61.3602 155.799 61.254 155.511 61.0619 155.341C60.8735 155.167 60.6028 155.215 60.4187 155.449C59.6981 156.462 59.4189 157.996 59.7736 159.429C59.9492 160.148 60.2628 160.817 60.6949 161.363C61.1208 161.903 61.6456 162.392 62.2415 162.506C62.8117 162.646 63.447 162.201 63.4347 161.704C63.4341 161.456 63.2862 161.235 63.0916 161.076C62.8976 160.913 62.6693 160.798 62.4453 160.707C61.529 160.34 60.7274 160.216 60.1775 160.162C59.6245 160.112 59.3145 160.122 59.3133 160.096Z" fill="#17282F"/>
<path d="M70.4173 163.441C70.4186 163.446 70.3615 163.465 70.2492 163.494C70.1197 163.527 69.9546 163.568 69.749 163.619C69.285 163.724 68.6381 163.872 67.815 164.059C66.1327 164.43 63.6918 164.949 60.6598 165.535C57.6273 166.115 54.0055 166.781 49.9443 167.334C47.9195 167.606 45.7511 167.852 43.506 167.655C42.3858 167.573 41.2449 167.38 40.134 167.01C39.5834 166.813 39.0304 166.597 38.5155 166.292C37.9993 165.985 37.5022 165.652 37.094 165.146L37.1186 165.174C36.9124 164.974 36.6969 164.747 36.5386 164.477C35.8567 163.388 35.8352 162.035 36.1992 160.886C36.573 159.712 37.4083 158.777 38.3375 158.091C39.2796 157.405 40.3267 156.927 41.3775 156.584C41.9096 156.433 42.4276 156.251 42.9542 156.131C43.4845 156.026 44.0025 155.885 44.5248 155.813C48.7051 155.152 52.5079 155.488 55.6669 155.489C57.251 155.518 58.6817 155.475 59.9356 155.399C61.1883 155.304 62.2617 155.162 63.1296 154.995C63.5592 154.905 63.9434 154.824 64.2798 154.753C64.6014 154.661 64.8776 154.583 65.1083 154.517C65.3189 154.459 65.4876 154.413 65.6202 154.376C65.7362 154.346 65.7964 154.333 65.7982 154.338C65.8 154.344 65.7436 154.366 65.6306 154.408C65.5005 154.452 65.3348 154.508 65.1274 154.579C64.8978 154.653 64.6241 154.742 64.3043 154.845C63.9674 154.925 63.5838 155.016 63.1541 155.117C62.2857 155.304 61.2073 155.465 59.9491 155.577C58.6909 155.671 57.2523 155.73 55.6657 155.715C54.8574 155.722 54.0073 155.707 53.1211 155.692C50.5372 155.649 47.6457 155.605 44.5733 156.103C44.0577 156.177 43.5483 156.317 43.026 156.423C42.5068 156.542 41.9986 156.724 41.4757 156.873C40.4445 157.212 39.4269 157.682 38.5241 158.342C37.6317 159.004 36.8467 159.893 36.5018 160.984C36.1605 162.059 36.19 163.324 36.8086 164.308C36.9517 164.551 37.1468 164.755 37.3316 164.936L37.342 164.946L37.3561 164.963C37.6949 165.384 38.1878 165.732 38.6745 166.015C39.1667 166.308 39.7019 166.517 40.2346 166.71C41.3136 167.071 42.43 167.262 43.5317 167.345C45.7419 167.543 47.8808 167.308 49.9062 167.045C53.9595 166.51 57.5825 165.868 60.6187 165.315C63.6537 164.758 66.1002 164.272 67.7898 163.94C68.6178 163.776 69.269 163.649 69.7355 163.557C69.9441 163.519 70.1111 163.488 70.2424 163.463C70.3566 163.443 70.4161 163.436 70.4173 163.441Z" fill="#17282F"/>
<path d="M46.0252 167.393C45.9786 167.393 45.9399 166.74 45.8638 165.687C45.7883 164.636 45.6631 163.185 45.4501 161.591C45.2359 159.998 44.9751 158.565 44.7713 157.53C44.5676 156.495 44.4331 155.855 44.4786 155.844C44.5185 155.832 44.7308 156.454 44.9917 157.481C45.2537 158.507 45.5514 159.944 45.7668 161.549C45.9817 163.153 46.0719 164.618 46.0897 165.677C46.1081 166.738 46.067 167.392 46.0252 167.393Z" fill="#17282F"/>
<path d="M67.7953 165.133C69.7931 164.759 71.0758 164.525 71.0758 164.525L67.7953 165.133ZM63.569 154.546L63.5684 154.546L64.7934 154.19L64.88 154.333C64.5418 154.394 64.0974 154.468 63.569 154.546Z" fill="#8C8F8F"/>
<path d="M67.7947 165.133L67.4019 164.148C67.5437 164.117 67.6805 164.088 67.8131 164.058C68.6361 163.871 69.283 163.723 69.747 163.618C69.9527 163.567 70.1178 163.525 70.2473 163.493C70.3571 163.464 70.4142 163.446 70.4154 163.44L71.0752 164.525C71.0752 164.525 69.7925 164.759 67.7947 165.133ZM67.3522 164.024L63.7402 154.977C63.9397 154.929 64.1275 154.885 64.3024 154.844C64.5847 154.752 64.8321 154.673 65.0444 154.604L70.4148 163.439C70.4136 163.439 70.4117 163.438 70.4081 163.438C70.3884 163.438 70.332 163.446 70.2405 163.462C70.1092 163.487 69.9422 163.517 69.7335 163.555C69.2671 163.647 68.6159 163.775 67.7879 163.938C67.648 163.966 67.5025 163.995 67.3522 164.024ZM63.6991 154.874L63.5684 154.546C64.0968 154.468 64.5412 154.394 64.8793 154.333L65.0076 154.544C64.7983 154.604 64.5553 154.673 64.2779 154.752C64.098 154.79 63.9053 154.83 63.6991 154.874Z" fill="#2B0C11"/>
<path d="M67.404 164.146L67.3543 164.023C67.5046 163.993 67.6501 163.964 67.79 163.937C68.618 163.773 69.2692 163.646 69.7356 163.554C69.9443 163.516 70.1112 163.485 70.2426 163.46C70.334 163.445 70.3905 163.437 70.4101 163.437C70.4138 163.437 70.4157 163.437 70.4169 163.438L70.4175 163.438C70.4163 163.445 70.3592 163.462 70.2493 163.491C70.1198 163.524 69.9547 163.565 69.7491 163.616C69.2851 163.721 68.6382 163.869 67.8152 164.056C67.6826 164.086 67.5457 164.116 67.404 164.146ZM63.7423 154.975L63.7012 154.872C63.9074 154.829 64.1001 154.788 64.2799 154.75C64.5574 154.671 64.8004 154.602 65.0097 154.542L65.0465 154.602C64.8342 154.671 64.5868 154.75 64.3045 154.842C64.1296 154.883 63.9418 154.927 63.7423 154.975Z" fill="#0C1418"/>
<path d="M118.657 125.526C117.978 125.753 74.2938 113.512 56.628 108.544C51.988 107.24 47.0123 107.993 42.9664 110.612L42.7534 110.75C36.8141 114.595 33.9239 121.751 35.5277 128.642C36.5453 133.017 39.2716 136.799 43.1026 139.147C54.7524 146.283 79.4063 161.298 80.16 161.006C81.1488 160.623 111.938 159.824 111.938 159.824L74.8971 133.185L92.5186 144.573L118.657 125.526Z" fill="#17282F"/>
<path d="M82.1886 112.23L91.4748 107.427L100.581 113.136L134.674 114.249L139.609 130.848L90.2632 119.408C90.2632 119.408 81.2815 120.203 80.6088 118.184C79.9361 116.165 82.1886 112.23 82.1886 112.23Z" fill="#F8A58D"/>
<path d="M110.119 138.833L105.53 153.905L106.1 158.498C114.463 166.928 127.788 167.825 137.206 160.595C142.931 156.199 146.274 149.38 146.243 142.162L146.173 126.413L110.119 138.833Z" fill="#17282F"/>
<path d="M82.7872 138.933C82.7345 139.003 77.4064 135.119 70.8884 130.257C64.3684 125.394 59.1269 121.396 59.1791 121.325C59.2319 121.254 64.5593 125.137 71.0798 130.001C77.5979 134.862 82.84 138.862 82.7872 138.933Z" fill="#33535F"/>
<path d="M90.8491 110.439C90.8761 110.523 88.8421 111.249 86.3066 112.062C83.7712 112.874 81.6943 113.465 81.6673 113.381C81.6403 113.296 83.6736 112.57 86.2097 111.758C88.7445 110.945 90.8221 110.354 90.8491 110.439Z" fill="#F68260"/>
<path d="M91.5427 113.267C91.547 113.315 90.9388 113.406 89.9611 113.565C88.9834 113.725 87.6368 113.964 86.1656 114.301C84.6938 114.641 83.3779 115.013 82.4284 115.296C81.479 115.58 80.8922 115.764 80.8763 115.72C80.8615 115.681 81.4213 115.422 82.3579 115.082C83.2938 114.742 84.611 114.332 86.0944 113.99C87.5772 113.65 88.9404 113.444 89.931 113.341C90.9222 113.238 91.539 113.227 91.5427 113.267Z" fill="#F68260"/>
<path d="M90.7644 115.864C90.7815 115.952 88.491 116.478 85.6487 117.042C82.8052 117.606 80.487 117.992 80.4698 117.906C80.4532 117.819 82.7432 117.292 85.5861 116.729C88.4284 116.165 90.7478 115.778 90.7644 115.864Z" fill="#F68260"/>
<path d="M78.7192 89.9655L87.2848 118.15C87.383 118.473 87.669 118.702 88.0047 118.727L111.346 120.478C111.772 120.51 112.102 120.865 112.102 121.293V122.75C112.102 123.207 111.726 123.574 111.27 123.566L47.463 122.368C47.1303 122.361 46.8345 122.153 46.7155 121.841L35.4948 92.4439C35.2965 91.9246 35.6642 91.363 36.219 91.3373L77.8998 89.3874C78.273 89.3702 78.6105 89.6083 78.7192 89.9655Z" fill="#33535F"/>
<path d="M60.7406 102.108C60.287 102.227 59.5671 102.867 59.4781 103.541C59.3897 104.214 59.7518 104.9 60.303 105.297C60.9751 105.78 61.9479 105.846 62.6353 105.384C63.3233 104.922 63.6277 104.01 63.2723 103.029C62.99 102.25 61.5655 101.706 60.7406 102.108Z" fill="#DADBD8"/>
<path d="M71.075 164.525L64.3311 153.431L113.924 114.563C117.009 112.033 120.782 110.486 124.756 110.124C137.091 109.001 147.453 119.285 146.422 131.629L145.629 141.112L112.711 151.689L71.075 164.525Z" fill="#17282F"/>
<path d="M134.674 138.186C134.677 138.19 134.633 138.231 134.542 138.308C134.437 138.395 134.304 138.505 134.137 138.642C133.759 138.944 133.229 139.367 132.558 139.902C132.211 140.176 131.829 140.479 131.411 140.808C130.993 141.14 130.499 141.448 129.99 141.808C129.475 142.161 128.925 142.537 128.343 142.936C128.05 143.135 127.753 143.346 127.44 143.549C127.12 143.741 126.792 143.939 126.455 144.141C125.108 144.946 123.654 145.867 122.004 146.7C121.187 147.128 120.353 147.594 119.472 148.03C118.583 148.452 117.669 148.885 116.731 149.329C112.956 151.05 108.727 152.781 104.194 154.323C95.1361 157.444 86.7608 159.691 80.7625 161.509C79.2594 161.952 77.9037 162.366 76.7166 162.742C75.5272 163.109 74.5022 163.425 73.673 163.708C72.8561 163.973 72.2135 164.182 71.7532 164.332C71.5464 164.395 71.3813 164.446 71.2511 164.486C71.137 164.519 71.0781 164.534 71.0762 164.528C71.0744 164.523 71.1296 164.499 71.2401 164.455C71.3678 164.407 71.5298 164.347 71.7317 164.27C72.1877 164.108 72.8242 163.879 73.6331 163.59C74.4574 163.29 75.4768 162.955 76.662 162.572C77.8453 162.179 79.1968 161.75 80.6975 161.294C86.6822 159.419 95.0465 157.137 104.089 154.021C108.615 152.482 112.836 150.763 116.608 149.061C117.546 148.622 118.459 148.194 119.347 147.778C120.228 147.348 121.062 146.888 121.88 146.466C123.53 145.646 124.986 144.738 126.338 143.949C126.675 143.75 127.004 143.556 127.325 143.367C127.64 143.168 127.937 142.96 128.232 142.766C128.817 142.375 129.37 142.006 129.888 141.66C130.401 141.309 130.898 141.009 131.321 140.684C131.744 140.364 132.131 140.07 132.483 139.804C133.169 139.288 133.709 138.883 134.096 138.592C134.272 138.465 134.412 138.363 134.522 138.283C134.618 138.215 134.67 138.181 134.674 138.186Z" fill="#33535F"/>
<path d="M135.875 143.369C135.883 143.39 135.705 143.482 135.374 143.631C135.045 143.783 134.559 143.98 133.952 144.206C132.738 144.659 131.024 145.196 129.088 145.613C127.152 146.028 125.369 146.242 124.076 146.328C123.429 146.372 122.905 146.391 122.543 146.388C122.18 146.388 121.98 146.378 121.979 146.356C121.977 146.306 122.774 146.247 124.055 146.103C125.336 145.96 127.1 145.712 129.021 145.3C130.942 144.886 132.652 144.388 133.878 143.992C135.105 143.597 135.857 143.324 135.875 143.369Z" fill="#33535F"/>
<path d="M111.939 116.426C111.994 116.496 101.379 124.837 88.2346 135.053C75.0855 145.274 64.3859 153.499 64.3313 153.429C64.2772 153.36 74.8897 145.022 88.0382 134.801C101.183 124.585 111.885 116.357 111.939 116.426Z" fill="#33535F"/>
<path d="M109.074 157.674C106.696 156.405 104.025 157.154 101.749 157.921C100.234 158.432 98.6593 159.241 97.1206 158.808C96.0079 158.495 95.1806 157.593 94.3305 156.809C90.9033 153.648 86.1767 151.924 81.5116 152.216C80.1865 152.299 78.8915 152.832 77.9911 153.807C75.6545 156.338 77.4166 159.631 79.5046 161.759C83.1908 165.517 88.2107 167.938 93.4448 168.484C97.7964 168.939 103.779 168.338 108.192 166.448C110.912 165.283 112.307 162.075 110.88 159.482C110.464 158.727 109.856 158.091 109.074 157.674Z" fill="#7FC76A"/>
<path d="M96.3705 168.629C95.3406 168.629 94.3531 168.58 93.438 168.484C90.3238 168.159 87.2856 167.171 84.5593 165.632H84.5643C87.2906 167.171 90.3287 168.159 93.4429 168.484C94.3573 168.58 95.3443 168.628 96.3729 168.629C96.3723 168.629 96.3711 168.629 96.3705 168.629ZM84.0162 165.312C84.0113 165.312 84.0156 165.312 84.0106 165.312C82.4173 164.355 80.9394 163.206 79.626 161.889L79.6303 161.888C80.9437 163.205 82.4223 164.355 84.0162 165.312Z" fill="#8C8F8F"/>
<path d="M84.5604 165.633C84.3757 165.529 84.1934 165.422 84.0117 165.313C84.0166 165.313 84.0123 165.313 84.0172 165.313C84.1983 165.422 84.3812 165.529 84.5653 165.633H84.5604Z" fill="#0C1418"/>
<path d="M79.6313 161.889C79.6202 161.877 79.608 161.865 79.5963 161.854C79.5981 161.853 79.5994 161.853 79.6006 161.853C79.6123 161.864 79.6239 161.876 79.6356 161.887L79.6313 161.889ZM79.4281 161.682C78.656 160.881 77.9379 159.923 77.4629 158.906C77.9392 159.923 78.6603 160.88 79.4324 161.681C79.4312 161.681 79.4294 161.682 79.4281 161.682Z" fill="#0C1418"/>
<path d="M79.5937 161.855C79.5623 161.824 79.5308 161.792 79.4994 161.76C79.4747 161.735 79.4495 161.709 79.4248 161.683C79.426 161.683 79.4279 161.682 79.4291 161.682C79.4544 161.708 79.4797 161.734 79.505 161.76C79.5358 161.791 79.5672 161.823 79.5981 161.854C79.5968 161.855 79.5956 161.855 79.5937 161.855Z" fill="#1A2C33"/>
<path d="M96.377 168.629C95.3483 168.628 94.3614 168.58 93.4469 168.484C90.3327 168.159 87.2946 167.171 84.5683 165.632C84.3842 165.528 84.2013 165.421 84.0202 165.312C82.4263 164.355 80.9478 163.205 79.6343 161.888C79.6227 161.877 79.611 161.865 79.5993 161.853C79.5687 161.822 79.5374 161.79 79.5067 161.759C79.4815 161.733 79.4563 161.708 79.4312 161.681C78.6591 160.881 77.9379 159.923 77.4616 158.906C77.2628 158.481 77.1069 158.045 77.0068 157.607C77.1633 156.993 77.4702 156.393 77.9876 155.833C78.8886 154.858 80.1836 154.324 81.5081 154.241C81.8506 154.22 82.1925 154.209 82.5343 154.209C86.8589 154.209 91.1515 155.905 94.3277 158.834C95.1771 159.618 96.005 160.52 97.1178 160.833C97.4234 160.92 97.7309 160.956 98.039 160.956C99.2801 160.956 100.532 160.356 101.746 159.947C103.135 159.478 104.672 159.016 106.2 159.016C107.174 159.016 108.145 159.205 109.071 159.699C109.853 160.116 110.461 160.752 110.877 161.507C111.091 161.897 111.234 162.3 111.327 162.708C110.975 164.308 109.824 165.748 108.189 166.448C104.704 167.94 100.242 168.628 96.377 168.629Z" fill="#2B0C11"/>
<path d="M111.327 162.709C111.284 162.723 111.296 162.127 110.744 161.299C110.468 160.895 110.056 160.439 109.471 160.055C108.896 159.665 108.15 159.328 107.285 159.217C105.518 159.01 103.472 159.753 101.199 160.368C100.075 160.666 98.8473 161.121 97.5032 160.953C96.8471 160.867 96.1892 160.649 95.603 160.295C95.0187 159.944 94.4866 159.512 93.9698 159.065C92.0101 157.152 89.6858 155.954 87.464 155.199C86.3525 154.826 85.2606 154.58 84.227 154.447C83.1929 154.311 82.2195 154.294 81.3479 154.43C80.4776 154.566 79.7215 154.851 79.1206 155.208C78.5228 155.57 78.0784 155.99 77.7568 156.364C77.1253 157.128 76.9123 157.652 76.8779 157.632C76.8779 157.632 77.0461 157.091 77.6605 156.284C77.9747 155.89 78.4178 155.444 79.0273 155.055C79.6386 154.673 80.4168 154.362 81.3111 154.208C82.2066 154.052 83.2088 154.057 84.259 154.185C85.3116 154.308 86.4243 154.547 87.5561 154.92C88.6897 155.288 89.8405 155.791 90.9716 156.426C91.5308 156.751 92.1009 157.09 92.6337 157.509C93.1627 157.923 93.6642 158.379 94.1785 158.822C94.691 159.266 95.2102 159.687 95.7651 160.021C96.3168 160.357 96.9251 160.558 97.5431 160.642C98.7878 160.807 99.9816 160.381 101.121 160.084C103.385 159.492 105.466 158.75 107.313 158.993C109.146 159.285 110.326 160.386 110.849 161.231C111.117 161.664 111.236 162.046 111.289 162.306C111.334 162.569 111.336 162.708 111.327 162.709Z" fill="#17282F"/>
<path d="M111.327 162.709C111.284 162.723 111.296 162.127 110.744 161.299C110.468 160.895 110.056 160.439 109.471 160.055C108.896 159.665 108.15 159.328 107.285 159.217C105.518 159.01 103.472 159.753 101.199 160.368C100.075 160.666 98.8473 161.121 97.5032 160.953C96.8471 160.867 96.1892 160.649 95.603 160.295C95.0187 159.944 94.4866 159.512 93.9698 159.065C92.0101 157.152 89.6858 155.954 87.464 155.199C86.3525 154.826 85.2606 154.58 84.227 154.447C83.1929 154.311 82.2195 154.294 81.3479 154.43C80.4776 154.566 79.7215 154.851 79.1206 155.208C78.5228 155.57 78.0784 155.99 77.7568 156.364C77.1253 157.128 76.9123 157.652 76.8779 157.632C76.8779 157.632 77.0461 157.091 77.6605 156.284C77.9747 155.89 78.4178 155.444 79.0273 155.055C79.6386 154.673 80.4168 154.362 81.3111 154.208C82.2066 154.052 83.2088 154.057 84.259 154.185C85.3116 154.308 86.4243 154.547 87.5561 154.92C88.6897 155.288 89.8405 155.791 90.9716 156.426C91.5308 156.751 92.1009 157.09 92.6337 157.509C93.1627 157.923 93.6642 158.379 94.1785 158.822C94.691 159.266 95.2102 159.687 95.7651 160.021C96.3168 160.357 96.9251 160.558 97.5431 160.642C98.7878 160.807 99.9816 160.381 101.121 160.084C103.385 159.492 105.466 158.75 107.313 158.993C109.146 159.285 110.326 160.386 110.849 161.231C111.117 161.664 111.236 162.046 111.289 162.306C111.334 162.569 111.336 162.708 111.327 162.709Z" fill="#17282F"/>
<path d="M81.825 162.137C81.8029 162.101 82.2614 161.768 83.0427 161.293C83.8234 160.817 84.9306 160.205 86.1943 159.61C87.4586 159.017 88.6365 158.554 89.5006 158.257C90.366 157.959 90.9141 157.817 90.9282 157.857C90.943 157.901 90.4212 158.118 89.5816 158.468C88.7414 158.818 87.5857 159.31 86.3299 159.9C85.0754 160.49 83.9596 161.066 83.1544 161.489C82.3485 161.913 81.8489 162.176 81.825 162.137Z" fill="#17282F"/>
<path d="M82.6412 164.515C82.6025 164.435 84.6831 163.35 87.2873 162.091C89.8921 160.832 92.0341 159.876 92.0727 159.955C92.1108 160.035 90.0314 161.119 87.4266 162.379C84.8218 163.638 82.6792 164.594 82.6412 164.515Z" fill="#17282F"/>
<path d="M92.4979 165.546C92.4507 165.621 89.9159 164.108 86.8367 162.168C83.7568 160.228 81.2987 158.595 81.3454 158.52C81.3926 158.445 83.9268 159.957 87.0073 161.898C90.0865 163.838 92.5446 165.471 92.4979 165.546Z" fill="#17282F"/>
<path d="M93.9208 163.078C93.8926 163.113 93.4255 162.786 92.6798 162.248C91.9341 161.71 90.9048 160.968 89.754 160.168C88.6014 159.371 87.5457 158.668 86.7804 158.158C86.0156 157.648 85.5449 157.327 85.5682 157.287C85.5897 157.251 86.1016 157.504 86.9001 157.967C87.6979 158.428 88.7794 159.104 89.9357 159.906C91.0926 160.708 92.1047 161.484 92.8179 162.069C93.5305 162.653 93.9472 163.044 93.9208 163.078Z" fill="#17282F"/>
</svg>