<svg width="40" height="40" viewBox="0 0 40 40" fill="none" xmlns="http://www.w3.org/2000/svg">
<path fill-rule="evenodd" clip-rule="evenodd" d="M0.776855 19.5074C0.776855 8.73377 9.51063 0 20.2843 0C31.0579 0 39.7917 8.73377 39.7917 19.5074C39.7917 30.2811 31.0579 39.0149 20.2843 39.0149C9.51063 39.0149 0.776855 30.2811 0.776855 19.5074Z" fill="#77B550"/>
<path fill-rule="evenodd" clip-rule="evenodd" d="M14.8518 12.0472C14.8231 10.7449 13.8918 9.75293 12.3795 9.75293C10.8671 9.75293 9.87842 10.7449 9.87842 12.0472C9.87842 13.3226 10.8379 14.3431 12.3221 14.3431H12.3503C13.8918 14.3431 14.8518 13.3226 14.8518 12.0472ZM14.5606 16.1564H10.1398V29.4391H14.5606V16.1564ZM25.4142 15.8451C28.3233 15.8451 30.5042 17.744 30.5042 21.8238L30.504 29.4397H26.0834V22.3335C26.0834 20.5486 25.4437 19.3306 23.8433 19.3306C22.622 19.3306 21.8945 20.1517 21.575 20.9447C21.4581 21.229 21.4294 21.625 21.4294 22.0219V29.4401H17.0081C17.0081 29.4401 17.0664 17.4038 17.0081 16.1574H21.4294V18.0388C22.0162 17.1344 23.067 15.8451 25.4142 15.8451Z" fill="white"/>
</svg>
