<svg width="40" height="40" viewBox="0 0 40 40" fill="none" xmlns="http://www.w3.org/2000/svg">
<g clip-path="url(#clip0)">
<path d="M24.4815 26.162C23.6075 27.0359 21.735 27.3479 20.4005 27.3479C19.0623 27.3479 17.1936 27.0359 16.3196 26.162C16.1128 25.9551 15.7812 25.9551 15.5746 26.162C15.3677 26.3689 15.3677 26.7005 15.5746 26.907C16.9596 28.292 19.6204 28.4013 20.4005 28.4013C21.1807 28.4013 23.8376 28.292 25.2268 26.907C25.4295 26.7002 25.4295 26.3686 25.2268 26.162C25.0199 25.9551 24.6883 25.9551 24.4815 26.162Z" fill="#77B550"/>
<path d="M17.9585 21.5396C17.9585 20.4198 17.0456 19.5068 15.9258 19.5068C14.8063 19.5068 13.8931 20.4198 13.8931 21.5396C13.8931 22.6591 14.8063 23.5723 15.9258 23.5723C17.0456 23.5723 17.9585 22.6594 17.9585 21.5396Z" fill="#77B550"/>
<path d="M20.3956 0C9.6236 0 0.888184 8.73542 0.888184 19.5074C0.888184 30.2794 9.6236 39.0149 20.3956 39.0149C31.1676 39.0149 39.903 30.2794 39.903 19.5074C39.903 8.73542 31.1676 0 20.3956 0ZM31.7138 22.1096C31.7567 22.3906 31.7802 22.6754 31.7802 22.9641C31.7802 27.3415 26.6849 30.8881 20.3995 30.8881C14.1141 30.8881 9.01876 27.3415 9.01876 22.9641C9.01876 22.6716 9.04227 22.3828 9.08514 22.1018C8.09423 21.6571 7.40366 20.6623 7.40366 19.5074C7.40366 17.9391 8.67556 16.6633 10.2478 16.6633C11.0125 16.6633 11.7031 16.9636 12.2141 17.4554C14.1882 16.0314 16.9195 15.122 19.9586 15.044C19.9586 15.005 21.3788 8.23982 21.3788 8.23982C21.4062 8.10736 21.4842 7.99395 21.5973 7.92013C21.7104 7.84601 21.847 7.8225 21.9798 7.84988L26.7084 8.85627C27.04 8.18534 27.7225 7.721 28.5223 7.721C29.646 7.721 30.555 8.63005 30.555 9.75371C30.555 10.8774 29.646 11.7864 28.5223 11.7864C27.4338 11.7864 26.5521 10.928 26.5015 9.85135L22.2682 8.95003L20.9731 15.0482C23.9577 15.1533 26.6381 16.0584 28.581 17.4631C29.092 16.9678 29.7865 16.6633 30.555 16.6633C32.1276 16.6633 33.3992 17.9352 33.3992 19.5074C33.3992 20.6701 32.7009 21.6649 31.7138 22.1096Z" fill="#77B550"/>
<path d="M24.8682 19.5068C23.7484 19.5068 22.8354 20.4198 22.8354 21.5396C22.8354 22.6591 23.7484 23.5723 24.8682 23.5723C25.9877 23.5723 26.9009 22.6591 26.9009 21.5396C26.9009 20.4198 25.988 19.5068 24.8682 19.5068Z" fill="#77B550"/>
</g>
<defs>
<clipPath id="clip0">
<rect width="39.0149" height="39.0149" fill="white" transform="translate(0.888184)"/>
</clipPath>
</defs>
</svg>
