<svg width="40" height="40" viewBox="0 0 40 40" fill="none" xmlns="http://www.w3.org/2000/svg">
<path fill-rule="evenodd" clip-rule="evenodd" d="M0.874023 19.5074C0.874023 8.73377 9.6078 0 20.3815 0C31.1551 0 39.8889 8.73377 39.8889 19.5074C39.8889 30.2811 31.1551 39.0149 20.3815 39.0149C9.6078 39.0149 0.874023 30.2811 0.874023 19.5074Z" fill="#77B550"/>
<path fill-rule="evenodd" clip-rule="evenodd" d="M19.7959 15.8545L19.8369 16.5296L19.1546 16.4469C16.6712 16.1301 14.5017 15.0556 12.6596 13.251L11.759 12.3556L11.527 13.0168C11.0358 14.4908 11.3497 16.0474 12.373 17.0943C12.9188 17.6729 12.796 17.7556 11.8545 17.4112C11.527 17.301 11.2405 17.2183 11.2132 17.2597C11.1177 17.3561 11.4452 18.6097 11.7044 19.1056C12.0592 19.7944 12.7824 20.4694 13.5738 20.8688L14.2424 21.1857L13.451 21.1995C12.6869 21.1995 12.6596 21.2132 12.7414 21.5025C13.0143 22.3979 14.0923 23.3484 15.2931 23.7617L16.1391 24.051L15.4022 24.4918C14.3106 25.1255 13.028 25.4836 11.7454 25.5112C11.1313 25.525 10.6265 25.5801 10.6265 25.6214C10.6265 25.7592 12.2912 26.5306 13.26 26.8336C16.1664 27.7291 19.6185 27.3433 22.2111 25.8143C24.0532 24.726 25.8953 22.5632 26.7549 20.4694C27.2188 19.3535 27.6828 17.3148 27.6828 16.3367C27.6828 15.703 27.7237 15.6204 28.4878 14.8627C28.9381 14.4219 29.3611 13.9398 29.443 13.802C29.5794 13.5403 29.5658 13.5403 28.8699 13.7744C27.7101 14.1877 27.5463 14.1326 28.1194 13.5127C28.5424 13.0719 29.0473 12.2729 29.0473 12.0387C29.0473 11.9974 28.8426 12.0663 28.6106 12.1903C28.365 12.328 27.8192 12.5346 27.4099 12.6586L26.673 12.8928L26.0044 12.4382C25.636 12.1903 25.1175 11.9147 24.8446 11.8321C24.1487 11.6392 23.0844 11.6668 22.4567 11.8872C20.7511 12.5071 19.6731 14.1051 19.7959 15.8545Z" fill="white"/>
</svg>
