<svg width="40" height="40" viewBox="0 0 40 40" fill="none" xmlns="http://www.w3.org/2000/svg">
<path fill-rule="evenodd" clip-rule="evenodd" d="M20.4928 39.0149C31.2664 39.0149 40.0002 30.2811 40.0002 19.5074C40.0002 8.73377 31.2664 0 20.4928 0C9.71912 0 0.985352 8.73377 0.985352 19.5074C0.985352 30.2811 9.71912 39.0149 20.4928 39.0149Z" fill="#77B550"/>
<path fill-rule="evenodd" clip-rule="evenodd" d="M21.1362 30.3611H21.1314C19.19 30.3604 17.2824 29.8733 15.5882 28.9492L9.43896 30.5622L11.0846 24.5514C10.0695 22.7922 9.53535 20.7967 9.53622 18.7523C9.53876 12.3567 14.7424 7.15332 21.1361 7.15332C24.2391 7.15466 27.1516 8.36267 29.3416 10.5553C31.5316 12.7477 32.7371 15.6621 32.7358 18.7615C32.7333 25.1556 27.5317 30.3585 21.1362 30.3611ZM15.8723 26.8473L16.2243 27.0563C17.7046 27.9347 19.4014 28.3995 21.1315 28.4002H21.1354C26.4493 28.4002 30.7743 24.075 30.7765 18.7589C30.7775 16.1827 29.7756 13.7604 27.9553 11.9381C26.135 10.1157 23.7143 9.11155 21.1392 9.11065C15.8211 9.11065 11.496 13.4353 11.4939 18.7511C11.4932 20.5728 12.0029 22.347 12.968 23.882L13.1972 24.2468L12.2232 27.8045L15.8723 26.8473ZM26.9806 21.5199C26.9082 21.399 26.715 21.3265 26.4251 21.1813C26.1353 21.0363 24.7103 20.3352 24.4446 20.2384C24.179 20.1417 23.9857 20.0934 23.7925 20.3834C23.5993 20.6735 23.0439 21.3265 22.8748 21.5199C22.7057 21.7133 22.5366 21.7376 22.2469 21.5924C21.957 21.4474 21.0231 21.1413 19.916 20.1539C19.0544 19.3853 18.4727 18.4362 18.3037 18.146C18.1346 17.8559 18.2856 17.699 18.4307 17.5545C18.5611 17.4246 18.7206 17.2159 18.8655 17.0467C19.0104 16.8775 19.0587 16.7565 19.1553 16.5632C19.2519 16.3697 19.2036 16.2005 19.1312 16.0554C19.0587 15.9104 18.4791 14.4837 18.2375 13.9034C18.0023 13.3382 17.7633 13.4148 17.5854 13.4058C17.4166 13.3973 17.2231 13.3956 17.0299 13.3956C16.8367 13.3956 16.5227 13.4681 16.257 13.7583C15.9914 14.0484 15.2426 14.7497 15.2426 16.1762C15.2426 17.6028 16.2812 18.9811 16.4261 19.1745C16.571 19.368 18.4698 22.2954 21.3774 23.5509C22.0689 23.8495 22.6087 24.0279 23.0297 24.1614C23.724 24.3821 24.3559 24.351 24.8552 24.2763C25.4121 24.1931 26.57 23.5752 26.8116 22.8982C27.053 22.2211 27.053 21.6407 26.9806 21.5199Z" fill="#FDFDFD"/>
</svg>
