<svg width="876" height="849" viewBox="0 0 876 849" fill="none" xmlns="http://www.w3.org/2000/svg">
<path d="M299.077 668.445C299.077 668.445 324.312 661.878 323.97 645.6C323.898 642.262 323.003 639.818 321.636 638.101C317.728 649.92 305.811 649.899 304.779 642.695C303.807 635.873 316.307 631.432 321.636 638.101C322.382 635.853 322.832 633.165 322.864 630.02C322.91 624.889 322.101 620.849 320.677 617.639" stroke="#DBDBDB" stroke-width="0.5" stroke-miterlimit="22.9256" stroke-dasharray="2 2"/>
<path d="M683.466 12.3068C701.076 8.32405 718.642 4.35512 736.368 0.351562C724.325 19.2957 712.383 38.0667 700.347 56.9901C699.807 55.5563 699.325 54.2611 698.837 52.9658C696.838 47.6808 694.832 42.4028 692.84 37.1178C690.914 31.9921 689.01 26.8526 687.077 21.727C685.903 18.6031 684.685 15.4861 683.466 12.3068Z" fill="#DBDBDB"/>
<path d="M718.438 69.3602C719.712 69.2585 720.9 69.181 722.082 69.0697C723.789 68.9098 725.492 68.721 727.194 68.5611C728.147 68.474 729.11 68.4304 730.063 68.3432C731.444 68.2173 732.825 68.0672 734.211 67.9412C735.149 67.8541 736.087 67.8105 737.024 67.7233C738.39 67.5974 739.751 67.4473 741.117 67.3213C742.055 67.2342 742.992 67.1761 743.93 67.1034C744.429 67.0647 744.929 67.0211 745.51 66.9727C745.454 67.67 745.413 68.2948 745.347 68.9147C745.26 69.7041 745.148 70.4983 745.051 71.2877C744.908 72.4307 744.761 73.5736 744.628 74.7214C744.541 75.4817 744.475 76.242 744.389 77.0024C744.251 78.1792 744.093 79.3561 743.961 80.5377C743.838 81.6371 743.741 82.7364 743.619 83.8358C743.492 84.9303 743.334 86.0199 743.206 87.1144C743.115 87.8893 743.053 88.669 742.962 89.4487C742.824 90.6111 742.671 91.7685 742.534 92.9308C742.447 93.6912 742.391 94.4563 742.299 95.2118C742.167 96.3402 742.014 97.4638 741.881 98.5922C741.79 99.3526 741.723 100.113 741.642 100.873C741.555 101.663 741.468 102.452 741.361 103.406C733.691 92.0203 726.098 80.7363 718.438 69.3602Z" fill="#DBDBDB"/>
<path d="M738.09 65.9597C736.347 66.0983 734.596 66.2299 732.852 66.3892C730.795 66.5693 728.738 66.784 726.681 66.9641C725.288 67.0888 723.887 67.1511 722.494 67.2758C720.437 67.4559 718.379 67.6706 716.322 67.8507C715.031 67.9684 713.74 68.0516 712.449 68.1624C710.209 68.3494 707.97 68.5641 705.73 68.7442C704.286 68.862 702.834 68.9312 701.39 69.0559C699.333 69.2291 697.275 69.4507 695.218 69.6308C693.854 69.7486 692.483 69.8248 691.111 69.9425C689.025 70.1226 686.946 70.3304 684.86 70.5174C683.598 70.6283 682.328 70.7183 681.066 70.8291C679.418 70.9677 677.769 71.127 676.128 71.2655C675.872 71.2863 675.617 71.2655 675.369 71.2655C675.289 70.3373 675.172 69.4646 675.136 68.5918C675.063 66.6801 675.041 64.7684 674.968 62.8566C674.88 60.557 674.764 58.2643 674.654 55.9647C674.552 53.769 674.443 51.5663 674.34 49.3706C674.18 45.935 674.027 42.4995 673.859 39.0639C673.83 38.5097 673.72 37.9556 673.633 37.2422C674.165 37.637 674.581 37.9002 674.946 38.2188C676.872 39.8604 678.776 41.5228 680.702 43.1713C682.89 45.0415 685.093 46.9048 687.289 48.7749C688.872 50.1187 690.455 51.4555 692.038 52.7923C694.533 54.8911 696.991 57.0314 699.551 59.054C700.055 59.4557 700.937 59.4557 701.66 59.5873C704.454 60.0929 707.255 60.5847 710.056 61.0627C713.973 61.7207 717.898 62.3372 721.815 63.009C725.346 63.6186 728.869 64.2835 732.4 64.9C734.289 65.2325 736.186 65.5095 738.083 65.8143C738.09 65.8628 738.09 65.9113 738.09 65.9597Z" fill="#DBDBDB"/>
<path d="M673.888 69.8666C672.736 68.6822 671.583 67.5046 670.445 66.3133C669.862 65.6968 669.314 65.0526 668.724 64.4362C666.747 62.3651 664.748 60.3149 662.771 58.2438C660.984 56.3806 659.204 54.5035 657.424 52.6333C655.644 50.7631 653.857 48.8929 652.077 47.0158C651.303 46.1985 650.559 45.3604 649.735 44.453C657.329 41.7032 664.857 38.981 672.393 36.252C672.473 37.7204 672.553 39.1126 672.612 40.5118C672.728 43.1993 672.816 45.8937 672.933 48.5813C673.02 50.6315 673.144 52.6818 673.246 54.732C673.356 56.9278 673.458 59.1304 673.56 61.3261C673.662 63.4249 673.757 65.5236 673.881 67.6224C673.925 68.3497 674.012 69.077 674.085 69.8043C674.012 69.8181 673.954 69.8389 673.888 69.8666Z" fill="#DBDBDB"/>
<path d="M682.328 13.2002C687.821 27.6837 693.285 42.1117 698.829 56.7475C697.575 55.6947 696.495 54.7943 695.423 53.8869C692.891 51.7535 690.353 49.627 687.829 47.4867C686.574 46.427 685.341 45.3395 684.086 44.2728C681.562 42.1325 679.024 40.006 676.493 37.8726C675.719 37.2146 674.997 36.5081 674.195 35.8847C673.655 35.476 673.691 35.0535 673.896 34.534C674.968 31.8534 676.033 29.1729 677.083 26.4854C678.776 22.1493 680.446 17.8064 682.124 13.4703C682.153 13.408 682.212 13.3595 682.328 13.2002Z" fill="#DBDBDB"/>
<path d="M694.795 0.400391C694.795 2.984 694.802 5.44986 694.773 7.90879C694.773 8.08196 694.503 8.36595 694.306 8.41443C690.389 9.37723 686.472 10.3054 682.547 11.2474C682.037 11.3721 681.679 11.5799 681.46 12.134C679.877 16.2276 678.236 20.3004 676.624 24.3802C675.267 27.8088 673.925 31.2375 672.561 34.6592C672.48 34.8601 672.283 35.0956 672.079 35.1648C669.825 35.9614 667.556 36.7233 665.237 37.5199C665.353 36.4324 665.455 35.3865 665.587 34.3475C665.711 33.3155 665.864 32.2834 666.003 31.2513C666.214 29.6167 666.426 27.982 666.615 26.3473C666.79 24.8789 666.929 23.4035 667.104 21.9282C667.294 20.342 667.52 18.7558 667.717 17.1696C667.892 15.722 668.074 14.2743 668.184 12.8267C668.22 12.3695 668.381 12.1132 668.804 11.9262C673.064 10.056 677.324 8.18586 681.577 6.2949C684.298 5.08968 687.004 3.8429 689.718 2.63075C691.367 1.89653 693.023 1.18309 694.795 0.400391Z" fill="#DBDBDB"/>
<path d="M707.225 48.9551C719.072 54.3994 730.832 59.7952 742.583 65.1979C742.569 65.2325 742.554 65.2671 742.547 65.3087C728.76 62.926 714.98 60.5432 701.076 58.1397C703.162 55.0228 705.198 51.9751 707.225 48.9551Z" fill="#DBDBDB"/>
<path d="M655.586 52.5359C651.872 53.7758 648.283 54.9741 644.512 56.2347C645.883 52.3766 647.204 48.6501 648.575 44.792C650.975 47.4379 653.229 49.9315 655.586 52.5359Z" fill="#DBDBDB"/>
<path d="M788.251 435.177C784.424 422.545 780.622 409.987 776.796 397.348C770.557 405.281 764.374 413.146 758.174 421.023C768.199 425.743 778.184 430.442 788.251 435.177Z" fill="#DBDBDB"/>
<path d="M785.196 419.818C793.759 408.868 802.265 397.986 810.857 386.999C799.806 390.192 788.873 393.349 777.925 396.51C780.351 404.277 782.756 411.999 785.196 419.818Z" fill="#DBDBDB"/>
<path d="M768.431 405.331C763.451 400.408 758.51 395.52 753.46 390.535C754.999 400.153 756.516 409.641 758.051 419.238C761.532 414.564 764.971 409.967 768.431 405.331Z" fill="#DBDBDB"/>
<path d="M786.429 424.716C786.924 426.572 787.388 428.31 787.853 430.042C788.345 431.876 788.837 433.71 789.345 435.54C789.4 435.733 789.553 435.963 789.729 436.063C797.596 440.547 805.466 445.017 813.343 449.488C813.384 449.51 813.425 449.531 813.501 449.516C804.516 441.284 795.523 433.051 786.429 424.716Z" fill="#DBDBDB"/>
<path d="M788.459 417.236C796.085 411.573 803.719 405.903 811.438 400.171C810.39 400.068 809.466 399.973 808.532 399.897C806.716 399.74 804.897 399.604 803.085 399.42C802.728 399.387 802.525 399.45 802.317 399.717C798.577 404.431 794.823 409.135 791.069 413.847C790.182 414.96 789.297 416.066 788.403 417.178C788.429 417.196 788.447 417.22 788.459 417.236Z" fill="#DBDBDB"/>
<path d="M790.953 427.636C794.445 430.835 797.955 434.016 801.412 437.245C802.012 437.805 802.503 437.959 803.317 437.747C806.197 437.004 809.113 436.359 812.014 435.676C812.045 435.667 812.065 435.635 812.134 435.577C805.067 432.896 798.019 430.232 790.98 427.563C790.974 427.597 790.963 427.616 790.953 427.636Z" fill="#DBDBDB"/>
<path d="M753.062 390.734C749.712 394.383 746.443 397.948 743.175 401.506C743.193 401.53 743.218 401.562 743.236 401.586C746.75 400.214 750.264 398.842 753.826 397.45C753.574 395.256 753.325 393.042 753.062 390.734Z" fill="#DBDBDB"/>
<path d="M162.702 175.939C175.142 164.529 187.507 153.186 199.948 141.771C201.477 154.229 202.994 166.568 204.517 178.938C190.578 177.942 176.703 176.94 162.702 175.939Z" fill="#DBDBDB"/>
<path d="M176.104 161.085C174.044 143.927 171.996 126.876 169.93 109.652C179.78 119.894 189.524 130.023 199.28 140.164C191.552 147.134 183.875 154.068 176.104 161.085Z" fill="#DBDBDB"/>
<path d="M203.743 155.573C212.363 153.262 220.914 150.968 229.653 148.621C221.67 158.151 213.792 167.551 205.828 177.052C205.129 169.851 204.442 162.739 203.743 155.573Z" fill="#DBDBDB"/>
<path d="M171.547 165.667C169.787 167.386 168.145 168.986 166.503 170.592C164.768 172.287 163.033 173.982 161.279 175.66C161.092 175.837 160.78 175.997 160.524 175.997C149.076 176.063 137.628 176.11 126.174 176.163C126.118 176.163 126.056 176.163 125.987 176.098C141.117 172.631 156.242 169.17 171.547 165.667Z" fill="#DBDBDB"/>
<path d="M174.268 156.279C169.743 145.444 165.224 134.61 160.642 123.64C161.841 124.173 162.908 124.635 163.963 125.115C166.029 126.052 168.083 127.018 170.161 127.931C170.567 128.108 170.742 128.304 170.798 128.725C171.747 136.145 172.708 143.566 173.669 150.986C173.894 152.74 174.131 154.489 174.356 156.243C174.331 156.255 174.3 156.267 174.268 156.279Z" fill="#DBDBDB"/>
<path d="M164.743 166.075C158.863 167.421 152.983 168.731 147.116 170.129C146.099 170.372 145.468 170.242 144.725 169.513C142.097 166.941 139.37 164.457 136.686 161.939C136.661 161.915 136.655 161.867 136.617 161.761C146.017 163.171 155.387 164.576 164.749 165.981C164.743 166.016 164.743 166.046 164.743 166.075Z" fill="#DBDBDB"/>
<path d="M229.946 149.096C231.17 155.123 232.362 160.997 233.554 166.87C233.517 166.888 233.473 166.906 233.436 166.924C230.539 163.279 227.643 159.634 224.709 155.941C226.42 153.695 228.149 151.443 229.946 149.096Z" fill="#DBDBDB"/>
<path d="M132.738 385.848C137.035 367.603 141.302 349.462 145.599 331.218C155.053 342.307 164.42 353.3 173.801 364.313C160.123 371.489 146.489 378.637 132.738 385.848Z" fill="#DBDBDB"/>
<path d="M135.722 363.731C122.752 348.424 109.854 333.213 96.833 317.843C112.648 321.943 128.288 325.995 143.95 330.054C141.2 341.282 138.479 352.434 135.722 363.731Z" fill="#DBDBDB"/>
<path d="M158.044 342.28C164.624 335.021 171.153 327.817 177.82 320.461C176.478 334.293 175.158 347.939 173.823 361.736C168.534 355.212 163.311 348.77 158.044 342.28Z" fill="#DBDBDB"/>
<path d="M134.401 370.797C133.862 373.477 133.358 375.978 132.848 378.478C132.315 381.124 131.783 383.77 131.221 386.409C131.163 386.693 130.966 387.026 130.732 387.178C120.06 393.932 109.373 400.664 98.6932 407.397C98.6422 407.432 98.5838 407.466 98.4817 407.445C110.409 395.282 122.336 383.112 134.401 370.797Z" fill="#DBDBDB"/>
<path d="M130.907 360.178C119.695 352.393 108.49 344.607 97.1394 336.725C98.6057 336.538 99.8969 336.365 101.203 336.205C103.741 335.901 106.28 335.63 108.818 335.291C109.314 335.222 109.606 335.312 109.927 335.686C115.595 342.273 121.271 348.853 126.946 355.426C128.288 356.978 129.631 358.53 130.973 360.081C130.951 360.116 130.929 360.15 130.907 360.178Z" fill="#DBDBDB"/>
<path d="M128.303 375.167C123.663 379.891 119.002 384.594 114.421 389.367C113.626 390.198 112.955 390.44 111.787 390.17C107.673 389.228 103.522 388.432 99.3862 387.58C99.3425 387.573 99.3133 387.524 99.2039 387.448C108.913 383.313 118.579 379.198 128.252 375.077C128.266 375.112 128.281 375.139 128.303 375.167Z" fill="#DBDBDB"/>
<path d="M178.397 320.738C183.423 325.822 188.318 330.775 193.212 335.734C193.19 335.776 193.161 335.817 193.139 335.852C188.084 334.037 183.021 332.223 177.901 330.38C178.061 327.228 178.229 324.056 178.397 320.738Z" fill="#DBDBDB"/>
<path d="M60.8777 56.3312C43.09 56.9929 25.3528 57.6549 7.45044 58.3193C23.0594 71.9866 38.5315 85.5362 54.1308 99.1932C54.3439 97.8206 54.5383 96.5783 54.7327 95.336C55.5364 90.2662 56.3415 85.2024 57.1384 80.1343C57.9073 75.2176 58.6407 70.3033 59.4097 65.3866C59.8747 62.3866 60.382 59.3827 60.8777 56.3312Z" fill="#DBDBDB"/>
<path d="M43.9667 112.897C42.5172 113.147 41.1622 113.398 39.8048 113.616C37.8537 113.929 35.8946 114.209 33.9434 114.522C32.8513 114.695 31.766 114.92 30.6695 115.099C29.0868 115.356 27.5029 115.585 25.9191 115.838C24.8447 116.011 23.7794 116.222 22.7106 116.394C21.1501 116.646 19.5829 116.87 18.0224 117.123C16.948 117.296 15.8804 117.497 14.8095 117.684C14.2401 117.783 13.6697 117.878 13.0038 117.991C13.2369 118.658 13.4285 119.251 13.6545 119.84C13.9424 120.587 14.2524 121.328 14.5514 122.072C14.9841 123.148 15.4168 124.223 15.8384 125.301C16.1184 126.016 16.3717 126.741 16.6473 127.461C17.0823 128.571 17.5396 129.675 17.9648 130.791C18.3639 131.826 18.731 132.873 19.1302 133.908C19.5294 134.942 19.9663 135.963 20.3754 136.99C20.6654 137.721 20.9166 138.462 21.2067 139.193C21.6383 140.289 22.0855 141.375 22.5117 142.472C22.7916 143.186 23.035 143.919 23.315 144.634C23.7332 145.698 24.1724 146.752 24.5895 147.812C24.8695 148.526 25.1284 149.25 25.3983 149.972C25.6795 150.715 25.9674 151.462 26.316 152.361C32.2314 139.144 38.0765 126.073 43.9667 112.897Z" fill="#DBDBDB"/>
<path d="M19.7276 115.851C21.4386 115.567 23.1468 115.27 24.8539 114.998C26.873 114.676 28.8912 114.379 30.9103 114.057C32.2768 113.837 33.6385 113.569 35.005 113.349C37.0227 113.021 39.0408 112.724 41.0599 112.402C42.3229 112.201 43.5855 111.969 44.847 111.762C47.0445 111.402 49.2381 111.057 51.4341 110.691C52.8468 110.454 54.2629 110.172 55.6771 109.94C57.6948 109.612 59.7143 109.321 61.732 108.993C63.0713 108.78 64.4058 108.518 65.7519 108.303C67.7982 107.974 69.8421 107.665 71.8816 107.337C73.1242 107.142 74.3527 106.918 75.5939 106.716C77.2097 106.454 78.8269 106.198 80.4427 105.937C80.692 105.895 80.9326 105.817 81.1776 105.758C81.0609 104.925 80.9859 104.144 80.8346 103.376C80.5041 101.696 80.1177 100.022 79.7805 98.3437C79.3742 96.3232 79.002 94.2945 78.6163 92.269C78.2522 90.3326 77.8866 88.3903 77.5158 86.4556C76.9426 83.4255 76.3559 80.3987 75.7911 77.3729C75.701 76.8854 75.6858 76.3797 75.6223 75.7349C75.1959 76.2035 74.8509 76.5329 74.5637 76.8922C73.0618 78.7738 71.5779 80.67 70.076 82.5516C68.3648 84.6981 66.6439 86.8344 64.9244 88.9767C63.6922 90.5159 62.4518 92.0508 61.2114 93.5858C59.2622 95.9978 57.3474 98.4329 55.3157 100.802C54.918 101.27 54.0674 101.477 53.4009 101.759C50.8204 102.854 48.2315 103.943 45.6301 105.011C42.001 106.506 38.3549 107.96 34.7287 109.467C31.4622 110.822 28.2155 112.23 24.9519 113.597C23.2061 114.331 21.4419 115.019 19.6835 115.73C19.7005 115.77 19.7106 115.812 19.7276 115.851Z" fill="#DBDBDB"/>
<path d="M82.3139 104.202C83.1642 102.9 84.0297 101.601 84.8718 100.296C85.3062 99.6238 85.6926 98.9322 86.1271 98.2603C87.5936 95.9974 89.0752 93.7371 90.5417 91.4742C91.8665 89.4282 93.1762 87.3796 94.4942 85.3353C95.8122 83.291 97.1369 81.245 98.4452 79.1905C99.0131 78.2974 99.5495 77.3932 100.16 76.408C92.2757 75.7948 84.4503 75.1861 76.6182 74.579C76.856 75.8795 77.0697 77.1104 77.3105 78.3346C77.7735 80.7059 78.2554 83.0663 78.7183 85.4376C79.0656 87.246 79.3842 89.055 79.7247 90.865C80.0888 92.8013 80.4543 94.7436 80.8184 96.6799C81.169 98.5314 81.5196 100.383 81.8498 102.24C81.9638 102.885 82.0288 103.535 82.1225 104.186C82.1881 104.188 82.2483 104.199 82.3139 104.202Z" fill="#DBDBDB"/>
<path d="M62.1635 56.8409C59.9598 70.7418 57.7619 84.5783 55.5356 98.623C56.517 97.4154 57.3655 96.3722 58.2018 95.3383C60.1845 92.8867 62.1687 90.4411 64.15 87.9836C65.1353 86.7624 66.089 85.5301 67.0675 84.3106C69.042 81.8548 71.0344 79.4134 73.0089 76.9576C73.6116 76.207 74.1536 75.4146 74.799 74.6913C75.2292 74.2092 75.1054 73.8494 74.7981 73.4463C73.2018 71.3638 71.6055 69.2813 70.0213 67.1895C67.4745 63.8103 64.9466 60.4203 62.4066 57.0395C62.3785 56.9835 62.3125 56.9493 62.1635 56.8409Z" fill="#DBDBDB"/>
<path d="M47.4516 48.6209C48.0002 50.8707 48.516 53.0153 49.0658 55.1517C49.1034 55.306 49.4228 55.4923 49.6234 55.4875C53.5902 55.4076 57.5634 55.2947 61.5341 55.2013C62.05 55.1888 62.4419 55.2883 62.7633 55.7194C65.156 58.9097 67.5934 62.0765 70.0172 65.2467C72.0517 67.9142 74.0727 70.5851 76.1126 73.2451C76.2308 73.4049 76.4774 73.5587 76.6838 73.5776C79.0222 73.7373 81.3631 73.8775 83.7696 74.0206C83.4238 73.1049 83.1056 72.214 82.7616 71.3356C82.4191 70.4631 82.0508 69.6032 81.7083 68.7308C81.1568 67.3558 80.612 65.9792 80.0741 64.601C79.5913 63.3602 79.1493 62.1095 78.6597 60.8704C78.1387 59.532 77.5851 58.2079 77.0641 56.8695C76.5871 55.6525 76.1101 54.4355 75.6929 53.1976C75.5619 52.8082 75.3504 52.6207 74.9031 52.5599C70.4104 51.9315 65.9094 51.2988 61.4192 50.651C58.5434 50.2386 55.6807 49.7916 52.8103 49.3716C51.0686 49.1168 49.3244 48.8815 47.4516 48.6209Z" fill="#DBDBDB"/>
<path d="M45.8038 93.8118C35.5618 101.326 25.3996 108.784 15.2388 116.247C15.2597 116.274 15.282 116.306 15.3028 116.332C28.0577 111.023 40.8141 105.719 53.6803 100.364C51.0047 98.1419 48.3911 95.9675 45.8038 93.8118Z" fill="#DBDBDB"/>
<path d="M96.2451 84.8266C100.081 85.0366 103.785 85.2407 107.685 85.4476C105.547 82.4153 103.483 79.4783 101.342 76.4341C99.5985 79.3053 97.9564 82.0009 96.2451 84.8266Z" fill="#DBDBDB"/>
<path d="M832.529 222.476C817.932 209.205 803.416 196.003 788.819 182.731C787.097 197.298 785.39 211.726 783.683 226.189C799.958 224.949 816.167 223.716 832.529 222.476Z" fill="#DBDBDB"/>
<path d="M816.78 205.18C819.092 185.121 821.39 165.179 823.71 145.044C812.257 157.062 800.921 168.941 789.577 180.847C798.652 188.958 807.661 197.021 816.78 205.18Z" fill="#DBDBDB"/>
<path d="M784.449 198.877C774.36 196.217 764.352 193.578 754.132 190.884C763.52 201.98 772.777 212.931 782.129 223.993C782.91 215.57 783.676 207.251 784.449 198.877Z" fill="#DBDBDB"/>
<path d="M822.134 210.514C824.199 212.509 826.125 214.379 828.058 216.242C830.1 218.216 832.135 220.19 834.193 222.143C834.411 222.351 834.783 222.531 835.075 222.531C848.454 222.552 861.833 222.552 875.219 222.559C875.284 222.559 875.357 222.559 875.438 222.483C857.733 218.507 840.036 214.531 822.134 210.514Z" fill="#DBDBDB"/>
<path d="M818.903 199.556C824.126 186.873 829.356 174.184 834.645 161.342C833.244 161.972 832.004 162.519 830.771 163.087C828.364 164.196 825.964 165.331 823.542 166.405C823.068 166.62 822.864 166.848 822.805 167.333C821.74 176.012 820.653 184.684 819.574 193.363C819.318 195.414 819.056 197.457 818.793 199.507C818.83 199.528 818.866 199.542 818.903 199.556Z" fill="#DBDBDB"/>
<path d="M830.085 210.957C836.964 212.495 843.844 214.005 850.708 215.612C851.904 215.889 852.634 215.737 853.502 214.878C856.559 211.858 859.732 208.942 862.861 205.984C862.89 205.956 862.898 205.901 862.941 205.776C851.963 207.473 841.028 209.157 830.085 210.847C830.085 210.888 830.085 210.923 830.085 210.957Z" fill="#DBDBDB"/>
<path d="M753.789 191.432C752.396 198.483 751.031 205.347 749.675 212.218C749.718 212.239 749.769 212.26 749.813 212.281C753.176 208.007 756.546 203.733 759.953 199.404C757.932 196.8 755.904 194.175 753.789 191.432Z" fill="#DBDBDB"/>
<path fill-rule="evenodd" clip-rule="evenodd" d="M325.42 589.532L329.615 617.002L321.882 617.011L322.196 619.662L316.01 616.888L305.843 618.873L325.42 589.532Z" fill="#DBDBDB"/>
<path fill-rule="evenodd" clip-rule="evenodd" d="M325.372 589.606L320.015 617.138L322.171 619.452L322.196 619.662L316.01 616.888L315.765 616.931L324.929 590.268L325.372 589.606Z" fill="#C6C6C6"/>
<path d="M216.875 662.788H175.884V841.358H216.875V662.788Z" fill="#CDCDCD"/>
<path d="M211.19 657.333H181.569V773.322H211.19V657.333Z" fill="#CDCDCD"/>
<path d="M183.039 669.491H180.509V675.988H183.039V669.491Z" fill="white"/>
<path d="M189.11 669.491H186.58V675.988H189.11V669.491Z" fill="white"/>
<path d="M195.181 669.491H192.651V675.988H195.181V669.491Z" fill="white"/>
<path d="M201.252 669.491H198.722V675.988H201.252V669.491Z" fill="white"/>
<path d="M183.039 678.641H180.509V685.137H183.039V678.641Z" fill="white"/>
<path d="M189.11 678.641H186.58V685.137H189.11V678.641Z" fill="white"/>
<path d="M195.181 678.641H192.651V685.137H195.181V678.641Z" fill="white"/>
<path d="M201.252 678.641H198.722V685.137H201.252V678.641Z" fill="white"/>
<path d="M183.039 687.792H180.509V694.289H183.039V687.792Z" fill="white"/>
<path d="M189.11 687.792H186.58V694.289H189.11V687.792Z" fill="white"/>
<path d="M195.181 687.792H192.651V694.289H195.181V687.792Z" fill="white"/>
<path d="M201.252 687.792H198.722V694.289H201.252V687.792Z" fill="white"/>
<path d="M206.173 669.491H203.643V675.988H206.173V669.491Z" fill="white"/>
<path d="M212.244 669.491H209.714V675.988H212.244V669.491Z" fill="white"/>
<path d="M206.173 678.642H203.643V685.138H206.173V678.642Z" fill="white"/>
<path d="M212.244 678.642H209.714V685.138H212.244V678.642Z" fill="white"/>
<path d="M206.173 687.792H203.643V694.289H206.173V687.792Z" fill="white"/>
<path d="M212.244 687.792H209.714V694.289H212.244V687.792Z" fill="white"/>
<path d="M183.039 697.313H180.509V703.81H183.039V697.313Z" fill="white"/>
<path d="M189.11 697.313H186.58V703.81H189.11V697.313Z" fill="white"/>
<path d="M195.181 697.313H192.651V703.81H195.181V697.313Z" fill="white"/>
<path d="M201.252 697.313H198.722V703.81H201.252V697.313Z" fill="white"/>
<path d="M183.039 706.463H180.509V712.959H183.039V706.463Z" fill="white"/>
<path d="M189.11 706.463H186.58V712.959H189.11V706.463Z" fill="white"/>
<path d="M195.181 706.463H192.651V712.959H195.181V706.463Z" fill="white"/>
<path d="M201.252 706.463H198.722V712.959H201.252V706.463Z" fill="white"/>
<path d="M183.039 715.614H180.509V722.111H183.039V715.614Z" fill="white"/>
<path d="M189.11 715.614H186.58V722.111H189.11V715.614Z" fill="white"/>
<path d="M195.181 715.614H192.651V722.111H195.181V715.614Z" fill="white"/>
<path d="M201.252 715.614H198.722V722.111H201.252V715.614Z" fill="white"/>
<path d="M206.173 697.313H203.643V703.81H206.173V697.313Z" fill="white"/>
<path d="M212.244 697.313H209.714V703.81H212.244V697.313Z" fill="white"/>
<path d="M206.173 706.464H203.643V712.961H206.173V706.464Z" fill="white"/>
<path d="M212.244 706.464H209.714V712.961H212.244V706.464Z" fill="white"/>
<path d="M206.173 715.614H203.643V722.111H206.173V715.614Z" fill="white"/>
<path d="M212.244 715.614H209.714V722.111H212.244V715.614Z" fill="white"/>
<path d="M183.039 725.13H180.509V731.626H183.039V725.13Z" fill="white"/>
<path d="M189.11 725.13H186.58V731.626H189.11V725.13Z" fill="white"/>
<path d="M195.181 725.13H192.651V731.626H195.181V725.13Z" fill="white"/>
<path d="M201.252 725.13H198.722V731.626H201.252V725.13Z" fill="white"/>
<path d="M183.039 734.286H180.509V740.783H183.039V734.286Z" fill="white"/>
<path d="M189.11 734.286H186.58V740.783H189.11V734.286Z" fill="white"/>
<path d="M195.181 734.286H192.651V740.783H195.181V734.286Z" fill="white"/>
<path d="M201.252 734.286H198.722V740.783H201.252V734.286Z" fill="white"/>
<path d="M183.039 743.437H180.509V749.933H183.039V743.437Z" fill="white"/>
<path d="M189.11 743.437H186.58V749.933H189.11V743.437Z" fill="white"/>
<path d="M195.181 743.437H192.651V749.933H195.181V743.437Z" fill="white"/>
<path d="M201.252 743.437H198.722V749.933H201.252V743.437Z" fill="white"/>
<path d="M206.173 725.13H203.643V731.626H206.173V725.13Z" fill="white"/>
<path d="M212.244 725.13H209.714V731.626H212.244V725.13Z" fill="white"/>
<path d="M206.173 734.287H203.643V740.784H206.173V734.287Z" fill="white"/>
<path d="M212.244 734.287H209.714V740.784H212.244V734.287Z" fill="white"/>
<path d="M206.173 743.437H203.643V749.933H206.173V743.437Z" fill="white"/>
<path d="M212.244 743.437H209.714V749.933H212.244V743.437Z" fill="white"/>
<path d="M183.039 752.685H180.509V759.181H183.039V752.685Z" fill="white"/>
<path d="M189.11 752.685H186.58V759.181H189.11V752.685Z" fill="white"/>
<path d="M195.181 752.685H192.651V759.181H195.181V752.685Z" fill="white"/>
<path d="M201.252 752.685H198.722V759.181H201.252V752.685Z" fill="white"/>
<path d="M183.039 761.84H180.509V768.336H183.039V761.84Z" fill="white"/>
<path d="M189.11 761.84H186.58V768.336H189.11V761.84Z" fill="white"/>
<path d="M195.181 761.84H192.651V768.336H195.181V761.84Z" fill="white"/>
<path d="M201.252 761.84H198.722V768.336H201.252V761.84Z" fill="white"/>
<path d="M183.039 770.991H180.509V777.488H183.039V770.991Z" fill="white"/>
<path d="M189.11 770.991H186.58V777.488H189.11V770.991Z" fill="white"/>
<path d="M195.181 770.991H192.651V777.488H195.181V770.991Z" fill="white"/>
<path d="M201.252 770.991H198.722V777.488H201.252V770.991Z" fill="white"/>
<path d="M206.173 752.685H203.643V759.181H206.173V752.685Z" fill="white"/>
<path d="M212.244 752.685H209.714V759.181H212.244V752.685Z" fill="white"/>
<path d="M206.173 761.84H203.643V768.336H206.173V761.84Z" fill="white"/>
<path d="M212.244 761.84H209.714V768.336H212.244V761.84Z" fill="white"/>
<path d="M206.173 770.991H203.643V777.488H206.173V770.991Z" fill="white"/>
<path d="M212.244 770.991H209.714V777.488H212.244V770.991Z" fill="white"/>
<path d="M183.039 780.507H180.509V787.003H183.039V780.507Z" fill="white"/>
<path d="M189.11 780.507H186.58V787.003H189.11V780.507Z" fill="white"/>
<path d="M195.181 780.507H192.651V787.003H195.181V780.507Z" fill="white"/>
<path d="M201.252 780.507H198.722V787.003H201.252V780.507Z" fill="white"/>
<path d="M183.039 789.662H180.509V796.159H183.039V789.662Z" fill="white"/>
<path d="M189.11 789.662H186.58V796.159H189.11V789.662Z" fill="white"/>
<path d="M195.181 789.662H192.651V796.159H195.181V789.662Z" fill="white"/>
<path d="M201.252 789.662H198.722V796.159H201.252V789.662Z" fill="white"/>
<path d="M183.039 798.813H180.509V805.31H183.039V798.813Z" fill="white"/>
<path d="M189.11 798.813H186.58V805.31H189.11V798.813Z" fill="white"/>
<path d="M195.181 798.813H192.651V805.31H195.181V798.813Z" fill="white"/>
<path d="M201.252 798.813H198.722V805.31H201.252V798.813Z" fill="white"/>
<path d="M206.173 780.507H203.643V787.003H206.173V780.507Z" fill="white"/>
<path d="M212.244 780.507H209.714V787.003H212.244V780.507Z" fill="white"/>
<path d="M206.173 789.662H203.643V796.159H206.173V789.662Z" fill="white"/>
<path d="M212.244 789.662H209.714V796.159H212.244V789.662Z" fill="white"/>
<path d="M206.173 798.813H203.643V805.31H206.173V798.813Z" fill="white"/>
<path d="M212.244 798.813H209.714V805.31H212.244V798.813Z" fill="white"/>
<path d="M183.039 808.328H180.509V814.825H183.039V808.328Z" fill="white"/>
<path d="M189.11 808.328H186.58V814.825H189.11V808.328Z" fill="white"/>
<path d="M195.181 808.328H192.651V814.825H195.181V808.328Z" fill="white"/>
<path d="M201.252 808.328H198.722V814.825H201.252V808.328Z" fill="white"/>
<path d="M183.039 817.478H180.509V823.974H183.039V817.478Z" fill="white"/>
<path d="M189.11 817.478H186.58V823.974H189.11V817.478Z" fill="white"/>
<path d="M195.181 817.478H192.651V823.974H195.181V817.478Z" fill="white"/>
<path d="M201.252 817.478H198.722V823.974H201.252V817.478Z" fill="white"/>
<path d="M183.039 826.635H180.509V833.131H183.039V826.635Z" fill="white"/>
<path d="M189.11 826.635H186.58V833.131H189.11V826.635Z" fill="white"/>
<path d="M195.181 826.635H192.651V833.131H195.181V826.635Z" fill="white"/>
<path d="M201.252 826.635H198.722V833.131H201.252V826.635Z" fill="white"/>
<path d="M206.173 808.328H203.643V814.825H206.173V808.328Z" fill="white"/>
<path d="M212.244 808.328H209.714V814.825H212.244V808.328Z" fill="white"/>
<path d="M206.173 817.478H203.643V823.974H206.173V817.478Z" fill="white"/>
<path d="M212.244 817.478H209.714V823.974H212.244V817.478Z" fill="white"/>
<path d="M206.173 826.635H203.643V833.132H206.173V826.635Z" fill="white"/>
<path d="M212.244 826.635H209.714V833.132H212.244V826.635Z" fill="white"/>
<path d="M178.904 616.189H109.488V846.413H178.904V616.189Z" fill="#70991D"/>
<path d="M174.301 609.743H114.085V616.189H174.301V609.743Z" fill="#70991D"/>
<path d="M167.935 603.304H120.45V609.75H167.935V603.304Z" fill="#70991D"/>
<path d="M166.069 597.696H122.323V604.142H166.069V597.696Z" fill="#70991D"/>
<path d="M124.87 600.418L122.323 597.697L144.076 577.041L165.953 597.807L159.98 600.92L124.87 600.418Z" fill="#70991D"/>
<path d="M178.904 616.189H109.488V846.413H178.904V616.189Z" fill="#70991D"/>
<path d="M174.301 609.743H114.085V616.189H174.301V609.743Z" fill="#70991D"/>
<path d="M167.935 603.304H120.45V609.75H167.935V603.304Z" fill="#70991D"/>
<path d="M166.069 597.696H122.323V604.142H166.069V597.696Z" fill="#70991D"/>
<path d="M124.87 600.418L122.323 597.697L144.076 577.041L165.953 597.807L159.98 600.92L124.87 600.418Z" fill="#70991D"/>
<path d="M121.249 629.6H116.743V641.163H121.249V629.6Z" fill="white"/>
<path d="M132.058 629.6H127.552V641.163H132.058V629.6Z" fill="white"/>
<path d="M142.867 629.6H138.362V641.163H142.867V629.6Z" fill="white"/>
<path d="M153.67 629.6H149.165V641.163H153.67V629.6Z" fill="white"/>
<path d="M121.249 645.89H116.743V657.453H121.249V645.89Z" fill="white"/>
<path d="M132.058 645.89H127.552V657.453H132.058V645.89Z" fill="white"/>
<path d="M142.867 645.89H138.362V657.453H142.867V645.89Z" fill="white"/>
<path d="M153.67 645.89H149.165V657.453H153.67V645.89Z" fill="white"/>
<path d="M121.249 662.18H116.743V673.743H121.249V662.18Z" fill="white"/>
<path d="M132.058 662.18H127.552V673.743H132.058V662.18Z" fill="white"/>
<path d="M142.867 662.18H138.362V673.743H142.867V662.18Z" fill="white"/>
<path d="M153.67 662.18H149.165V673.743H153.67V662.18Z" fill="white"/>
<path d="M162.43 629.6H157.924V641.163H162.43V629.6Z" fill="white"/>
<path d="M173.239 629.6H168.733V641.163H173.239V629.6Z" fill="white"/>
<path d="M162.43 645.89H157.924V657.453H162.43V645.89Z" fill="white"/>
<path d="M173.239 645.89H168.733V657.453H173.239V645.89Z" fill="white"/>
<path d="M162.43 662.181H157.924V673.744H162.43V662.181Z" fill="white"/>
<path d="M173.239 662.181H168.733V673.744H173.239V662.181Z" fill="white"/>
<path d="M121.028 679.76H116.607V691.106H121.028V679.76Z" fill="white"/>
<path d="M131.634 679.76H127.213V691.106H131.634V679.76Z" fill="white"/>
<path d="M142.24 679.76H137.82V691.106H142.24V679.76Z" fill="white"/>
<path d="M152.841 679.76H148.42V691.106H152.841V679.76Z" fill="white"/>
<path d="M121.028 695.743H116.607V707.089H121.028V695.743Z" fill="white"/>
<path d="M131.634 695.743H127.213V707.089H131.634V695.743Z" fill="white"/>
<path d="M142.24 695.743H137.82V707.089H142.24V695.743Z" fill="white"/>
<path d="M152.841 695.743H148.42V707.089H152.841V695.743Z" fill="white"/>
<path d="M121.028 711.729H116.607V723.075H121.028V711.729Z" fill="white"/>
<path d="M131.634 711.729H127.213V723.075H131.634V711.729Z" fill="white"/>
<path d="M142.24 711.729H137.82V723.075H142.24V711.729Z" fill="white"/>
<path d="M152.841 711.729H148.42V723.075H152.841V711.729Z" fill="white"/>
<path d="M161.435 679.76H157.014V691.106H161.435V679.76Z" fill="white"/>
<path d="M172.041 679.76H167.621V691.106H172.041V679.76Z" fill="white"/>
<path d="M161.435 695.744H157.014V707.09H161.435V695.744Z" fill="white"/>
<path d="M172.041 695.744H167.621V707.09H172.041V695.744Z" fill="white"/>
<path d="M161.435 711.729H157.014V723.075H161.435V711.729Z" fill="white"/>
<path d="M172.041 711.729H167.621V723.075H172.041V711.729Z" fill="white"/>
<path d="M121.249 733.862H116.743V745.426H121.249V733.862Z" fill="white"/>
<path d="M132.058 733.862H127.552V745.426H132.058V733.862Z" fill="white"/>
<path d="M142.867 733.862H138.362V745.426H142.867V733.862Z" fill="white"/>
<path d="M153.67 733.862H149.165V745.426H153.67V733.862Z" fill="white"/>
<path d="M121.249 750.152H116.743V761.716H121.249V750.152Z" fill="white"/>
<path d="M132.058 750.152H127.552V761.716H132.058V750.152Z" fill="white"/>
<path d="M142.867 750.152H138.362V761.716H142.867V750.152Z" fill="white"/>
<path d="M153.67 750.152H149.165V761.716H153.67V750.152Z" fill="white"/>
<path d="M121.249 766.437H116.743V778H121.249V766.437Z" fill="white"/>
<path d="M132.058 766.437H127.552V778H132.058V766.437Z" fill="white"/>
<path d="M142.867 766.437H138.362V778H142.867V766.437Z" fill="white"/>
<path d="M153.67 766.437H149.165V778H153.67V766.437Z" fill="white"/>
<path d="M162.43 733.862H157.924V745.426H162.43V733.862Z" fill="white"/>
<path d="M173.239 733.862H168.733V745.426H173.239V733.862Z" fill="white"/>
<path d="M162.43 750.152H157.924V761.716H162.43V750.152Z" fill="white"/>
<path d="M173.239 750.152H168.733V761.716H173.239V750.152Z" fill="white"/>
<path d="M162.43 766.437H157.924V778H162.43V766.437Z" fill="white"/>
<path d="M173.239 766.437H168.733V778H173.239V766.437Z" fill="white"/>
<path d="M121.028 784.535H116.607V795.881H121.028V784.535Z" fill="white"/>
<path d="M131.634 784.535H127.213V795.881H131.634V784.535Z" fill="white"/>
<path d="M142.24 784.535H137.819V795.881H142.24V784.535Z" fill="white"/>
<path d="M152.84 784.535H148.42V795.881H152.84V784.535Z" fill="white"/>
<path d="M121.028 800.519H116.607V811.865H121.028V800.519Z" fill="white"/>
<path d="M131.634 800.519H127.213V811.865H131.634V800.519Z" fill="white"/>
<path d="M142.24 800.519H137.819V811.865H142.24V800.519Z" fill="white"/>
<path d="M152.84 800.519H148.42V811.865H152.84V800.519Z" fill="white"/>
<path d="M121.028 816.504H116.607V827.85H121.028V816.504Z" fill="white"/>
<path d="M131.634 816.504H127.213V827.85H131.634V816.504Z" fill="white"/>
<path d="M142.24 816.504H137.819V827.85H142.24V816.504Z" fill="white"/>
<path d="M152.84 816.504H148.42V827.85H152.84V816.504Z" fill="white"/>
<path d="M161.435 784.535H157.014V795.881H161.435V784.535Z" fill="white"/>
<path d="M172.041 784.535H167.62V795.881H172.041V784.535Z" fill="white"/>
<path d="M161.435 800.52H157.014V811.866H161.435V800.52Z" fill="white"/>
<path d="M172.041 800.52H167.62V811.866H172.041V800.52Z" fill="white"/>
<path d="M161.435 816.504H157.014V827.85H161.435V816.504Z" fill="white"/>
<path d="M172.041 816.504H167.62V827.85H172.041V816.504Z" fill="white"/>
<path d="M244.412 838.23V615.454L293.775 650.173V841.358H235.07L244.412 838.23Z" fill="#CDCDCD"/>
<path d="M252.79 634.819V833.902H249.676V632.686L252.79 634.819Z" fill="white"/>
<path d="M260.276 639.949V833.902H257.156V637.815L260.276 639.949Z" fill="white"/>
<path d="M267.744 645.061V833.901H264.631V642.928L267.744 645.061Z" fill="white"/>
<path d="M275.231 650.191V833.902H272.111V648.058L275.231 650.191Z" fill="white"/>
<path d="M281.284 654.337V833.902H278.17V652.204L281.284 654.337Z" fill="white"/>
<path d="M288.77 659.467V833.902H285.65V657.334L288.77 659.467Z" fill="white"/>
<path d="M529.905 843.549V622.843L480 657.239V846.648H539.349L529.905 843.549Z" fill="#CDCDCD"/>
<path d="M521.491 642.368V841.451H524.605V640.235L521.491 642.368Z" fill="white"/>
<path d="M514.005 647.498V841.452H517.125V645.365L514.005 647.498Z" fill="white"/>
<path d="M506.537 652.611V841.451H509.651V650.478L506.537 652.611Z" fill="white"/>
<path d="M499.05 657.741V841.451H502.17V655.607L499.05 657.741Z" fill="white"/>
<path d="M492.997 661.887V841.452H496.111V659.754L492.997 661.887Z" fill="white"/>
<path d="M485.511 667.017V841.452H488.631V664.884L485.511 667.017Z" fill="white"/>
<path d="M80.8793 787.395C80.8793 787.395 64.7441 774.487 75.5973 760.082C80.8793 753.025 86.7456 753.025 91.7325 753.322C91.7325 753.322 87.3418 739.117 98.1589 731.339C102.369 728.308 107.723 727.399 112.831 728.308C118.673 729.349 125.575 732.511 127.526 750.085C127.526 750.085 142.782 751.847 146.3 767.43C149.817 783.008 141.313 783.306 138.964 786.245C138.964 786.245 142.776 806.072 114.619 813.061C114.613 813.061 73.8386 818.751 80.8793 787.395Z" fill="#409D2F"/>
<path d="M107.627 841.489L108.759 787.246L109.109 770.427L111.578 841.489H107.627Z" fill="#2D8C44"/>
<path d="M109.193 789.138L108.988 788.904L96.6892 774.63L109.193 784.689V797.299L119.805 786.748L109.602 801.422" fill="#2D8C44"/>
<path d="M363.999 680.776H309.89V838.364H363.999V680.776Z" fill="#CDCDCD"/>
<path d="M359.584 670.717H314.31V680.776H359.584V670.717Z" fill="#CDCDCD"/>
<path d="M351.122 660.795H322.766V670.717H351.122V660.795Z" fill="#CDCDCD"/>
<path d="M320.167 689.395H317.041V697.429H320.167V689.395Z" fill="white"/>
<path d="M327.678 689.395H324.552V697.429H327.678V689.395Z" fill="white"/>
<path d="M335.182 689.395H332.056V697.429H335.182V689.395Z" fill="white"/>
<path d="M342.693 689.395H339.567V697.429H342.693V689.395Z" fill="white"/>
<path d="M320.167 700.712H317.041V708.747H320.167V700.712Z" fill="white"/>
<path d="M327.678 700.712H324.552V708.747H327.678V700.712Z" fill="white"/>
<path d="M335.182 700.712H332.056V708.747H335.182V700.712Z" fill="white"/>
<path d="M342.693 700.712H339.567V708.747H342.693V700.712Z" fill="white"/>
<path d="M320.167 712.03H317.041V720.065H320.167V712.03Z" fill="white"/>
<path d="M327.678 712.03H324.552V720.065H327.678V712.03Z" fill="white"/>
<path d="M335.182 712.03H332.056V720.065H335.182V712.03Z" fill="white"/>
<path d="M342.693 712.03H339.567V720.065H342.693V712.03Z" fill="white"/>
<path d="M348.776 689.395H345.65V697.429H348.776V689.395Z" fill="white"/>
<path d="M356.286 689.395H353.16V697.429H356.286V689.395Z" fill="white"/>
<path d="M348.776 700.712H345.65V708.747H348.776V700.712Z" fill="white"/>
<path d="M356.286 700.712H353.16V708.747H356.286V700.712Z" fill="white"/>
<path d="M348.776 712.03H345.65V720.065H348.776V712.03Z" fill="white"/>
<path d="M356.286 712.03H353.16V720.065H356.286V712.03Z" fill="white"/>
<path d="M320.167 723.794H317.041V731.829H320.167V723.794Z" fill="white"/>
<path d="M327.678 723.794H324.552V731.829H327.678V723.794Z" fill="white"/>
<path d="M335.182 723.794H332.056V731.829H335.182V723.794Z" fill="white"/>
<path d="M342.693 723.794H339.567V731.829H342.693V723.794Z" fill="white"/>
<path d="M320.167 735.111H317.041V743.146H320.167V735.111Z" fill="white"/>
<path d="M327.678 735.111H324.552V743.146H327.678V735.111Z" fill="white"/>
<path d="M335.182 735.111H332.056V743.146H335.182V735.111Z" fill="white"/>
<path d="M342.693 735.111H339.567V743.146H342.693V735.111Z" fill="white"/>
<path d="M320.167 746.43H317.041V754.465H320.167V746.43Z" fill="white"/>
<path d="M327.678 746.43H324.552V754.465H327.678V746.43Z" fill="white"/>
<path d="M335.182 746.43H332.056V754.465H335.182V746.43Z" fill="white"/>
<path d="M342.693 746.43H339.567V754.465H342.693V746.43Z" fill="white"/>
<path d="M348.776 723.794H345.65V731.829H348.776V723.794Z" fill="white"/>
<path d="M356.286 723.794H353.16V731.829H356.286V723.794Z" fill="white"/>
<path d="M348.776 735.111H345.65V743.146H348.776V735.111Z" fill="white"/>
<path d="M356.286 735.111H353.16V743.146H356.286V735.111Z" fill="white"/>
<path d="M348.776 746.43H345.65V754.465H348.776V746.43Z" fill="white"/>
<path d="M356.286 746.43H353.16V754.465H356.286V746.43Z" fill="white"/>
<path d="M320.167 758.198H317.041V766.233H320.167V758.198Z" fill="white"/>
<path d="M327.678 758.198H324.552V766.233H327.678V758.198Z" fill="white"/>
<path d="M335.182 758.198H332.056V766.233H335.182V758.198Z" fill="white"/>
<path d="M342.693 758.198H339.567V766.233H342.693V758.198Z" fill="white"/>
<path d="M320.167 769.517H317.041V777.551H320.167V769.517Z" fill="white"/>
<path d="M327.678 769.517H324.552V777.551H327.678V769.517Z" fill="white"/>
<path d="M335.182 769.517H332.056V777.551H335.182V769.517Z" fill="white"/>
<path d="M342.693 769.517H339.567V777.551H342.693V769.517Z" fill="white"/>
<path d="M320.167 780.834H317.041V788.869H320.167V780.834Z" fill="white"/>
<path d="M327.678 780.834H324.552V788.869H327.678V780.834Z" fill="white"/>
<path d="M335.182 780.834H332.056V788.869H335.182V780.834Z" fill="white"/>
<path d="M342.693 780.834H339.567V788.869H342.693V780.834Z" fill="white"/>
<path d="M348.776 758.198H345.65V766.233H348.776V758.198Z" fill="white"/>
<path d="M356.286 758.198H353.16V766.233H356.286V758.198Z" fill="white"/>
<path d="M348.776 769.517H345.65V777.552H348.776V769.517Z" fill="white"/>
<path d="M356.286 769.517H353.16V777.552H356.286V769.517Z" fill="white"/>
<path d="M348.776 780.834H345.65V788.869H348.776V780.834Z" fill="white"/>
<path d="M356.286 780.834H353.16V788.869H356.286V780.834Z" fill="white"/>
<path d="M419.4 690.656H369.711V841.358H419.4V690.656Z" fill="#E0E0E0"/>
<path d="M415.34 681.037H390.322V690.656H415.34V681.037Z" fill="#E0E0E0"/>
<path d="M379.408 697.105H376.535V704.792H379.408V697.105Z" fill="white"/>
<path d="M386.304 697.105H383.431V704.792H386.304V697.105Z" fill="white"/>
<path d="M393.194 697.105H390.322V704.792H393.194V697.105Z" fill="white"/>
<path d="M400.091 697.105H397.218V704.792H400.091V697.105Z" fill="white"/>
<path d="M379.408 707.931H376.535V715.617H379.408V707.931Z" fill="white"/>
<path d="M386.304 707.931H383.431V715.617H386.304V707.931Z" fill="white"/>
<path d="M393.194 707.931H390.322V715.617H393.194V707.931Z" fill="white"/>
<path d="M400.091 707.931H397.218V715.617H400.091V707.931Z" fill="white"/>
<path d="M379.408 718.751H376.535V726.437H379.408V718.751Z" fill="white"/>
<path d="M386.304 718.751H383.431V726.437H386.304V718.751Z" fill="white"/>
<path d="M393.194 718.751H390.322V726.437H393.194V718.751Z" fill="white"/>
<path d="M400.091 718.751H397.218V726.437H400.091V718.751Z" fill="white"/>
<path d="M405.68 697.105H402.807V704.792H405.68V697.105Z" fill="white"/>
<path d="M412.576 697.105H409.703V704.792H412.576V697.105Z" fill="white"/>
<path d="M405.68 707.931H402.807V715.617H405.68V707.931Z" fill="white"/>
<path d="M412.576 707.931H409.703V715.617H412.576V707.931Z" fill="white"/>
<path d="M405.68 718.752H402.807V726.438H405.68V718.752Z" fill="white"/>
<path d="M412.576 718.752H409.703V726.438H412.576V718.752Z" fill="white"/>
<path d="M379.408 730.007H376.535V737.693H379.408V730.007Z" fill="white"/>
<path d="M386.304 730.007H383.431V737.693H386.304V730.007Z" fill="white"/>
<path d="M393.194 730.007H390.322V737.693H393.194V730.007Z" fill="white"/>
<path d="M400.091 730.007H397.218V737.693H400.091V730.007Z" fill="white"/>
<path d="M379.408 740.827H376.535V748.513H379.408V740.827Z" fill="white"/>
<path d="M386.304 740.827H383.431V748.513H386.304V740.827Z" fill="white"/>
<path d="M393.194 740.827H390.322V748.513H393.194V740.827Z" fill="white"/>
<path d="M400.091 740.827H397.218V748.513H400.091V740.827Z" fill="white"/>
<path d="M379.408 751.653H376.535V759.339H379.408V751.653Z" fill="white"/>
<path d="M386.304 751.653H383.431V759.339H386.304V751.653Z" fill="white"/>
<path d="M393.194 751.653H390.322V759.339H393.194V751.653Z" fill="white"/>
<path d="M400.091 751.653H397.218V759.339H400.091V751.653Z" fill="white"/>
<path d="M405.68 730.007H402.807V737.693H405.68V730.007Z" fill="white"/>
<path d="M412.576 730.007H409.703V737.693H412.576V730.007Z" fill="white"/>
<path d="M405.68 740.827H402.807V748.513H405.68V740.827Z" fill="white"/>
<path d="M412.576 740.827H409.703V748.513H412.576V740.827Z" fill="white"/>
<path d="M405.68 751.652H402.807V759.338H405.68V751.652Z" fill="white"/>
<path d="M412.576 751.652H409.703V759.338H412.576V751.652Z" fill="white"/>
<path d="M379.408 762.905H376.535V770.591H379.408V762.905Z" fill="white"/>
<path d="M386.304 762.905H383.431V770.591H386.304V762.905Z" fill="white"/>
<path d="M393.194 762.905H390.322V770.591H393.194V762.905Z" fill="white"/>
<path d="M400.091 762.905H397.218V770.591H400.091V762.905Z" fill="white"/>
<path d="M379.408 773.726H376.535V781.412H379.408V773.726Z" fill="white"/>
<path d="M386.304 773.726H383.431V781.412H386.304V773.726Z" fill="white"/>
<path d="M393.194 773.726H390.322V781.412H393.194V773.726Z" fill="white"/>
<path d="M400.091 773.726H397.218V781.412H400.091V773.726Z" fill="white"/>
<path d="M379.408 784.545H376.535V792.231H379.408V784.545Z" fill="white"/>
<path d="M386.304 784.545H383.431V792.231H386.304V784.545Z" fill="white"/>
<path d="M393.194 784.545H390.322V792.231H393.194V784.545Z" fill="white"/>
<path d="M400.091 784.545H397.218V792.231H400.091V784.545Z" fill="white"/>
<path d="M405.68 762.905H402.807V770.591H405.68V762.905Z" fill="white"/>
<path d="M412.576 762.905H409.703V770.591H412.576V762.905Z" fill="white"/>
<path d="M405.68 773.727H402.807V781.413H405.68V773.727Z" fill="white"/>
<path d="M412.576 773.727H409.703V781.413H412.576V773.727Z" fill="white"/>
<path d="M405.68 784.546H402.807V792.232H405.68V784.546Z" fill="white"/>
<path d="M412.576 784.546H409.703V792.232H412.576V784.546Z" fill="white"/>
<path d="M256.241 755.062H251.278V792.428H256.241V755.062Z" fill="#70991D"/>
<path d="M235.068 764.288V765.878H254.745V764.288H235.068Z" fill="#70991D"/>
<path d="M235.074 783.139V784.729H254.75V783.139H235.074Z" fill="#70991D"/>
<path d="M248.441 738.413H190.26V841.352H248.441V738.413Z" fill="#76B649"/>
<path d="M198.945 748.13H195.079V758.063H198.945V748.13Z" fill="white"/>
<path d="M208.233 748.13H204.366V758.064H208.233V748.13Z" fill="white"/>
<path d="M217.52 748.13H213.653V758.064H217.52V748.13Z" fill="white"/>
<path d="M226.801 748.13H222.934V758.064H226.801V748.13Z" fill="white"/>
<path d="M198.945 762.123H195.079V772.057H198.945V762.123Z" fill="white"/>
<path d="M208.233 762.123H204.366V772.057H208.233V762.123Z" fill="white"/>
<path d="M217.52 762.123H213.653V772.057H217.52V762.123Z" fill="white"/>
<path d="M226.801 762.123H222.934V772.057H226.801V762.123Z" fill="white"/>
<path d="M198.945 776.117H195.079V786.051H198.945V776.117Z" fill="white"/>
<path d="M208.233 776.117H204.366V786.051H208.233V776.117Z" fill="white"/>
<path d="M217.52 776.117H213.653V786.051H217.52V776.117Z" fill="white"/>
<path d="M226.801 776.117H222.934V786.051H226.801V776.117Z" fill="white"/>
<path d="M234.324 748.13H230.457V758.064H234.324V748.13Z" fill="white"/>
<path d="M243.611 748.13H239.744V758.064H243.611V748.13Z" fill="white"/>
<path d="M234.324 762.123H230.457V772.057H234.324V762.123Z" fill="white"/>
<path d="M243.611 762.123H239.744V772.057H243.611V762.123Z" fill="white"/>
<path d="M234.324 776.117H230.457V786.051H234.324V776.117Z" fill="white"/>
<path d="M243.611 776.117H239.744V786.051H243.611V776.117Z" fill="white"/>
<path d="M198.945 792.908H195.079V802.842H198.945V792.908Z" fill="white"/>
<path d="M208.233 792.908H204.366V802.842H208.233V792.908Z" fill="white"/>
<path d="M217.52 792.908H213.653V802.842H217.52V792.908Z" fill="white"/>
<path d="M226.801 792.908H222.934V802.842H226.801V792.908Z" fill="white"/>
<path d="M198.945 806.901H195.079V816.835H198.945V806.901Z" fill="white"/>
<path d="M208.233 806.901H204.366V816.835H208.233V806.901Z" fill="white"/>
<path d="M217.52 806.901H213.653V816.835H217.52V806.901Z" fill="white"/>
<path d="M226.801 806.901H222.934V816.835H226.801V806.901Z" fill="white"/>
<path d="M234.324 792.908H230.457V802.842H234.324V792.908Z" fill="white"/>
<path d="M243.611 792.908H239.744V802.842H243.611V792.908Z" fill="white"/>
<path d="M234.324 806.901H230.457V816.835H234.324V806.901Z" fill="white"/>
<path d="M243.611 806.901H239.744V816.835H243.611V806.901Z" fill="white"/>
<path d="M326.236 764.979H265.958V841.584H326.236V764.979Z" fill="#409D2F"/>
<path d="M278.033 772.338H274.829V780.573H278.033V772.338Z" fill="white"/>
<path d="M285.73 772.338H282.526V780.573H285.73V772.338Z" fill="white"/>
<path d="M293.421 772.338H290.217V780.573H293.421V772.338Z" fill="white"/>
<path d="M301.118 772.338H297.914V780.573H301.118V772.338Z" fill="white"/>
<path d="M278.033 783.936H274.829V792.171H278.033V783.936Z" fill="white"/>
<path d="M285.73 783.936H282.526V792.171H285.73V783.936Z" fill="white"/>
<path d="M293.421 783.936H290.217V792.171H293.421V783.936Z" fill="white"/>
<path d="M301.118 783.936H297.914V792.171H301.118V783.936Z" fill="white"/>
<path d="M278.033 795.534H274.829V803.769H278.033V795.534Z" fill="white"/>
<path d="M285.73 795.534H282.526V803.769H285.73V795.534Z" fill="white"/>
<path d="M293.421 795.534H290.217V803.769H293.421V795.534Z" fill="white"/>
<path d="M301.118 795.534H297.914V803.769H301.118V795.534Z" fill="white"/>
<path d="M307.352 772.338H304.148V780.573H307.352V772.338Z" fill="white"/>
<path d="M315.043 772.338H311.839V780.573H315.043V772.338Z" fill="white"/>
<path d="M307.352 783.936H304.148V792.171H307.352V783.936Z" fill="white"/>
<path d="M315.043 783.936H311.839V792.171H315.043V783.936Z" fill="white"/>
<path d="M307.352 795.534H304.148V803.769H307.352V795.534Z" fill="white"/>
<path d="M315.043 795.534H311.839V803.769H315.043V795.534Z" fill="white"/>
<path d="M278.033 807.588H274.829V815.823H278.033V807.588Z" fill="white"/>
<path d="M285.73 807.588H282.526V815.823H285.73V807.588Z" fill="white"/>
<path d="M293.421 807.588H290.217V815.823H293.421V807.588Z" fill="white"/>
<path d="M301.118 807.588H297.914V815.823H301.118V807.588Z" fill="white"/>
<path d="M278.033 819.186H274.829V827.421H278.033V819.186Z" fill="white"/>
<path d="M285.73 819.186H282.526V827.421H285.73V819.186Z" fill="white"/>
<path d="M293.421 819.186H290.217V827.421H293.421V819.186Z" fill="white"/>
<path d="M301.118 819.186H297.914V827.421H301.118V819.186Z" fill="white"/>
<path d="M307.352 807.588H304.148V815.823H307.352V807.588Z" fill="white"/>
<path d="M315.043 807.588H311.839V815.823H315.043V807.588Z" fill="white"/>
<path d="M307.352 819.186H304.148V827.421H307.352V819.186Z" fill="white"/>
<path d="M315.043 819.186H311.839V827.421H315.043V819.186Z" fill="white"/>
<path d="M618.482 721.08H570.35V840.403H618.482V721.08Z" fill="#E0E0E0"/>
<path d="M614.557 713.467H590.321V721.079H614.557V713.467Z" fill="#E0E0E0"/>
<path d="M579.749 726.187H576.963V732.271H579.749V726.187Z" fill="white"/>
<path d="M586.423 726.187H583.638V732.271H586.423V726.187Z" fill="white"/>
<path d="M593.106 726.187H590.321V732.271H593.106V726.187Z" fill="white"/>
<path d="M599.789 726.187H597.004V732.271H599.789V726.187Z" fill="white"/>
<path d="M579.749 734.754H576.963V740.839H579.749V734.754Z" fill="white"/>
<path d="M586.423 734.754H583.638V740.839H586.423V734.754Z" fill="white"/>
<path d="M593.106 734.754H590.321V740.839H593.106V734.754Z" fill="white"/>
<path d="M599.789 734.754H597.004V740.839H599.789V734.754Z" fill="white"/>
<path d="M579.749 743.329H576.963V749.414H579.749V743.329Z" fill="white"/>
<path d="M586.423 743.329H583.638V749.414H586.423V743.329Z" fill="white"/>
<path d="M593.106 743.329H590.321V749.414H593.106V743.329Z" fill="white"/>
<path d="M599.789 743.329H597.004V749.414H599.789V743.329Z" fill="white"/>
<path d="M605.194 726.187H602.409V732.271H605.194V726.187Z" fill="white"/>
<path d="M611.877 726.187H609.092V732.271H611.877V726.187Z" fill="white"/>
<path d="M605.194 734.755H602.409V740.84H605.194V734.755Z" fill="white"/>
<path d="M611.877 734.755H609.092V740.84H611.877V734.755Z" fill="white"/>
<path d="M605.194 743.33H602.409V749.415H605.194V743.33Z" fill="white"/>
<path d="M611.877 743.33H609.092V749.415H611.877V743.33Z" fill="white"/>
<path d="M579.749 752.236H576.963V758.321H579.749V752.236Z" fill="white"/>
<path d="M586.423 752.236H583.638V758.321H586.423V752.236Z" fill="white"/>
<path d="M593.106 752.236H590.321V758.321H593.106V752.236Z" fill="white"/>
<path d="M599.789 752.236H597.004V758.321H599.789V752.236Z" fill="white"/>
<path d="M579.749 760.804H576.963V766.888H579.749V760.804Z" fill="white"/>
<path d="M586.423 760.804H583.638V766.888H586.423V760.804Z" fill="white"/>
<path d="M593.106 760.804H590.321V766.888H593.106V760.804Z" fill="white"/>
<path d="M599.789 760.804H597.004V766.888H599.789V760.804Z" fill="white"/>
<path d="M579.749 769.372H576.963V775.457H579.749V769.372Z" fill="white"/>
<path d="M586.423 769.372H583.638V775.457H586.423V769.372Z" fill="white"/>
<path d="M593.106 769.372H590.321V775.457H593.106V769.372Z" fill="white"/>
<path d="M599.789 769.372H597.004V775.457H599.789V769.372Z" fill="white"/>
<path d="M605.194 752.236H602.409V758.321H605.194V752.236Z" fill="white"/>
<path d="M611.877 752.236H609.092V758.321H611.877V752.236Z" fill="white"/>
<path d="M605.194 760.806H602.409V766.89H605.194V760.806Z" fill="white"/>
<path d="M611.877 760.806H609.092V766.89H611.877V760.806Z" fill="white"/>
<path d="M605.194 769.372H602.409V775.457H605.194V769.372Z" fill="white"/>
<path d="M611.877 769.372H609.092V775.457H611.877V769.372Z" fill="white"/>
<path d="M579.749 778.284H576.963V784.369H579.749V778.284Z" fill="white"/>
<path d="M586.423 778.284H583.638V784.369H586.423V778.284Z" fill="white"/>
<path d="M593.106 778.284H590.321V784.369H593.106V778.284Z" fill="white"/>
<path d="M599.789 778.284H597.004V784.369H599.789V778.284Z" fill="white"/>
<path d="M579.749 786.852H576.963V792.936H579.749V786.852Z" fill="white"/>
<path d="M586.423 786.852H583.638V792.936H586.423V786.852Z" fill="white"/>
<path d="M593.106 786.852H590.321V792.936H593.106V786.852Z" fill="white"/>
<path d="M599.789 786.852H597.004V792.936H599.789V786.852Z" fill="white"/>
<path d="M579.749 795.42H576.963V801.505H579.749V795.42Z" fill="white"/>
<path d="M586.423 795.42H583.638V801.505H586.423V795.42Z" fill="white"/>
<path d="M593.106 795.42H590.321V801.505H593.106V795.42Z" fill="white"/>
<path d="M599.789 795.42H597.004V801.505H599.789V795.42Z" fill="white"/>
<path d="M605.194 778.284H602.409V784.369H605.194V778.284Z" fill="white"/>
<path d="M611.877 778.284H609.092V784.369H611.877V778.284Z" fill="white"/>
<path d="M605.194 786.854H602.409V792.938H605.194V786.854Z" fill="white"/>
<path d="M611.877 786.854H609.092V792.938H611.877V786.854Z" fill="white"/>
<path d="M605.194 795.42H602.409V801.505H605.194V795.42Z" fill="white"/>
<path d="M611.877 795.42H609.092V801.505H611.877V795.42Z" fill="white"/>
<path d="M741.833 658.069V841.728H689.284V622.843L741.833 658.069Z" fill="#409E2F"/>
<path d="M698.208 643.454V841.728H694.887V641.184L698.208 643.454Z" fill="white"/>
<path d="M706.17 648.914V841.728H702.856V646.644L706.17 648.914Z" fill="white"/>
<path d="M714.119 654.362V841.728H710.805V652.092L714.119 654.362Z" fill="white"/>
<path d="M722.088 659.815V841.727H718.767V657.545L722.088 659.815Z" fill="white"/>
<path d="M728.537 664.228V841.727H725.216V661.958L728.537 664.228Z" fill="white"/>
<path d="M736.499 669.689V841.728H733.185V667.419L736.499 669.689Z" fill="white"/>
<path d="M620.564 799.806H587.245V841.444H620.564V799.806Z" fill="#76B649"/>
<path d="M584.185 755.65H541.432V841.679H584.185V755.65Z" fill="#76B649"/>
<path d="M552.24 766.735H548.887V775.343H552.24V766.735Z" fill="white"/>
<path d="M560.285 766.735H556.933V775.343H560.285V766.735Z" fill="white"/>
<path d="M568.337 766.735H564.985V775.343H568.337V766.735Z" fill="white"/>
<path d="M576.383 766.735H573.03V775.343H576.383V766.735Z" fill="white"/>
<path d="M552.24 778.86H548.887V787.468H552.24V778.86Z" fill="white"/>
<path d="M560.285 778.86H556.933V787.468H560.285V778.86Z" fill="white"/>
<path d="M568.337 778.86H564.985V787.468H568.337V778.86Z" fill="white"/>
<path d="M576.383 778.86H573.03V787.468H576.383V778.86Z" fill="white"/>
<path d="M552.24 790.986H548.887V799.593H552.24V790.986Z" fill="white"/>
<path d="M560.285 790.986H556.933V799.593H560.285V790.986Z" fill="white"/>
<path d="M568.337 790.986H564.985V799.593H568.337V790.986Z" fill="white"/>
<path d="M576.383 790.986H573.03V799.593H576.383V790.986Z" fill="white"/>
<path d="M552.24 803.111H548.887V811.719H552.24V803.111Z" fill="white"/>
<path d="M560.285 803.111H556.933V811.719H560.285V803.111Z" fill="white"/>
<path d="M568.337 803.111H564.985V811.719H568.337V803.111Z" fill="white"/>
<path d="M576.383 803.111H573.03V811.719H576.383V803.111Z" fill="white"/>
<path d="M552.24 816.205H548.887V824.812H552.24V816.205Z" fill="white"/>
<path d="M560.285 816.205H556.933V824.812H560.285V816.205Z" fill="white"/>
<path d="M568.337 816.205H564.985V824.812H568.337V816.205Z" fill="white"/>
<path d="M576.383 816.205H573.03V824.812H576.383V816.205Z" fill="white"/>
<path d="M552.24 828.33H548.887V836.937H552.24V828.33Z" fill="white"/>
<path d="M560.285 828.33H556.933V836.937H560.285V828.33Z" fill="white"/>
<path d="M568.337 828.33H564.985V836.937H568.337V828.33Z" fill="white"/>
<path d="M576.383 828.33H573.03V836.937H576.383V828.33Z" fill="white"/>
<path d="M592.68 811.256H589.327V819.863H592.68V811.256Z" fill="white"/>
<path d="M600.726 811.256H597.373V819.863H600.726V811.256Z" fill="white"/>
<path d="M608.771 811.256H605.418V819.863H608.771V811.256Z" fill="white"/>
<path d="M616.816 811.256H613.464V819.863H616.816V811.256Z" fill="white"/>
<path d="M592.68 823.388H589.327V831.995H592.68V823.388Z" fill="white"/>
<path d="M600.726 823.388H597.373V831.995H600.726V823.388Z" fill="white"/>
<path d="M608.771 823.388H605.418V831.995H608.771V823.388Z" fill="white"/>
<path d="M616.816 823.388H613.464V831.995H616.816V823.388Z" fill="white"/>
<path d="M721.505 792.283C721.505 792.283 704.87 779.671 716.063 765.597C721.505 758.701 727.557 758.701 732.699 758.993C732.699 758.993 728.166 745.114 739.321 737.512C743.667 734.553 749.187 733.665 754.45 734.553C760.476 735.57 767.592 738.662 769.605 755.834C769.605 755.834 785.337 757.556 788.965 772.78C792.594 788.004 783.824 788.29 781.401 791.163C781.401 791.163 785.33 810.532 756.29 817.368C756.296 817.368 714.248 822.925 721.505 792.283Z" fill="#409D2F"/>
<path d="M749.278 845.891L750.444 792.885L750.803 776.456L753.348 845.891H749.278Z" fill="#2D8C44"/>
<path d="M750.887 794.742L750.675 794.511L737.995 780.565L750.887 790.39V802.716L761.83 792.405L751.31 806.74" fill="#2D8C44"/>
<path d="M682.322 674.298H624.729V842.033H682.322V674.298Z" fill="#80BA25"/>
<path d="M677.63 663.592H629.441V674.299H677.63V663.592Z" fill="#80BA25"/>
<path d="M668.623 653.03H638.441V663.591H668.623V653.03Z" fill="#80BA25"/>
<path d="M635.973 681.481H632.646V690.034H635.973V681.481Z" fill="white"/>
<path d="M643.96 681.481H640.633V690.034H643.96V681.481Z" fill="white"/>
<path d="M651.955 681.481H648.628V690.034H651.955V681.481Z" fill="white"/>
<path d="M659.949 681.481H656.622V690.034H659.949V681.481Z" fill="white"/>
<path d="M635.973 693.527H632.646V702.08H635.973V693.527Z" fill="white"/>
<path d="M643.96 693.527H640.633V702.08H643.96V693.527Z" fill="white"/>
<path d="M651.955 693.527H648.628V702.08H651.955V693.527Z" fill="white"/>
<path d="M659.949 693.527H656.622V702.08H659.949V693.527Z" fill="white"/>
<path d="M635.973 705.574H632.646V714.127H635.973V705.574Z" fill="white"/>
<path d="M643.96 705.574H640.633V714.127H643.96V705.574Z" fill="white"/>
<path d="M651.955 705.574H648.628V714.127H651.955V705.574Z" fill="white"/>
<path d="M659.949 705.574H656.622V714.127H659.949V705.574Z" fill="white"/>
<path d="M666.424 681.481H663.097V690.034H666.424V681.481Z" fill="white"/>
<path d="M674.418 681.481H671.091V690.034H674.418V681.481Z" fill="white"/>
<path d="M666.424 693.527H663.097V702.08H666.424V693.527Z" fill="white"/>
<path d="M674.418 693.527H671.091V702.08H674.418V693.527Z" fill="white"/>
<path d="M666.424 705.574H663.097V714.127H666.424V705.574Z" fill="white"/>
<path d="M674.418 705.574H671.091V714.127H674.418V705.574Z" fill="white"/>
<path d="M635.973 718.102H632.646V726.654H635.973V718.102Z" fill="white"/>
<path d="M643.96 718.102H640.633V726.654H643.96V718.102Z" fill="white"/>
<path d="M651.955 718.102H648.628V726.654H651.955V718.102Z" fill="white"/>
<path d="M659.949 718.102H656.622V726.654H659.949V718.102Z" fill="white"/>
<path d="M635.973 730.147H632.646V738.7H635.973V730.147Z" fill="white"/>
<path d="M643.96 730.147H640.633V738.7H643.96V730.147Z" fill="white"/>
<path d="M651.955 730.147H648.628V738.7H651.955V730.147Z" fill="white"/>
<path d="M659.949 730.147H656.622V738.7H659.949V730.147Z" fill="white"/>
<path d="M635.973 742.194H632.646V750.747H635.973V742.194Z" fill="white"/>
<path d="M643.96 742.194H640.633V750.747H643.96V742.194Z" fill="white"/>
<path d="M651.955 742.194H648.628V750.747H651.955V742.194Z" fill="white"/>
<path d="M659.949 742.194H656.622V750.747H659.949V742.194Z" fill="white"/>
<path d="M666.424 718.102H663.097V726.654H666.424V718.102Z" fill="white"/>
<path d="M674.418 718.102H671.091V726.654H674.418V718.102Z" fill="white"/>
<path d="M666.424 730.147H663.097V738.7H666.424V730.147Z" fill="white"/>
<path d="M674.418 730.147H671.091V738.7H674.418V730.147Z" fill="white"/>
<path d="M666.424 742.194H663.097V750.747H666.424V742.194Z" fill="white"/>
<path d="M674.418 742.194H671.091V750.747H674.418V742.194Z" fill="white"/>
<path d="M635.973 754.715H632.646V763.267H635.973V754.715Z" fill="white"/>
<path d="M643.96 754.715H640.633V763.267H643.96V754.715Z" fill="white"/>
<path d="M651.955 754.715H648.628V763.267H651.955V754.715Z" fill="white"/>
<path d="M659.949 754.715H656.622V763.267H659.949V754.715Z" fill="white"/>
<path d="M635.973 766.761H632.646V775.313H635.973V766.761Z" fill="white"/>
<path d="M643.96 766.761H640.633V775.313H643.96V766.761Z" fill="white"/>
<path d="M651.955 766.761H648.628V775.313H651.955V766.761Z" fill="white"/>
<path d="M659.949 766.761H656.622V775.313H659.949V766.761Z" fill="white"/>
<path d="M635.973 778.808H632.646V787.36H635.973V778.808Z" fill="white"/>
<path d="M643.96 778.808H640.633V787.36H643.96V778.808Z" fill="white"/>
<path d="M651.955 778.808H648.628V787.36H651.955V778.808Z" fill="white"/>
<path d="M659.949 778.808H656.622V787.36H659.949V778.808Z" fill="white"/>
<path d="M666.424 754.715H663.097V763.267H666.424V754.715Z" fill="white"/>
<path d="M674.418 754.715H671.091V763.267H674.418V754.715Z" fill="white"/>
<path d="M666.424 766.761H663.097V775.313H666.424V766.761Z" fill="white"/>
<path d="M674.418 766.761H671.091V775.313H674.418V766.761Z" fill="white"/>
<path d="M666.424 778.808H663.097V787.36H666.424V778.808Z" fill="white"/>
<path d="M674.418 778.808H671.091V787.36H674.418V778.808Z" fill="white"/>
<path d="M635.973 791.353H632.646V799.905H635.973V791.353Z" fill="white"/>
<path d="M643.961 791.353H640.634V799.905H643.961V791.353Z" fill="white"/>
<path d="M651.955 791.353H648.628V799.905H651.955V791.353Z" fill="white"/>
<path d="M659.949 791.353H656.622V799.905H659.949V791.353Z" fill="white"/>
<path d="M635.973 803.398H632.646V811.951H635.973V803.398Z" fill="white"/>
<path d="M643.961 803.398H640.634V811.951H643.961V803.398Z" fill="white"/>
<path d="M651.955 803.398H648.628V811.951H651.955V803.398Z" fill="white"/>
<path d="M659.949 803.398H656.622V811.951H659.949V803.398Z" fill="white"/>
<path d="M635.973 815.445H632.646V823.998H635.973V815.445Z" fill="white"/>
<path d="M643.961 815.445H640.634V823.998H643.961V815.445Z" fill="white"/>
<path d="M651.955 815.445H648.628V823.998H651.955V815.445Z" fill="white"/>
<path d="M659.949 815.445H656.622V823.998H659.949V815.445Z" fill="white"/>
<path d="M666.424 791.353H663.097V799.905H666.424V791.353Z" fill="white"/>
<path d="M674.418 791.353H671.091V799.905H674.418V791.353Z" fill="white"/>
<path d="M666.424 803.398H663.097V811.951H666.424V803.398Z" fill="white"/>
<path d="M674.418 803.398H671.091V811.951H674.418V803.398Z" fill="white"/>
<path d="M666.424 815.445H663.097V823.998H666.424V815.445Z" fill="white"/>
<path d="M674.418 815.445H671.091V823.998H674.418V815.445Z" fill="white"/>
<path d="M635.973 827.973H632.646V836.525H635.973V827.973Z" fill="white"/>
<path d="M643.961 827.973H640.634V836.525H643.961V827.973Z" fill="white"/>
<path d="M651.955 827.973H648.628V836.525H651.955V827.973Z" fill="white"/>
<path d="M659.949 827.973H656.622V836.525H659.949V827.973Z" fill="white"/>
<path d="M635.973 840.02H632.64V842.034H635.973V840.02Z" fill="white"/>
<path d="M643.961 840.02H640.627V842.034H643.961V840.02Z" fill="white"/>
<path d="M651.955 840.02H648.621V842.034H651.955V840.02Z" fill="white"/>
<path d="M659.949 840.02H656.616V842.034H659.949V840.02Z" fill="white"/>
<path d="M666.424 827.973H663.097V836.525H666.424V827.973Z" fill="white"/>
<path d="M674.418 827.973H671.091V836.525H674.418V827.973Z" fill="white"/>
<path d="M666.424 840.02H663.103V842.034H666.424V840.02Z" fill="white"/>
<path d="M674.425 840.02H671.091V842.034H674.425V840.02Z" fill="white"/>
<path d="M376.92 724.856H333.189V841.443H376.92V724.856Z" fill="#80BA25"/>
<path d="M373.357 717.495H336.766V724.807H373.357V717.495Z" fill="#80BA25"/>
<path d="M366.518 710.283H343.601V717.496H366.518V710.283Z" fill="#80BA25"/>
<path d="M341.727 729.714H339.2V735.555H341.727V729.714Z" fill="white"/>
<path d="M347.792 729.714H345.265V735.555H347.792V729.714Z" fill="white"/>
<path d="M353.862 729.714H351.335V735.555H353.862V729.714Z" fill="white"/>
<path d="M359.931 729.714H357.405V735.555H359.931V729.714Z" fill="white"/>
<path d="M341.727 737.94H339.2V743.781H341.727V737.94Z" fill="white"/>
<path d="M347.792 737.94H345.265V743.781H347.792V737.94Z" fill="white"/>
<path d="M353.862 737.94H351.335V743.781H353.862V737.94Z" fill="white"/>
<path d="M359.931 737.94H357.405V743.781H359.931V737.94Z" fill="white"/>
<path d="M341.727 746.168H339.2V752.009H341.727V746.168Z" fill="white"/>
<path d="M347.792 746.168H345.265V752.009H347.792V746.168Z" fill="white"/>
<path d="M353.862 746.168H351.335V752.009H353.862V746.168Z" fill="white"/>
<path d="M359.931 746.168H357.405V752.009H359.931V746.168Z" fill="white"/>
<path d="M364.848 729.714H362.322V735.555H364.848V729.714Z" fill="white"/>
<path d="M370.918 729.714H368.391V735.555H370.918V729.714Z" fill="white"/>
<path d="M364.848 737.94H362.322V743.781H364.848V737.94Z" fill="white"/>
<path d="M370.918 737.94H368.391V743.781H370.918V737.94Z" fill="white"/>
<path d="M364.848 746.169H362.322V752.01H364.848V746.169Z" fill="white"/>
<path d="M370.918 746.169H368.391V752.01H370.918V746.169Z" fill="white"/>
<path d="M341.727 754.724H339.2V760.564H341.727V754.724Z" fill="white"/>
<path d="M347.792 754.724H345.265V760.564H347.792V754.724Z" fill="white"/>
<path d="M353.862 754.724H351.335V760.564H353.862V754.724Z" fill="white"/>
<path d="M359.931 754.724H357.405V760.564H359.931V754.724Z" fill="white"/>
<path d="M341.727 762.95H339.2V768.791H341.727V762.95Z" fill="white"/>
<path d="M347.792 762.95H345.265V768.791H347.792V762.95Z" fill="white"/>
<path d="M353.862 762.95H351.335V768.791H353.862V762.95Z" fill="white"/>
<path d="M359.931 762.95H357.405V768.791H359.931V762.95Z" fill="white"/>
<path d="M341.727 771.178H339.2V777.018H341.727V771.178Z" fill="white"/>
<path d="M347.792 771.178H345.265V777.018H347.792V771.178Z" fill="white"/>
<path d="M353.862 771.178H351.335V777.018H353.862V771.178Z" fill="white"/>
<path d="M359.931 771.178H357.405V777.018H359.931V771.178Z" fill="white"/>
<path d="M364.848 754.724H362.322V760.564H364.848V754.724Z" fill="white"/>
<path d="M370.918 754.724H368.391V760.564H370.918V754.724Z" fill="white"/>
<path d="M364.848 762.95H362.322V768.791H364.848V762.95Z" fill="white"/>
<path d="M370.918 762.95H368.391V768.791H370.918V762.95Z" fill="white"/>
<path d="M364.848 771.179H362.322V777.019H364.848V771.179Z" fill="white"/>
<path d="M370.918 771.179H368.391V777.019H370.918V771.179Z" fill="white"/>
<path d="M341.727 779.729H339.2V785.569H341.727V779.729Z" fill="white"/>
<path d="M347.792 779.729H345.265V785.569H347.792V779.729Z" fill="white"/>
<path d="M353.862 779.729H351.335V785.569H353.862V779.729Z" fill="white"/>
<path d="M359.931 779.729H357.405V785.569H359.931V779.729Z" fill="white"/>
<path d="M341.727 787.955H339.2V793.796H341.727V787.955Z" fill="white"/>
<path d="M347.792 787.955H345.265V793.796H347.792V787.955Z" fill="white"/>
<path d="M353.862 787.955H351.335V793.796H353.862V787.955Z" fill="white"/>
<path d="M359.931 787.955H357.405V793.796H359.931V787.955Z" fill="white"/>
<path d="M341.727 796.183H339.2V802.023H341.727V796.183Z" fill="white"/>
<path d="M347.792 796.183H345.265V802.023H347.792V796.183Z" fill="white"/>
<path d="M353.862 796.183H351.335V802.023H353.862V796.183Z" fill="white"/>
<path d="M359.931 796.183H357.405V802.023H359.931V796.183Z" fill="white"/>
<path d="M364.848 779.729H362.322V785.569H364.848V779.729Z" fill="white"/>
<path d="M370.918 779.729H368.391V785.569H370.918V779.729Z" fill="white"/>
<path d="M364.848 787.955H362.322V793.796H364.848V787.955Z" fill="white"/>
<path d="M370.918 787.955H368.391V793.796H370.918V787.955Z" fill="white"/>
<path d="M364.848 796.183H362.322V802.023H364.848V796.183Z" fill="white"/>
<path d="M370.918 796.183H368.391V802.023H370.918V796.183Z" fill="white"/>
<path d="M341.726 804.75H339.2V810.591H341.726V804.75Z" fill="white"/>
<path d="M347.792 804.75H345.265V810.591H347.792V804.75Z" fill="white"/>
<path d="M353.861 804.75H351.335V810.591H353.861V804.75Z" fill="white"/>
<path d="M359.932 804.75H357.405V810.591H359.932V804.75Z" fill="white"/>
<path d="M341.726 812.977H339.2V818.817H341.726V812.977Z" fill="white"/>
<path d="M347.792 812.977H345.265V818.817H347.792V812.977Z" fill="white"/>
<path d="M353.861 812.977H351.335V818.817H353.861V812.977Z" fill="white"/>
<path d="M359.932 812.977H357.405V818.817H359.932V812.977Z" fill="white"/>
<path d="M341.726 821.204H339.2V827.045H341.726V821.204Z" fill="white"/>
<path d="M347.792 821.204H345.265V827.045H347.792V821.204Z" fill="white"/>
<path d="M353.861 821.204H351.335V827.045H353.861V821.204Z" fill="white"/>
<path d="M359.932 821.204H357.405V827.045H359.932V821.204Z" fill="white"/>
<path d="M364.848 804.75H362.322V810.591H364.848V804.75Z" fill="white"/>
<path d="M370.918 804.75H368.391V810.591H370.918V804.75Z" fill="white"/>
<path d="M364.848 812.977H362.322V818.817H364.848V812.977Z" fill="white"/>
<path d="M370.918 812.977H368.391V818.817H370.918V812.977Z" fill="white"/>
<path d="M364.848 821.205H362.322V827.046H364.848V821.205Z" fill="white"/>
<path d="M370.918 821.205H368.391V827.046H370.918V821.205Z" fill="white"/>
<path d="M341.726 829.759H339.2V835.6H341.726V829.759Z" fill="white"/>
<path d="M347.792 829.759H345.266V835.6H347.792V829.759Z" fill="white"/>
<path d="M353.862 829.759H351.335V835.6H353.862V829.759Z" fill="white"/>
<path d="M359.932 829.759H357.405V835.6H359.932V829.759Z" fill="white"/>
<path d="M341.727 837.986H339.195V839.362H341.727V837.986Z" fill="white"/>
<path d="M347.792 837.986H345.26V839.362H347.792V837.986Z" fill="white"/>
<path d="M353.861 837.986H351.33V839.362H353.861V837.986Z" fill="white"/>
<path d="M359.932 837.986H357.401V839.362H359.932V837.986Z" fill="white"/>
<path d="M364.848 829.759H362.322V835.6H364.848V829.759Z" fill="white"/>
<path d="M370.918 829.759H368.392V835.6H370.918V829.759Z" fill="white"/>
<path d="M364.848 837.986H362.327V839.362H364.848V837.986Z" fill="white"/>
<path d="M370.923 837.986H368.392V839.362H370.923V837.986Z" fill="white"/>
<path d="M291.879 194.005L346.51 87.5293L457.844 139.174L291.879 194.005Z" fill="#73B95E"/>
<path d="M439.235 118.47L479.006 51.3584L556.638 90.7152L439.235 118.47Z" fill="#73B95E"/>
<path d="M455.291 127.114L589.946 99.3594L549.693 173.072L455.291 127.114Z" fill="#5D8454"/>
<path d="M581.039 132.019L568.025 173.072L614.537 186.946L581.039 132.019Z" fill="#73B95E"/>
<path d="M603.974 156.85L639.018 195.631L641.207 159.482L603.974 156.85Z" fill="#73B95E"/>
<path d="M645.927 184.833L654.979 238.604L714.826 229.364L645.927 184.833Z" fill="#5D8454"/>
<path d="M635.911 261.226L706.423 240.71L727.125 304.317L635.911 261.226Z" fill="#73B95E"/>
<path d="M634.634 277.524L597.97 355.982L690.884 300.957L634.634 277.524Z" fill="#5D8454"/>
<path d="M669.737 358.656L741.109 326.523L715.14 378.473L669.737 358.656Z" fill="#73B95E"/>
<path d="M622.094 399.419L674.238 376.083L654.388 414.304L622.094 399.419Z" fill="#5D8454"/>
<path d="M612.823 409.33L558.213 490.766L609.737 493.204L612.823 409.33Z" fill="#73B95E"/>
<path d="M545.396 179.126L641.207 207.13L614.537 294.793L545.396 179.126Z" fill="#73B95E"/>
<path d="M390.104 262.106L419.028 162.28L516.611 186.946L390.104 262.106Z" fill="#73B95E"/>
<path d="M491.466 211.716L481.151 267.357L553.836 280.732L491.466 211.716Z" fill="#73B95E"/>
<path d="M409.975 280.732L455.291 239.657L471.843 340.196L409.975 280.732Z" fill="#5D8454"/>
<path d="M391.49 264.683L358.539 352.255L415.125 334.738L391.49 264.683Z" fill="#73B95E"/>
<path d="M307.505 215.726L399.872 176.972L346.561 296.76L307.505 215.726Z" fill="#5D8454"/>
<path d="M217.078 203.674L305.747 212.194L261.416 249.479L217.078 203.674Z" fill="#73B95E"/>
<path d="M239.116 240.343L226.444 291.946L261.416 270.113L239.116 240.343Z" fill="#73B95E"/>
<path d="M291.857 236.866L272.519 356.079L343.49 310.939L291.857 236.866Z" fill="#73B95E"/>
<path d="M209.768 319.292L266.201 279.651L251.903 371.595L209.768 319.292Z" fill="#5D8454"/>
<path d="M217.501 366.642L256.156 425.365L204.932 456.195L217.501 366.642Z" fill="#73B95E"/>
<path d="M199.913 478.583L260.599 441.512L306.403 509.046L199.913 478.583Z" fill="#5D8454"/>
<path d="M274.51 446.284L307.563 498.407L364.769 466.108L274.51 446.284Z" fill="#73B95E"/>
<path d="M276.276 368.679L292.463 410.46L337.822 393.912L276.276 368.679Z" fill="#73B95E"/>
<path d="M394.62 404.911L475.308 356.079L425.593 335.874L394.62 404.911Z" fill="#5D8454"/>
<path d="M404.059 417.539L461.214 378.535L443.67 468.906L404.059 417.539Z" fill="#73B95E"/>
<path d="M469.837 405.812L455.634 491.244L530.734 415.135L469.837 405.812Z" fill="#5D8454"/>
<path d="M494.07 330.035L481.764 390.469L549.139 402.93L494.07 330.035Z" fill="#73B95E"/>
<path d="M484.353 276.057L530.187 359.099L550.598 294.793L484.353 276.057Z" fill="#73B95E"/>
<path d="M716.475 326.523L662.661 344.221L658.379 373.194L608.854 393.018L511.942 531.044L504.458 603.995L483.164 692.745L523.213 846.91H432.071L407.291 700.142L435.668 597.719L443.232 575.679L380.767 513.755L371.67 441.511H278.508L249.868 377.517L286.539 418.688L364.769 419.208L356.686 376.083H319.636L364.769 300.756L345.037 362.264L379.972 361.502L412.9 475.278L469.654 509.052L568.434 389.569L550.598 317.574L568.434 293.38L524.001 165.778L593.302 292.611L576.195 317.574L588.779 374.462L645.927 355.982L651.15 330.035L716.475 326.523Z" fill="#463F36"/>
<path d="M85.1137 543.73C85.1137 543.73 63.0614 569.961 75.8128 587.16C78.4316 590.686 81.2474 592.625 84.0268 593.422C79.2268 577.781 92.0146 568.735 98.6018 575.676C104.839 582.249 94.8158 596.518 84.0268 593.422C84.9386 596.4 86.507 599.628 88.8632 603.015C92.7149 608.556 96.6614 612.262 100.63 614.624" stroke="#DBDBDB" stroke-width="0.75" stroke-miterlimit="22.9256" stroke-dasharray="2 2"/>
<path fill-rule="evenodd" clip-rule="evenodd" d="M113.534 526.034L90.5191 554.405L83.6692 546.89L81.3714 549.543L78.5993 541.072L67.679 532.947L113.534 526.034Z" fill="#DBDBDB"/>
<path fill-rule="evenodd" clip-rule="evenodd" d="M113.425 526.048L81.8965 545.2L81.5537 549.335L81.3713 549.543L78.5993 541.072L78.3367 540.878L112.389 526.207L113.425 526.048Z" fill="#C6C6C6"/>
<path d="M673.754 656.153C676.778 653.308 679.491 649.275 681.723 643.644C683.096 640.199 683.791 637.047 683.965 634.244C675.044 639.042 663.085 628.368 667.221 621.368C671.585 613.976 684.884 619.512 683.965 634.244C686.261 633.009 688.352 630.756 689.921 627.141C697.571 609.507 672.363 590.573 672.363 590.573" stroke="#DBDBDB" stroke-width="0.75" stroke-miterlimit="22.9256" stroke-dasharray="2 2"/>
<path fill-rule="evenodd" clip-rule="evenodd" d="M632.017 560.386L663.469 598.32L670.582 589.914L673.7 593.483L675.81 583.379L687.697 574.73L632.017 560.386Z" fill="#DBDBDB"/>
<path fill-rule="evenodd" clip-rule="evenodd" d="M632.158 560.422L672.462 588.05L673.45 593.197L673.7 593.483L675.81 583.378L676.099 583.171L633.416 560.745L632.158 560.422Z" fill="#C6C6C6"/>
<path d="M799.653 840.402H67.679V848.73H799.653V840.402Z" fill="#62A54C"/>
</svg>
