<svg width="34" height="37" viewBox="0 0 34 37" fill="none" xmlns="http://www.w3.org/2000/svg">
<path d="M11.3333 16.65H7.55556V20.35H11.3333V16.65ZM18.8889 16.65H15.1111V20.35H18.8889V16.65ZM26.4444 16.65H22.6667V20.35H26.4444V16.65ZM30.2222 3.7H28.3333V0H24.5556V3.7H9.44444V0H5.66667V3.7H3.77778C2.77585 3.7 1.81496 4.08982 1.10649 4.7837C0.398015 5.47759 0 6.4187 0 7.4V33.3C0 34.2813 0.398015 35.2224 1.10649 35.9163C1.81496 36.6102 2.77585 37 3.77778 37H30.2222C31.2241 37 32.185 36.6102 32.8935 35.9163C33.602 35.2224 34 34.2813 34 33.3V7.4C34 6.4187 33.602 5.47759 32.8935 4.7837C32.185 4.08982 31.2241 3.7 30.2222 3.7ZM30.2222 33.3H3.77778V12.95H30.2222V33.3Z" fill="#626262"/>
</svg>
