<svg width="35" height="34" viewBox="0 0 35 34" fill="none" xmlns="http://www.w3.org/2000/svg">
<path d="M17.5 0C19.8206 0 22.0462 0.895533 23.6872 2.48959C25.3281 4.08365 26.25 6.24566 26.25 8.5C26.25 10.7543 25.3281 12.9163 23.6872 14.5104C22.0462 16.1045 19.8206 17 17.5 17C15.1794 17 12.9538 16.1045 11.3128 14.5104C9.67187 12.9163 8.75 10.7543 8.75 8.5C8.75 6.24566 9.67187 4.08365 11.3128 2.48959C12.9538 0.895533 15.1794 0 17.5 0ZM17.5 21.25C27.1688 21.25 35 25.0537 35 29.75V34H0V29.75C0 25.0537 7.83125 21.25 17.5 21.25Z" fill="#626262"/>
</svg>
