<svg width="37" height="36" viewBox="0 0 37 36" fill="none" xmlns="http://www.w3.org/2000/svg">
<path options="fill" d="M36.9676 13.9046C36.8894 13.6713 36.6821 13.5012 36.4324 13.4658L24.4516 11.7717L19.0937 1.20887C18.9825 0.988492 18.752 0.849304 18.5003 0.849304C18.2487 0.849304 18.0175 0.988492 17.9069 1.20887L12.5484 11.7723L0.567584 13.4664C0.317902 13.5019 0.111268 13.6713 0.0324561 13.9052C-0.0450315 14.1379 0.0192104 14.3943 0.200015 14.5651L8.87002 22.7875L6.82289 34.3981C6.7805 34.6397 6.88249 34.8839 7.08582 35.0283C7.29046 35.1739 7.56134 35.1926 7.7832 35.0772L18.5003 29.5961L29.2161 35.0772C29.3128 35.1269 29.4195 35.1513 29.5248 35.1513C29.6619 35.1513 29.7983 35.1101 29.9142 35.0283C30.1182 34.8839 30.2202 34.6397 30.1771 34.3981L28.1307 22.7881L36.8007 14.5651C36.9808 14.393 37.0457 14.1372 36.9676 13.9046Z" fill="black"/>
</svg>
