<svg width="128" height="123" viewBox="0 0 128 123" fill="none" xmlns="http://www.w3.org/2000/svg">
<path d="M118.207 11.5233C111.57 4.09219 102.435 0 92.4848 0C84.7056 0 76.3155 4.62837 70.1851 8.01005C67.9533 9.24197 64.9016 10.9262 63.9995 11.0371C63.1013 10.9281 60.0651 9.24824 57.8387 8.01664C51.724 4.63339 43.3496 0 35.5155 0C25.5649 0 16.4297 4.09219 9.79197 11.5233C3.47749 18.5929 0 27.8986 0 37.7261C0 51.7653 5.04141 71.7298 13.4856 91.1336C17.2423 99.7664 21.2412 107.226 25.0497 112.706C29.5829 119.229 33.4731 122.399 36.9432 122.399C38.4829 122.399 41.3024 121.746 42.884 117.371C44.4213 113.12 45.804 108.241 47.2704 103.065C51.1509 89.368 55.98 72.3208 63.7547 72.3208H64.2456C67.7024 72.3208 70.7965 75.2816 73.7051 81.3728C76.5859 87.4064 78.7763 95.4296 80.8973 103.198C82.2992 108.334 83.6237 113.184 85.1115 117.36C86.6613 121.708 89.4491 122.358 90.9747 122.359C94.4272 122.359 98.3136 119.14 102.857 112.518C106.655 106.982 110.663 99.448 114.446 90.7314C122.933 71.1717 128 51.3568 128 37.7258C128 27.8983 124.522 18.5926 118.207 11.5233ZM90.0851 21.6011C90.0053 21.5958 81.9672 21.211 74.6501 19.2733C71.3507 18.3998 67.4496 16.6445 67.4496 16.1238C67.4496 15.6168 71.688 13.1488 72.7101 12.5847C78.3403 9.4788 86.0501 5.22517 92.4848 5.22517C111.445 5.22517 122.775 21.75 122.775 37.7261C122.775 50.4853 117.747 69.9989 109.652 88.6512C106.053 96.9448 102.109 104.371 98.548 109.562C94.4389 115.551 91.78 117.292 90.9747 117.134C90.4803 117.036 90.4187 116.685 90.0341 115.605C88.6109 111.612 87.3115 106.853 85.936 101.815C83.7568 93.8333 81.5043 85.5794 78.42 79.1205C74.5563 71.0285 69.9197 67.0949 64.2456 67.0949H63.7547C58.2888 67.0949 53.7595 70.997 49.9085 79.024C46.8347 85.4309 44.5003 93.6712 42.2429 101.64C40.8045 106.718 39.4459 111.515 37.9707 115.594C37.6448 116.495 37.5443 117.083 36.9432 117.174C36.472 117.246 34.4595 117.09 29.3405 109.724C25.7766 104.596 21.8474 97.2533 18.2766 89.0482C10.2261 70.549 5.22517 50.8837 5.22517 37.7258C5.22517 21.7497 16.5553 5.22485 35.5155 5.22485C40.4437 5.22485 46.9205 7.4704 52.84 11.2318C53.7083 11.7837 54.9307 12.7232 56.1131 13.6322C56.5848 13.995 57.0499 14.3522 57.4827 14.6779C58.8704 15.7173 60.7456 17.0764 62.9475 18.3727C63.8864 18.9268 65.0544 19.6166 66.2952 20.1431C71.0397 22.1571 76.0704 23.1783 81.2472 23.1783C86.5221 23.1783 90.0699 22.2401 90.1048 22.229C90.1048 22.229 90.8987 22.0192 90.8733 21.8129C90.8483 21.6065 90.0851 21.6011 90.0851 21.6011Z" fill="#D9251E"/>
<path d="M105.289 5.46074C95.3798 -3.62314 74.3216 7.86884 65.0315 13.7183C44.3862 -2.79822 23.7411 1.33159 9.28947 15.7832C-5.16213 30.2347 6.19269 61.2027 15.483 84.9446C22.9153 103.938 33.7195 116.256 38.1928 120.041C41.2894 111.783 47.6894 95.0606 48.5152 94.2347C49.3411 93.4091 56.4294 77.3747 59.8702 69.4606L72.2571 71.5251L91.8702 122.105C152.773 21.9764 117.677 16.8156 105.289 5.46074Z" fill="#D9251E"/>
</svg>
