<svg width="18" height="18" viewBox="0 0 18 18" fill="none" xmlns="http://www.w3.org/2000/svg">
<g clip-path="url(#clip0_3848_18912)">
<path d="M15.9373 18H2.06239C0.924629 18 0 17.0752 0 15.9376V5.06263C0 3.92487 0.924629 3.00024 2.06239 3.00024H4.68741C4.99791 3.00024 5.24991 3.25224 5.24991 3.56274C5.24991 3.87324 4.99791 4.12523 4.68741 4.12523H2.06239C1.54563 4.12523 1.12499 4.54587 1.12499 5.06263V15.9376C1.12499 16.4542 1.54563 16.875 2.06239 16.875H15.9373C16.4541 16.875 16.8748 16.4542 16.8748 15.9376V9.56259C16.8748 9.25209 17.1268 9.00009 17.4373 9.00009C17.7478 9.00009 17.9998 9.25209 17.9998 9.56259V15.9376C17.9998 17.0752 17.0751 18 15.9373 18V18Z" fill="#9D9D9D"/>
<path d="M5.06167 11.9904C5.02047 11.9904 4.97914 11.9858 4.93794 11.9753C4.68374 11.9161 4.5 11.6985 4.5 11.4376V10.3126C4.5 6.28068 7.78049 3.0002 11.8124 3.0002H11.9999V0.562633C11.9999 0.333158 12.1394 0.126892 12.3524 0.04065C12.5646 -0.0447679 12.8083 0.00686729 12.9674 0.172622L17.8424 5.23507C18.0523 5.4526 18.0523 5.79757 17.8424 6.01509L12.9674 11.0775C12.8083 11.2433 12.5631 11.2944 12.3524 11.2095C12.1394 11.1233 11.9999 10.917 11.9999 10.6875V8.2501H11.1089C8.74947 8.2501 6.62913 9.56103 5.57473 11.6708C5.47791 11.8658 5.27467 11.9904 5.06167 11.9904V11.9904ZM11.8124 4.12519C8.6624 4.12519 6.054 6.49135 5.67223 9.54002C7.03562 8.01912 8.99089 7.12511 11.1089 7.12511H12.5624C12.8729 7.12511 13.1249 7.37711 13.1249 7.68761V9.29256L16.6565 5.62508L13.1249 1.95761V3.56269C13.1249 3.87319 12.8729 4.12519 12.5624 4.12519H11.8124Z" fill="#9D9D9D"/>
</g>
<defs>
<clipPath id="clip0_3848_18912">
<rect width="18" height="18" fill="white"/>
</clipPath>
</defs>
</svg>
