<svg width="82" height="82" viewBox="0 0 82 82" fill="none" xmlns="http://www.w3.org/2000/svg">
<circle cx="41" cy="41" r="41" fill="#D8D8D8"/>
<path d="M58.0968 34.0145C56.8974 32.8151 54.9458 32.8152 53.7461 34.0148C53.3771 34.3842 51.021 36.7421 50.6611 37.1023V28.9764C50.6611 28.1547 50.3411 27.3822 49.7601 26.8013L46.8599 23.901C46.279 23.3199 45.5064 23 44.6847 23H27.0771C25.3809 23 24.001 24.38 24.001 26.0762V54.9238C24.001 56.62 25.3809 58 27.0771 58H47.585C49.2812 58 50.6611 56.62 50.6611 54.9238V45.8068L58.0967 38.3649C59.299 37.1628 59.2992 35.2168 58.0968 34.0145ZM44.5089 25.0508C44.7026 25.0508 45.0759 25.0172 45.4098 25.3511L48.3101 28.2514C48.6354 28.5768 48.6104 28.9335 48.6104 29.1523H44.5089V25.0508ZM48.6104 54.9238C48.6104 55.4892 48.1504 55.9492 47.585 55.9492H27.0771C26.5117 55.9492 26.0518 55.4892 26.0518 54.9238V26.0762C26.0518 25.5108 26.5117 25.0508 27.0771 25.0508H42.458V30.1777C42.458 30.744 42.9171 31.2031 43.4834 31.2031H48.6104V39.1549C48.6104 39.1549 45.5852 42.1827 45.585 42.1827L44.1356 43.6322C44.0231 43.7447 43.9382 43.882 43.8879 44.033L42.4377 48.3834C42.3149 48.7519 42.4108 49.1581 42.6854 49.4327C42.9605 49.7077 43.3668 49.8032 43.7348 49.6805L48.0851 48.2304C48.2362 48.18 48.3734 48.0952 48.4859 47.9826L48.6104 47.8582V54.9238ZM46.3107 44.3573L47.7609 45.8074L47.2069 46.3613L45.0318 47.0864L45.7568 44.9112L46.3107 44.3573ZM49.2107 44.357L47.7606 42.9069C48.5328 42.1341 51.9623 38.7016 52.6896 37.9736L54.1397 39.4237L49.2107 44.357ZM56.6463 36.9151L55.5893 37.973L54.1392 36.5229L55.1966 35.4646C55.5966 35.0648 56.247 35.0649 56.6468 35.4646C57.0464 35.8646 57.0486 36.5128 56.6463 36.9151Z" fill="#77C360"/>
<path d="M43.4834 33.2539H29.1279C28.5616 33.2539 28.1025 33.713 28.1025 34.2793C28.1025 34.8456 28.5616 35.3047 29.1279 35.3047H43.4834C44.0497 35.3047 44.5088 34.8456 44.5088 34.2793C44.5088 33.713 44.0497 33.2539 43.4834 33.2539Z" fill="#77C360"/>
<path d="M39.3818 37.3555H29.1279C28.5616 37.3555 28.1025 37.8146 28.1025 38.3809C28.1025 38.9471 28.5616 39.4062 29.1279 39.4062H39.3818C39.9481 39.4062 40.4072 38.9471 40.4072 38.3809C40.4072 37.8146 39.9481 37.3555 39.3818 37.3555Z" fill="#77C360"/>
<path d="M39.3818 41.457H29.1279C28.5616 41.457 28.1025 41.9161 28.1025 42.4824C28.1025 43.0487 28.5616 43.5078 29.1279 43.5078H39.3818C39.9481 43.5078 40.4072 43.0487 40.4072 42.4824C40.4072 41.9161 39.9481 41.457 39.3818 41.457Z" fill="#77C360"/>
<path d="M39.3818 45.5586H29.1279C28.5616 45.5586 28.1025 46.0177 28.1025 46.584C28.1025 47.1503 28.5616 47.6094 29.1279 47.6094H39.3818C39.9481 47.6094 40.4072 47.1503 40.4072 46.584C40.4072 46.0177 39.9481 45.5586 39.3818 45.5586Z" fill="#77C360"/>
<path d="M43.4834 51.8477H37.3311C36.7648 51.8477 36.3057 52.3068 36.3057 52.873C36.3057 53.4393 36.7648 53.8984 37.3311 53.8984H43.4834C44.0497 53.8984 44.5088 53.4393 44.5088 52.873C44.5088 52.3068 44.0497 51.8477 43.4834 51.8477Z" fill="#77C360"/>
</svg>
