<svg width="82" height="82" viewBox="0 0 82 82" fill="none" xmlns="http://www.w3.org/2000/svg">
<circle cx="41" cy="41" r="41" fill="white"/>
<circle cx="41.5" cy="41.5" r="35" stroke="#77C360"/>
<g clip-path="url(#clip0_3611_1401)">
<path d="M61.0968 35.0145C59.8974 33.8151 57.9458 33.8152 56.7461 35.0148C56.3771 35.3842 54.021 37.7421 53.6611 38.1023V29.9764C53.6611 29.1547 53.3411 28.3822 52.7601 27.8013L49.8599 24.901C49.279 24.3199 48.5064 24 47.6847 24H30.0771C28.3809 24 27.001 25.38 27.001 27.0762V55.9238C27.001 57.62 28.3809 59 30.0771 59H50.585C52.2812 59 53.6611 57.62 53.6611 55.9238V46.8068L61.0967 39.3649C62.299 38.1628 62.2992 36.2168 61.0968 35.0145ZM47.5089 26.0508C47.7026 26.0508 48.0759 26.0172 48.4098 26.3511L51.3101 29.2514C51.6354 29.5768 51.6104 29.9335 51.6104 30.1523H47.5089V26.0508ZM51.6104 55.9238C51.6104 56.4892 51.1504 56.9492 50.585 56.9492H30.0771C29.5117 56.9492 29.0518 56.4892 29.0518 55.9238V27.0762C29.0518 26.5108 29.5117 26.0508 30.0771 26.0508H45.458V31.1777C45.458 31.744 45.9171 32.2031 46.4834 32.2031H51.6104V40.1549C51.6104 40.1549 48.5852 43.1827 48.585 43.1827L47.1356 44.6322C47.0231 44.7447 46.9382 44.882 46.8879 45.033L45.4377 49.3834C45.3149 49.7519 45.4108 50.1581 45.6854 50.4327C45.9605 50.7077 46.3668 50.8032 46.7348 50.6805L51.0851 49.2304C51.2362 49.18 51.3734 49.0952 51.4859 48.9826L51.6104 48.8582V55.9238ZM49.3107 45.3573L50.7609 46.8074L50.2069 47.3613L48.0318 48.0864L48.7568 45.9112L49.3107 45.3573ZM52.2107 45.357L50.7606 43.9069C51.5328 43.1341 54.9623 39.7016 55.6896 38.9736L57.1397 40.4237L52.2107 45.357ZM59.6463 37.9151L58.5893 38.973L57.1392 37.5229L58.1966 36.4646C58.5966 36.0648 59.247 36.0649 59.6468 36.4646C60.0464 36.8646 60.0486 37.5128 59.6463 37.9151Z" fill="#77C360"/>
<path d="M46.4834 34.2539H32.1279C31.5616 34.2539 31.1025 34.713 31.1025 35.2793C31.1025 35.8456 31.5616 36.3047 32.1279 36.3047H46.4834C47.0497 36.3047 47.5088 35.8456 47.5088 35.2793C47.5088 34.713 47.0497 34.2539 46.4834 34.2539Z" fill="#77C360"/>
<path d="M42.3818 38.3555H32.1279C31.5616 38.3555 31.1025 38.8146 31.1025 39.3809C31.1025 39.9471 31.5616 40.4062 32.1279 40.4062H42.3818C42.9481 40.4062 43.4072 39.9471 43.4072 39.3809C43.4072 38.8146 42.9481 38.3555 42.3818 38.3555Z" fill="#77C360"/>
<path d="M42.3818 42.457H32.1279C31.5616 42.457 31.1025 42.9161 31.1025 43.4824C31.1025 44.0487 31.5616 44.5078 32.1279 44.5078H42.3818C42.9481 44.5078 43.4072 44.0487 43.4072 43.4824C43.4072 42.9161 42.9481 42.457 42.3818 42.457Z" fill="#77C360"/>
<path d="M42.3818 46.5586H32.1279C31.5616 46.5586 31.1025 47.0177 31.1025 47.584C31.1025 48.1503 31.5616 48.6094 32.1279 48.6094H42.3818C42.9481 48.6094 43.4072 48.1503 43.4072 47.584C43.4072 47.0177 42.9481 46.5586 42.3818 46.5586Z" fill="#77C360"/>
<path d="M46.4834 52.8477H40.3311C39.7648 52.8477 39.3057 53.3068 39.3057 53.873C39.3057 54.4393 39.7648 54.8984 40.3311 54.8984H46.4834C47.0497 54.8984 47.5088 54.4393 47.5088 53.873C47.5088 53.3068 47.0497 52.8477 46.4834 52.8477Z" fill="#77C360"/>
</g>
<defs>
<clipPath id="clip0_3611_1401">
<rect width="35" height="35" fill="white" transform="translate(27 24)"/>
</clipPath>
</defs>
</svg>
