<svg width="82" height="82" viewBox="0 0 82 82" fill="none" xmlns="http://www.w3.org/2000/svg">
<circle cx="41" cy="41" r="41" fill="white"/>
<circle cx="41.5" cy="41.5" r="35" stroke="#77C360"/>
<path d="M57.4091 33.5449H52.5758L54.1715 27.5933C54.399 26.7453 53.8963 25.872 53.0468 25.6445C52.1974 25.4169 51.3237 25.9212 51.098 26.7692L49.2829 33.5449H37.9841L39.5798 27.5933C39.8073 26.7453 39.3045 25.872 38.4551 25.6445C37.6054 25.4187 36.7338 25.9212 36.5077 26.7692L34.6909 33.5449H28.7727C27.8944 33.5449 27.1819 34.256 27.1819 35.1357C27.1819 36.0158 27.8944 36.7268 28.7727 36.7268H33.8365L31.2768 46.2723H25.5908C24.7128 46.2723 24 46.9834 24 47.8631C24 48.7428 24.7128 49.4539 25.5908 49.4539H30.4241L28.8284 55.4055C28.6009 56.2535 29.1036 57.1269 29.9531 57.3544C30.09 57.3911 30.2284 57.4085 30.3635 57.4085C31.0653 57.4085 31.7097 56.9407 31.899 56.2296L33.7173 49.4539H45.0158L43.4201 55.4055C43.1929 56.2535 43.6954 57.1269 44.5451 57.3544C44.6817 57.3911 44.8201 57.4085 44.957 57.4085C45.6588 57.4085 46.3028 56.9407 46.4922 56.2296L48.309 49.4539H54.2272C55.1055 49.4539 55.8183 48.7428 55.8183 47.8631C55.8183 46.9834 55.1055 46.2723 54.2272 46.2723H49.1634L51.7231 36.7268H57.4091C58.2874 36.7268 58.9999 36.0158 58.9999 35.1357C58.9999 34.256 58.2874 33.5449 57.4091 33.5449V33.5449ZM45.8685 46.2723H34.57L37.1297 36.7268H48.4285L45.8685 46.2723Z" fill="#77C360"/>
</svg>
