<svg width="82" height="82" viewBox="0 0 82 82" fill="none" xmlns="http://www.w3.org/2000/svg">
<circle cx="41" cy="41" r="41" fill="white"/>
<circle cx="41.5" cy="41.5" r="35" stroke="#77C360"/>
<path d="M45.9688 24H27.8535V59H53.1465V31.1777C53.1465 27.2199 49.9266 24 45.9688 24ZM50.9925 30.1523H46.9941V26.1539C49.0001 26.5628 50.5837 28.1464 50.9925 30.1523ZM29.9043 56.9492V26.0508H44.9434V32.2031H51.0957V56.9492H29.9043Z" fill="#77C360"/>
<path d="M35.2205 47.9413C34.4213 47.1421 34.4213 45.8417 35.2205 45.0426L38.1197 42.1433C38.5069 41.7562 39.0216 41.543 39.5692 41.543C40.1167 41.543 40.6315 41.7562 41.0186 42.1433L42.4687 40.6932C41.6943 39.9187 40.6645 39.4922 39.5692 39.4922C38.474 39.4922 37.4442 39.9187 36.6697 40.6932L33.7704 43.5924C32.1716 45.1912 32.1716 47.7927 33.7704 49.3914C34.5698 50.1908 35.6198 50.5905 36.6699 50.5905C37.72 50.5905 38.7701 50.1908 39.5694 49.3914L38.1193 47.9413C37.3201 48.7405 36.0197 48.7405 35.2205 47.9413Z" fill="#77C360"/>
<path d="M43.9179 35.1406C42.8226 35.1406 41.7928 35.5671 41.0184 36.3416L42.4685 37.7917C42.8556 37.4046 43.3704 37.1914 43.9179 37.1914C44.4654 37.1914 44.9802 37.4046 45.3673 37.7917C46.1664 38.5909 46.1664 39.8913 45.3673 40.6905L42.468 43.5898C42.0809 43.977 41.5662 44.1902 41.0187 44.1902C40.4711 44.1902 39.9564 43.977 39.5692 43.5898L38.1191 45.0399C38.8937 45.8145 39.9233 46.241 41.0187 46.241C42.1139 46.241 43.1437 45.8145 43.9181 45.0399L46.8174 42.1407C48.4162 40.5419 48.4162 37.9405 46.8174 36.3417C46.0429 35.5671 45.0132 35.1406 43.9179 35.1406Z" fill="#77C360"/>
</svg>
