<svg width="82" height="82" viewBox="0 0 82 82" fill="none" xmlns="http://www.w3.org/2000/svg">
<circle cx="41" cy="41" r="41" fill="#D8D8D8"/>
<path d="M56.4091 33.5459H51.5758L53.1715 27.5943C53.399 26.7463 52.8963 25.8729 52.0468 25.6454C51.1974 25.4179 50.3237 25.9222 50.098 26.7702L48.2829 33.5459H36.9841L38.5798 27.5943C38.8073 26.7463 38.3045 25.8729 37.4551 25.6454C36.6054 25.4197 35.7338 25.9222 35.5077 26.7702L33.6909 33.5459H27.7727C26.8944 33.5459 26.1819 34.257 26.1819 35.1367C26.1819 36.0167 26.8944 36.7278 27.7727 36.7278H32.8365L30.2768 46.2733H24.5908C23.7128 46.2733 23 46.9843 23 47.8641C23 48.7438 23.7128 49.4549 24.5908 49.4549H29.4241L27.8284 55.4065C27.6009 56.2545 28.1036 57.1278 28.9531 57.3553C29.09 57.392 29.2284 57.4095 29.3635 57.4095C30.0653 57.4095 30.7097 56.9417 30.899 56.2306L32.7173 49.4549H44.0158L42.4201 55.4065C42.1929 56.2545 42.6954 57.1278 43.5451 57.3553C43.6817 57.392 43.8201 57.4095 43.957 57.4095C44.6588 57.4095 45.3028 56.9417 45.4922 56.2306L47.309 49.4549H53.2272C54.1055 49.4549 54.8183 48.7438 54.8183 47.8641C54.8183 46.9843 54.1055 46.2733 53.2272 46.2733H48.1634L50.7231 36.7278H56.4091C57.2874 36.7278 57.9999 36.0167 57.9999 35.1367C57.9999 34.257 57.2874 33.5459 56.4091 33.5459ZM44.8685 46.2733H33.57L36.1297 36.7278H47.4285L44.8685 46.2733Z" fill="#77C360"/>
</svg>
