<svg width="82" height="82" viewBox="0 0 82 82" fill="none" xmlns="http://www.w3.org/2000/svg">
<circle cx="41" cy="41" r="41" fill="#D8D8D8"/>
<path d="M45.9688 24H27.8535V59H53.1465V31.1777C53.1465 27.2199 49.9266 24 45.9688 24ZM50.9925 30.1523H46.9941V26.1539C49.0001 26.5628 50.5837 28.1464 50.9925 30.1523ZM29.9043 56.9492V26.0508H44.9434V32.2031H51.0957V56.9492H29.9043Z" fill="#77C360"/>
<path d="M35.22 47.9394C34.4208 47.1402 34.4208 45.8398 35.22 45.0406L38.1193 42.1413C38.5064 41.7542 39.0211 41.541 39.5687 41.541C40.1162 41.541 40.631 41.7542 41.0181 42.1413L42.4682 40.6912C41.6938 39.9167 40.664 39.4902 39.5688 39.4902C38.4735 39.4902 37.4437 39.9167 36.6692 40.6912L33.7699 43.5905C32.1711 45.1893 32.1711 47.7907 33.7699 49.3895C34.5693 50.1889 35.6194 50.5886 36.6694 50.5886C37.7195 50.5886 38.7696 50.1889 39.569 49.3895L38.1188 47.9394C37.3196 48.7385 36.0193 48.7385 35.22 47.9394Z" fill="#77C360"/>
<path d="M43.9174 35.1426C42.8221 35.1426 41.7924 35.5691 41.0179 36.3436L42.468 37.7937C42.8551 37.4065 43.3699 37.1934 43.9174 37.1934C44.4649 37.1934 44.9797 37.4066 45.3668 37.7937C46.1659 38.5929 46.1659 39.8933 45.3668 40.6925L42.4675 43.5918C42.0804 43.979 41.5657 44.1921 41.0182 44.1921C40.4706 44.1921 39.9559 43.9789 39.5688 43.5918L38.1187 45.0419C38.8932 45.8164 39.9229 46.2429 41.0182 46.2429C42.1134 46.2429 43.1432 45.8164 43.9176 45.0419L46.8169 42.1426C48.4157 40.5439 48.4157 37.9424 46.8169 36.3437C46.0425 35.5691 45.0127 35.1426 43.9174 35.1426Z" fill="#77C360"/>
</svg>
