<svg width="90" height="90" viewBox="0 0 90 90" fill="none" xmlns="http://www.w3.org/2000/svg">
<g filter="url(#filter0_d_3611_1351)">
<circle cx="45" cy="43" r="41" fill="white"/>
</g>
<circle cx="44.5" cy="43.5" r="35" stroke="#77C360"/>
<path d="M57 41C57 39.2352 55.5424 37.8 53.75 37.8H52.125V33C52.125 28.5888 48.4801 25 44 25C39.5199 25 35.875 28.5888 35.875 33V37.8H34.25C32.4576 37.8 31 39.2352 31 41V53.8C31 55.5648 32.4576 57 34.25 57H53.75C55.5424 57 57 55.5648 57 53.8V41ZM39.125 33C39.125 30.3536 41.3123 28.2 44 28.2C46.6877 28.2 48.875 30.3536 48.875 33V37.8H39.125V33Z" fill="#77C360"/>
<path d="M56.7256 48.3422L56.8162 48.5933L57.0751 48.6578C57.2933 48.7121 57.4712 48.7642 57.6157 48.816L57.6159 48.8161C57.7768 48.8737 57.9947 48.9649 58.2754 49.0956L58.5007 49.2005L58.7204 49.0843L60.1999 48.3013L60.2001 48.3012C60.2253 48.2879 60.2542 48.283 60.2823 48.2875C60.3104 48.2919 60.3362 48.3052 60.3561 48.3256C60.3561 48.3256 60.3562 48.3257 60.3563 48.3258L61.6563 49.6699C61.6564 49.67 61.6564 49.67 61.6565 49.67C61.6902 49.7051 61.6987 49.7532 61.6803 49.7966C61.6803 49.7966 61.6803 49.7967 61.6802 49.7967L60.9866 51.4224L60.8916 51.6451L61.0074 51.8578C61.1187 52.0621 61.2052 52.2329 61.2697 52.3718C61.3388 52.5225 61.4279 52.7377 61.5373 53.0245L61.6128 53.2224L61.8075 53.3058L63.4248 53.9988L63.4258 53.9992C63.4758 54.0205 63.5027 54.068 63.4998 54.1146C63.4998 54.1147 63.4998 54.1147 63.4998 54.1147L63.3811 55.9799C63.3811 55.98 63.3811 55.9802 63.3811 55.9803C63.3794 56.0038 63.371 56.0263 63.3567 56.045L63.7547 56.3477L63.3567 56.045C63.3424 56.0639 63.3228 56.0781 63.3005 56.086L63.2986 56.0867L61.7668 56.6311L61.5021 56.7252L61.4448 57.0002C61.4033 57.1991 61.3618 57.3616 61.3201 57.4933C61.2469 57.7136 61.1634 57.9303 61.0699 58.1428L60.98 58.347L61.0719 58.5503L61.8414 60.2513L61.8418 60.2521C61.8519 60.2744 61.8546 60.2993 61.8495 60.3233C61.8445 60.3473 61.8319 60.369 61.8135 60.3853L61.8127 60.386L60.3502 61.6921C60.3501 61.6922 60.35 61.6922 60.3499 61.6923C60.3297 61.7101 60.3046 61.7214 60.2779 61.7246C60.2511 61.7279 60.2239 61.7229 60.2001 61.7103C60.2 61.7102 60.2 61.7102 60.1999 61.7102L58.6918 60.9111L58.4578 60.7871L58.2237 60.911C58.0063 61.0262 57.7819 61.1279 57.552 61.2155C57.5516 61.2156 57.5512 61.2158 57.5508 61.216L56.8947 61.4615L56.6782 61.5426L56.5997 61.76L56.0153 63.3782C56.0153 63.3784 56.0152 63.3786 56.0151 63.3787C56.0063 63.4024 55.9907 63.423 55.9701 63.4377C55.9493 63.4525 55.9246 63.4607 55.8991 63.4612L55.8977 63.4612L54.1877 63.4999L54.1859 63.5C54.1596 63.5006 54.1338 63.4932 54.1119 63.4786L53.8341 63.8943L54.1119 63.4785C54.0902 63.4641 54.0735 63.4433 54.0641 63.4191C54.064 63.4188 54.0639 63.4186 54.0638 63.4183L53.3753 61.5965L53.2921 61.3762L53.0693 61.3001C52.8448 61.2234 52.6225 61.1403 52.4027 61.0511C52.2266 60.9748 52.0531 60.8924 51.8826 60.8043L51.6732 60.6961L51.4565 60.7887L49.7469 61.5194C49.7468 61.5194 49.7467 61.5195 49.7467 61.5195C49.7232 61.5295 49.6974 61.5324 49.6723 61.528C49.6472 61.5236 49.624 61.512 49.6053 61.4946C49.6053 61.4945 49.6052 61.4945 49.6052 61.4944L48.3404 60.3079L48.3396 60.3071C48.322 60.2907 48.31 60.2692 48.3053 60.2456C48.3007 60.2221 48.3035 60.1977 48.3134 60.1758C48.3135 60.1758 48.3135 60.1757 48.3135 60.1756L49.0485 58.5744L49.15 58.3532L49.0385 58.1368C48.947 57.9594 48.8622 57.7786 48.7842 57.5949C48.6913 57.3649 48.6052 57.1322 48.5262 56.8971L48.4442 56.653L48.1979 56.578L46.587 56.0876L46.586 56.0873C46.5605 56.0795 46.5382 56.0636 46.5227 56.042L46.1164 56.3334L46.5227 56.042C46.5073 56.0205 46.4993 55.9945 46.5 55.9681C46.5001 55.9679 46.5001 55.9677 46.5001 55.9675L46.5629 54.2422C46.5629 54.242 46.5629 54.2418 46.563 54.2417C46.5639 54.2201 46.5707 54.1992 46.5826 54.1812C46.5945 54.1631 46.6112 54.1486 46.6308 54.1393L46.6326 54.1384L48.3227 53.3266L48.5286 53.2278L48.5886 53.0075C48.6648 52.7282 48.7282 52.5226 48.7807 52.3803C48.8599 52.1776 48.9478 51.9784 49.0442 51.7833L49.1512 51.5666L49.0478 51.3481L48.3153 49.8002C48.3049 49.7783 48.3017 49.7536 48.3063 49.7298L47.815 49.6365L48.3063 49.7298C48.3108 49.7059 48.3228 49.6841 48.3405 49.6675L48.3405 49.6675L48.3416 49.6665L49.6049 48.4733C49.6049 48.4733 49.6049 48.4733 49.6049 48.4733C49.6234 48.4559 49.6465 48.4442 49.6715 48.4396C49.6964 48.435 49.7222 48.4377 49.7457 48.4474L49.7459 48.4475L51.454 49.1531L51.7005 49.2549L51.9223 49.107C52.0989 48.9893 52.2554 48.8964 52.3935 48.8233L52.3945 48.8228C52.5477 48.7413 52.7683 48.6482 53.0692 48.5409L53.2921 48.4615L53.372 48.2387L53.9654 46.5833C53.9655 46.5832 53.9655 46.583 53.9656 46.5829C53.9745 46.5586 53.9906 46.5377 54.0118 46.5228L53.7251 46.1132L54.0118 46.5228C54.0331 46.5079 54.0585 46.4999 54.0845 46.5H54.0857H55.9702C56.0271 46.5 56.0737 46.5355 56.0903 46.5811C56.0903 46.5811 56.0903 46.5812 56.0903 46.5812L56.7256 48.3422ZM55.0216 51.817C53.2508 51.817 51.8055 53.2369 51.8055 55.0017C51.8055 56.7663 53.2505 58.1873 55.0216 58.1873C56.7919 58.1873 58.2368 56.7662 58.2368 55.0017C58.2368 53.2371 56.7927 51.817 55.0216 51.817Z" fill="#77B550" stroke="white"/>
<defs>
<filter id="filter0_d_3611_1351" x="0" y="0" width="90" height="90" filterUnits="userSpaceOnUse" color-interpolation-filters="sRGB">
<feFlood flood-opacity="0" result="BackgroundImageFix"/>
<feColorMatrix in="SourceAlpha" type="matrix" values="0 0 0 0 0 0 0 0 0 0 0 0 0 0 0 0 0 0 127 0" result="hardAlpha"/>
<feOffset dy="2"/>
<feGaussianBlur stdDeviation="2"/>
<feComposite in2="hardAlpha" operator="out"/>
<feColorMatrix type="matrix" values="0 0 0 0 0 0 0 0 0 0 0 0 0 0 0 0 0 0 0.08 0"/>
<feBlend mode="normal" in2="BackgroundImageFix" result="effect1_dropShadow_3611_1351"/>
<feBlend mode="normal" in="SourceGraphic" in2="effect1_dropShadow_3611_1351" result="shape"/>
</filter>
</defs>
</svg>
