<svg width="82" height="82" viewBox="0 0 82 82" fill="none" xmlns="http://www.w3.org/2000/svg">
<circle cx="41" cy="41" r="41" fill="white"/>
<circle cx="41.5" cy="41.5" r="35" stroke="#77C360"/>
<g clip-path="url(#clip0_3611_1374)">
<path d="M25.0508 26.0508H31.2031V24H23V32.2031H25.0508V26.0508Z" fill="#77C360"/>
<path d="M49.7969 24V26.0508H55.9492V32.2031H58V24H49.7969Z" fill="#77C360"/>
<path d="M55.9492 56.9492H49.7969V59H58V50.7969H55.9492V56.9492Z" fill="#77C360"/>
<path d="M25.0508 50.7969H23V59H31.2031V56.9492H25.0508V50.7969Z" fill="#77C360"/>
<path d="M27.1699 28.1016V38.3555H37.4238V32.2031H39.4746V30.1523H37.4238V28.1016H27.1699ZM35.373 36.3047H29.2207V30.1523H35.373V36.3047Z" fill="#77C360"/>
<path d="M53.8301 54.7617V44.5078H49.7285V42.457H47.6777V44.5078H41.5254V46.5586H43.5762V48.6094H41.5254V50.6602H43.5762V54.7617H53.8301ZM45.627 46.5586H51.7793V52.7109H45.627V46.5586Z" fill="#77C360"/>
<path d="M33.3223 42.457H37.4238V40.4062H27.1699V42.457H31.2715V44.5078H29.2207V46.5586H31.2715V50.6602H29.2207V52.7109H31.2715V54.7617H41.5254V52.7109H39.4746V50.6602H37.4238V52.7109H33.3223V50.6602H35.373V48.6094H33.3223V42.457Z" fill="#77C360"/>
<path d="M31.2715 32.2031H33.3223V34.2539H31.2715V32.2031Z" fill="#77C360"/>
<path d="M47.6777 32.2031H49.7285V34.2539H47.6777V32.2031Z" fill="#77C360"/>
<path d="M49.7285 38.3555H53.8301V28.1016H43.5762V38.3555H47.6777V40.4062H49.7285V38.3555ZM45.627 36.3047V30.1523H51.7793V36.3047H45.627Z" fill="#77C360"/>
<path d="M53.8301 42.457V40.4062C53.3339 40.4062 50.2281 40.4062 49.7285 40.4062V42.457H53.8301Z" fill="#77C360"/>
<path d="M47.6777 48.6094H49.7285V50.6602H47.6777V48.6094Z" fill="#77C360"/>
<path d="M39.4746 46.5586H41.5254V48.6094H39.4746V46.5586Z" fill="#77C360"/>
<path d="M35.373 48.6094H37.4238C37.4238 48.1132 37.4238 45.0074 37.4238 44.5078H35.373V48.6094Z" fill="#77C360"/>
<path d="M37.4238 42.457H39.4746V44.5078H37.4238V42.457Z" fill="#77C360"/>
<path d="M29.2207 46.5586H27.1699V50.6602H29.2207C29.2207 50.164 29.2207 47.0582 29.2207 46.5586Z" fill="#77C360"/>
<path d="M27.1699 52.7109H29.2207V54.7617H27.1699V52.7109Z" fill="#77C360"/>
<path d="M39.4746 28.1016H41.5254V30.1523H39.4746V28.1016Z" fill="#77C360"/>
<path d="M39.4746 36.3047H41.5254C41.5254 35.8085 41.5254 32.7027 41.5254 32.2031H39.4746V36.3047Z" fill="#77C360"/>
<path d="M41.5254 40.4062V38.3555H39.4746V42.457H47.6777V40.4062H41.5254Z" fill="#77C360"/>
</g>
<defs>
<clipPath id="clip0_3611_1374">
<rect width="35" height="35" fill="white" transform="translate(23 24)"/>
</clipPath>
</defs>
</svg>
