<svg width="82" height="82" viewBox="0 0 82 82" fill="none" xmlns="http://www.w3.org/2000/svg">
<circle cx="41" cy="41" r="41" fill="#D8D8D8"/>
<g clip-path="url(#clip0)">
<path d="M54.4227 29.6674L41.0242 24.1045C40.6886 23.9652 40.3113 23.9651 39.9758 24.1045L26.5773 29.6674C26.067 29.8793 25.7344 30.3775 25.7344 30.9301V37.6925C25.7344 47.004 31.3623 55.3798 39.9833 58.8986C40.3145 59.0338 40.6855 59.0338 41.0167 58.8986C49.6375 55.3799 55.2656 47.004 55.2656 37.6925V30.9301C55.2656 30.3775 54.9331 29.8793 54.4227 29.6674ZM52.5312 37.6925C52.5312 45.6082 47.8828 52.8951 40.5 56.1478C33.3145 52.982 28.4688 45.8227 28.4688 37.6925V31.8428L40.5 26.8475L52.5312 31.8428V37.6925ZM38.9888 42.3009L44.8653 36.4245C45.3992 35.8906 46.2648 35.8906 46.7988 36.4245C47.3327 36.9585 47.3327 37.8241 46.7987 38.358L39.9556 45.2011C39.4216 45.7351 38.5559 45.7349 38.0221 45.2011L34.2012 41.3802C33.6673 40.8463 33.6673 39.9806 34.2012 39.4468C34.7352 38.9129 35.6008 38.9128 36.1347 39.4468L38.9888 42.3009Z" fill="#77C360"/>
</g>
<defs>
<clipPath id="clip0">
<rect width="35" height="35" fill="white" transform="translate(23 24)"/>
</clipPath>
</defs>
</svg>
