<svg width="82" height="82" viewBox="0 0 82 82" fill="none" xmlns="http://www.w3.org/2000/svg">
<circle cx="41" cy="41" r="41" fill="white"/>
<circle cx="41.5" cy="41.5" r="35" stroke="#77C360"/>
<g clip-path="url(#clip0_3611_1351)">
<path d="M54.4227 29.6675L41.0242 24.1046C40.6886 23.9653 40.3113 23.9653 39.9758 24.1046L26.5773 29.6675C26.067 29.8794 25.7344 30.3776 25.7344 30.9302V37.6926C25.7344 47.0041 31.3623 55.3799 39.9833 58.8987C40.3145 59.0339 40.6855 59.0339 41.0167 58.8987C49.6375 55.38 55.2656 47.0041 55.2656 37.6926V30.9302C55.2656 30.3776 54.9331 29.8794 54.4227 29.6675V29.6675ZM52.5312 37.6926C52.5312 45.6083 47.8828 52.8952 40.5 56.1479C33.3145 52.9821 28.4688 45.8228 28.4688 37.6926V31.8429L40.5 26.8476L52.5312 31.8429V37.6926ZM38.9888 42.301L44.8653 36.4246C45.3992 35.8908 46.2648 35.8907 46.7988 36.4246C47.3327 36.9586 47.3327 37.8242 46.7987 38.3581L39.9556 45.2012C39.4216 45.7353 38.5559 45.735 38.0221 45.2012L34.2012 41.3804C33.6673 40.8464 33.6673 39.9808 34.2012 39.4469C34.7352 38.913 35.6008 38.9129 36.1347 39.4469L38.9888 42.301Z" fill="#77C360"/>
</g>
<defs>
<clipPath id="clip0_3611_1351">
<rect width="35" height="35" fill="white" transform="translate(23 24)"/>
</clipPath>
</defs>
</svg>
