<svg width="82" height="82" viewBox="0 0 82 82" fill="none" xmlns="http://www.w3.org/2000/svg">
<circle cx="41" cy="41" r="41" fill="white"/>
<circle cx="41.5" cy="41.5" r="35" stroke="#77C360"/>
<path d="M47.9286 45.75C46.2633 45.75 44.7327 46.3303 43.5244 47.3008L35.9752 42.5468C36.1988 41.5279 36.1988 40.4721 35.9752 39.4531L43.5244 34.6991C44.7327 35.6697 46.2633 36.25 47.9286 36.25C51.834 36.25 55 33.06 55 29.125C55 25.19 51.834 22 47.9286 22C44.0232 22 40.8571 25.19 40.8571 29.125C40.8571 29.6563 40.9153 30.1737 41.0248 30.6718L33.4756 35.4258C32.2673 34.4553 30.7368 33.875 29.0714 33.875C25.166 33.875 22 37.065 22 41C22 44.935 25.166 48.125 29.0714 48.125C30.7368 48.125 32.2673 47.5447 33.4756 46.5742L41.0248 51.3282C40.9132 51.8361 40.857 52.3548 40.8571 52.875C40.8571 56.81 44.0232 60 47.9286 60C51.834 60 55 56.81 55 52.875C55 48.94 51.834 45.75 47.9286 45.75Z" fill="#77C360"/>
</svg>
