<svg width="82" height="82" viewBox="0 0 82 82" fill="none" xmlns="http://www.w3.org/2000/svg">
<circle cx="41" cy="41" r="41" fill="#D8D8D8"/>
<path d="M56.8071 29.8332C56.8071 32.4509 54.4924 34.573 51.6367 34.573C48.781 34.573 46.4663 32.4509 46.4663 29.8332C46.4663 27.2158 48.781 25.0938 51.6367 25.0938C54.4924 25.0938 56.8071 27.2158 56.8071 29.8332Z" fill="#A6CF8D"/>
<path d="M51.6365 35.6667C48.1269 35.6667 45.2729 33.0504 45.2729 29.8332C45.2729 26.6163 48.1269 24 51.6365 24C55.1462 24 58.0001 26.6163 58.0001 29.8332C58.0001 33.0504 55.1462 35.6667 51.6365 35.6667ZM51.6365 26.1875C49.4427 26.1875 47.6593 27.8238 47.6593 29.8332C47.6593 31.8429 49.4427 33.4792 51.6365 33.4792C53.8304 33.4792 55.6137 31.8429 55.6137 29.8332C55.6137 27.8238 53.8304 26.1875 51.6365 26.1875Z" fill="#A6CF8D"/>
<path d="M56.8071 53.167C56.8071 55.7844 54.4924 57.9065 51.6367 57.9065C48.781 57.9065 46.4663 55.7844 46.4663 53.167C46.4663 50.5493 48.781 48.4272 51.6367 48.4272C54.4924 48.4272 56.8071 50.5493 56.8071 53.167Z" fill="#A6CF8D"/>
<path d="M51.6365 59.0002C48.1269 59.0002 45.2729 56.3839 45.2729 53.167C45.2729 49.9498 48.1269 47.3335 51.6365 47.3335C55.1462 47.3335 58.0001 49.9498 58.0001 53.167C58.0001 56.3839 55.1462 59.0002 51.6365 59.0002ZM51.6365 49.521C49.4427 49.521 47.6593 51.1573 47.6593 53.167C47.6593 55.1764 49.4427 56.8127 51.6365 56.8127C53.8304 56.8127 55.6137 55.1764 55.6137 53.167C55.6137 51.1573 53.8304 49.521 51.6365 49.521Z" fill="#A6CF8D"/>
<path d="M34.5344 41.4997C34.5344 44.1174 32.2194 46.2392 29.3638 46.2392C26.5084 46.2392 24.1934 44.1174 24.1934 41.4997C24.1934 38.8821 26.5084 36.7603 29.3638 36.7603C32.2194 36.7603 34.5344 38.8821 34.5344 41.4997Z" fill="#A6CF8D"/>
<path d="M29.3636 47.333C25.8542 47.333 23 44.7169 23 41.4997C23 38.2826 25.8542 35.6665 29.3636 35.6665C32.8732 35.6665 35.7275 38.2826 35.7275 41.4997C35.7275 44.7169 32.8732 47.333 29.3636 47.333ZM29.3636 37.854C27.1698 37.854 25.3864 39.4901 25.3864 41.4997C25.3864 43.5094 27.1698 45.1455 29.3636 45.1455C31.5577 45.1455 33.3411 43.5094 33.3411 41.4997C33.3411 39.4901 31.5577 37.854 29.3636 37.854Z" fill="#A6CF8D"/>
<path d="M33.1199 40.8001C32.5661 40.8001 32.0283 40.536 31.7356 40.0636C31.3012 39.3651 31.5686 38.474 32.3307 38.0742L47.0926 30.3598C47.8547 29.9587 48.8268 30.2039 49.2629 30.9051C49.6972 31.6036 49.4298 32.4947 48.6677 32.8944L33.9055 40.6089C33.6573 40.7386 33.387 40.8001 33.1199 40.8001Z" fill="#A6CF8D"/>
<path d="M47.8806 52.831C47.6132 52.831 47.3429 52.7696 47.0947 52.6398L32.3324 44.9254C31.5704 44.5273 31.3033 43.6362 31.7376 42.936C32.1702 42.2362 33.1437 41.9897 33.9075 42.3908L48.6698 50.1052C49.4318 50.5033 49.6989 51.3944 49.2646 52.0946C48.9704 52.5669 48.4326 52.831 47.8806 52.831Z" fill="#A6CF8D"/>
</svg>
