<svg width="82" height="82" viewBox="0 0 82 82" fill="none" xmlns="http://www.w3.org/2000/svg">
<circle cx="41" cy="41" r="41" fill="#D8D8D8"/>
<path d="M48.9925 33.0075C47.1797 27.7697 42.2192 24 36.3984 24C29.0294 24 23 30.0303 23 37.3984C23 43.2192 26.7697 48.1797 32.0075 49.9925C33.8203 55.2303 38.7808 59 44.6016 59C51.9706 59 58 52.9697 58 45.6016C58 39.7808 54.2303 34.8203 48.9925 33.0075ZM25.0508 37.3984C25.0508 31.1413 30.1413 26.0508 36.3984 26.0508C40.8397 26.0508 44.6891 28.6469 46.5275 32.4098C45.8983 32.3193 45.2555 32.2715 44.6016 32.2715C37.2327 32.2715 31.2715 38.2731 31.2715 45.6016C31.2715 46.2555 31.3193 46.8983 31.4098 47.5275C27.6469 45.6891 25.0508 41.8397 25.0508 37.3984ZM43.6122 46.0623L35.9377 38.3878C36.3764 37.8618 36.8618 37.3764 37.3878 36.9377L45.0623 44.6122C44.6236 45.1382 44.1382 45.6236 43.6122 46.0623ZM39.8774 48.128L33.872 42.1227C34.1012 41.4174 34.3981 40.7425 34.7551 40.1055L41.8945 47.2449C41.2576 47.6019 40.5826 47.8988 39.8774 48.128ZM33.3739 44.5248L37.4752 48.6261C36.1824 48.7491 34.8928 48.6502 33.6561 48.3439C33.35 47.1082 33.2508 45.8187 33.3739 44.5248ZM46.2449 42.8945L39.1055 35.7551C39.7425 35.3981 40.4174 35.1012 41.1226 34.872L47.128 40.8773C46.8988 41.5826 46.6019 42.2575 46.2449 42.8945ZM47.6261 38.4752L43.5248 34.3739C44.8176 34.2509 46.1072 34.3498 47.3439 34.6561C47.65 35.8918 47.7492 37.1813 47.6261 38.4752ZM44.6016 56.9492C40.1603 56.9492 36.3109 54.3531 34.4725 50.5902C43.3198 51.8629 50.8577 44.2837 49.5903 35.4725C53.3531 37.3109 55.9492 41.1603 55.9492 45.6016C55.9492 51.8587 50.8587 56.9492 44.6016 56.9492Z" fill="#77C360"/>
</svg>
