<svg width="25" height="25" viewBox="0 0 25 25" fill="none" xmlns="http://www.w3.org/2000/svg">
<path d="M15.6248 13.5416C15.0488 13.5416 14.5833 14.0083 14.5833 14.5832V18.75C14.5833 19.3239 14.1165 19.7916 13.5415 19.7916H10.4165V4.1666C10.4165 3.27702 9.84984 2.48222 8.99783 2.18639L8.68941 2.08321H13.5415C14.1165 2.08321 14.5833 2.55089 14.5833 3.125V6.25C14.5833 6.82487 15.0488 7.2916 15.6248 7.2916C16.2009 7.2916 16.6664 6.82487 16.6664 6.25V3.125C16.6664 1.40209 15.2644 0 13.5415 0H2.34373C2.30405 0 2.27087 0.0177384 2.23234 0.0228882C2.18218 0.018692 2.1343 0 2.08338 0C0.934401 0 0 0.934219 0 2.08321V20.8332C0 21.7228 0.566668 22.5176 1.41867 22.8134L7.68749 24.9031C7.89997 24.9687 8.1113 25 8.33332 25C9.48229 25 10.4165 24.0656 10.4165 22.9166V21.875H13.5415C15.2644 21.875 16.6664 20.4729 16.6664 18.75V14.5832C16.6664 14.0083 16.2009 13.5416 15.6248 13.5416Z" fill="black"/>
<path d="M24.6946 9.67986L20.5279 5.51325C20.2301 5.21533 19.7821 5.12568 19.3926 5.28704C19.0041 5.4486 18.7498 5.82873 18.7498 6.24968V9.37468H14.5833C14.0082 9.37468 13.5415 9.84122 13.5415 10.4163C13.5415 10.9913 14.0082 11.4579 14.5833 11.4579H18.7498V14.5829C18.7498 15.0038 19.0041 15.384 19.3926 15.5455C19.7821 15.7069 20.2301 15.6172 20.5279 15.3195L24.6946 11.1527C25.1018 10.7455 25.1018 10.0871 24.6946 9.67986Z" fill="black"/>
</svg>
